DrSheldon-Regular.ufo
<glyph name="quotedbl" format="2">
  <advance width="885"/>
  <unicode hex="0022"/>
  <outline>
    <contour>
      <point x="660" y="748" type="curve" smooth="yes"/>
      <point x="732" y="748"/>
      <point x="767" y="796"/>
      <point x="780" y="861" type="curve" smooth="yes"/>
      <point x="855" y="1227" type="line" smooth="yes"/>
      <point x="863" y="1265"/>
      <point x="868" y="1305"/>
      <point x="868" y="1344" type="curve" smooth="yes"/>
      <point x="868" y="1471"/>
      <point x="811" y="1559"/>
      <point x="675" y="1559" type="curve" smooth="yes"/>
      <point x="534" y="1559"/>
      <point x="475" y="1471"/>
      <point x="475" y="1338" type="curve" smooth="yes"/>
      <point x="475" y="1300"/>
      <point x="479" y="1262"/>
      <point x="486" y="1225" type="curve" smooth="yes"/>
      <point x="553" y="864" type="line" smooth="yes"/>
      <point x="563" y="810"/>
      <point x="597" y="748"/>
    </contour>
    <contour>
      <point x="205" y="748" type="curve" smooth="yes"/>
      <point x="277" y="748"/>
      <point x="310" y="796"/>
      <point x="324" y="861" type="curve" smooth="yes"/>
      <point x="400" y="1227" type="line" smooth="yes"/>
      <point x="408" y="1265"/>
      <point x="413" y="1305"/>
      <point x="413" y="1344" type="curve" smooth="yes"/>
      <point x="413" y="1472"/>
      <point x="355" y="1559"/>
      <point x="219" y="1559" type="curve" smooth="yes"/>
      <point x="78" y="1559"/>
      <point x="19" y="1472"/>
      <point x="19" y="1339" type="curve" smooth="yes"/>
      <point x="19" y="1301"/>
      <point x="24" y="1263"/>
      <point x="31" y="1225" type="curve" smooth="yes"/>
      <point x="98" y="864" type="line" smooth="yes"/>
      <point x="108" y="809"/>
      <point x="142" y="748"/>
    </contour>
  </outline>
</glyph>
<glyph name="hyphen" format="2">
  <advance width="582"/>
  <unicode hex="002D"/>
  <outline>
    <contour>
      <point x="144" y="688" type="line" smooth="yes"/>
      <point x="82" y="688"/>
      <point x="47" y="638"/>
      <point x="36" y="581" type="curve" smooth="yes"/>
      <point x="35" y="575"/>
      <point x="34" y="569"/>
      <point x="30" y="563" type="curve"/>
      <point x="30" y="561" type="line"/>
      <point x="17" y="527"/>
      <point x="3" y="493"/>
      <point x="3" y="456" type="curve" smooth="yes"/>
      <point x="3" y="413"/>
      <point x="34" y="397"/>
      <point x="73" y="397" type="curve" smooth="yes"/>
      <point x="440" y="397" type="line" smooth="yes"/>
      <point x="523" y="397"/>
      <point x="540" y="477"/>
      <point x="559" y="541" type="curve" smooth="yes"/>
      <point x="567" y="569"/>
      <point x="580" y="599"/>
      <point x="580" y="629" type="curve" smooth="yes"/>
      <point x="580" y="672"/>
      <point x="549" y="688"/>
      <point x="510" y="688" type="curve" smooth="yes"/>
    </contour>
  </outline>
</glyph>
<glyph name="one" format="2">
  <advance width="1229"/>
  <unicode hex="0031"/>
  <outline>
    <contour>
      <point x="71" y="1048" type="curve" smooth="yes"/>
      <point x="71" y="1124"/>
      <point x="125" y="1174"/>
      <point x="200" y="1174" type="curve" smooth="yes"/>
      <point x="239" y="1174"/>
      <point x="278" y="1173"/>
      <point x="317" y="1173" type="curve" smooth="yes"/>
      <point x="435" y="1173"/>
      <point x="493" y="1187"/>
      <point x="601" y="1233" type="curve" smooth="yes"/>
      <point x="649" y="1254"/>
      <point x="699" y="1273"/>
      <point x="752" y="1273" type="curve" smooth="yes"/>
      <point x="827" y="1273"/>
      <point x="866" y="1229"/>
      <point x="866" y="1155" type="curve" smooth="yes"/>
      <point x="866" y="329" type="line" smooth="yes"/>
      <point x="866" y="182"/>
      <point x="1191" y="304"/>
      <point x="1191" y="111" type="curve" smooth="yes"/>
      <point x="1191" y="36"/>
      <point x="1147" y="0"/>
      <point x="1074" y="0" type="curve" smooth="yes"/>
      <point x="180" y="0" type="line" smooth="yes"/>
      <point x="108" y="0"/>
      <point x="61" y="36"/>
      <point x="61" y="111" type="curve" smooth="yes"/>
      <point x="61" y="316"/>
      <point x="415" y="174"/>
      <point x="415" y="329" type="curve" smooth="yes"/>
      <point x="415" y="819" type="line" smooth="yes"/>
      <point x="415" y="892"/>
      <point x="392" y="925"/>
      <point x="316" y="925" type="curve" smooth="yes"/>
      <point x="288" y="925"/>
      <point x="260" y="922"/>
      <point x="232" y="922" type="curve" smooth="yes"/>
      <point x="141" y="922"/>
      <point x="71" y="942"/>
    </contour>
  </outline>
</glyph>
<glyph name="two" format="2">
  <advance width="1229"/>
  <unicode hex="0032"/>
  <outline>
    <contour>
      <point x="274" y="322" type="line"/>
      <point x="595" y="415" type="line" smooth="yes"/>
      <point x="649" y="431"/>
      <point x="699" y="455"/>
      <point x="749" y="480" type="curve" smooth="yes"/>
      <point x="929" y="571"/>
      <point x="1100" y="703"/>
      <point x="1100" y="924" type="curve" smooth="yes"/>
      <point x="1100" y="1216"/>
      <point x="850" y="1306"/>
      <point x="600" y="1306" type="curve" smooth="yes"/>
      <point x="375" y="1306"/>
      <point x="97" y="1217"/>
      <point x="97" y="947" type="curve" smooth="yes"/>
      <point x="97" y="821"/>
      <point x="158" y="710"/>
      <point x="297" y="710" type="curve" smooth="yes"/>
      <point x="426" y="710"/>
      <point x="501" y="797"/>
      <point x="501" y="923" type="curve" smooth="yes"/>
      <point x="501" y="1029" type="line" smooth="yes"/>
      <point x="501" y="1074"/>
      <point x="501" y="1151"/>
      <point x="565" y="1151" type="curve" smooth="yes"/>
      <point x="632" y="1151"/>
      <point x="632" y="982"/>
      <point x="632" y="937" type="curve" smooth="yes"/>
      <point x="632" y="727"/>
      <point x="602" y="608"/>
      <point x="419" y="488" type="curve" smooth="yes"/>
      <point x="395" y="473"/>
      <point x="361" y="451"/>
      <point x="334" y="444" type="curve" smooth="yes"/>
      <point x="187" y="405" type="line"/>
    </contour>
    <contour>
      <point x="70" y="194" type="curve" smooth="yes"/>
      <point x="70" y="74"/>
      <point x="133" y="-40"/>
      <point x="266" y="-40" type="curve" smooth="yes"/>
      <point x="408" y="-40"/>
      <point x="462" y="0"/>
      <point x="496" y="138" type="curve" smooth="yes"/>
      <point x="502" y="163"/>
      <point x="510" y="198"/>
      <point x="543" y="198" type="curve" smooth="yes"/>
      <point x="580" y="198"/>
      <point x="576" y="166"/>
      <point x="584" y="141" type="curve" smooth="yes"/>
      <point x="625" y="17"/>
      <point x="723" y="-41"/>
      <point x="851" y="-41" type="curve" smooth="yes"/>
      <point x="1099" y="-41"/>
      <point x="1171" y="182"/>
      <point x="1184" y="390" type="curve" smooth="yes"/>
      <point x="1185" y="402"/>
      <point x="1186" y="415"/>
      <point x="1186" y="427" type="curve" smooth="yes"/>
      <point x="1186" y="472"/>
      <point x="1179" y="544"/>
      <point x="1119" y="544" type="curve" smooth="yes"/>
      <point x="1039" y="544"/>
      <point x="1036" y="416"/>
      <point x="871" y="416" type="curve" smooth="yes"/>
      <point x="704" y="416"/>
      <point x="539" y="445"/>
      <point x="372" y="445" type="curve" smooth="yes"/>
      <point x="213" y="445"/>
      <point x="70" y="371"/>
    </contour>
  </outline>
</glyph>
<glyph name="three" format="2">
  <advance width="1229"/>
  <unicode hex="0033"/>
  <outline>
    <contour>
      <point x="631" y="649" type="line"/>
      <point x="1073" y="969" type="line"/>
      <point x="1082" y="976"/>
      <point x="1089" y="984"/>
      <point x="1097" y="992" type="curve" smooth="yes"/>
      <point x="1137" y="1032"/>
      <point x="1184" y="1078"/>
      <point x="1184" y="1139" type="curve" smooth="yes"/>
      <point x="1184" y="1212"/>
      <point x="1139" y="1265"/>
      <point x="1064" y="1265" type="curve" smooth="yes"/>
      <point x="308" y="1265" type="line" smooth="yes"/>
      <point x="228" y="1265"/>
      <point x="168" y="1222"/>
      <point x="161" y="1139" type="curve" smooth="yes"/>
      <point x="132" y="802" type="line"/>
      <point x="132" y="799"/>
      <point x="132" y="796"/>
      <point x="132" y="793" type="curve" smooth="yes"/>
      <point x="132" y="735"/>
      <point x="178" y="697"/>
      <point x="234" y="697" type="curve" smooth="yes"/>
      <point x="316" y="697"/>
      <point x="326" y="759"/>
      <point x="352" y="820" type="curve" smooth="yes"/>
      <point x="378" y="881"/>
      <point x="395" y="895"/>
      <point x="462" y="895" type="curve" smooth="yes"/>
      <point x="945" y="895" type="line"/>
      <point x="929" y="1094" type="line"/>
      <point x="469" y="746" type="line" smooth="yes"/>
      <point x="429" y="716"/>
      <point x="405" y="662"/>
      <point x="405" y="612" type="curve" smooth="yes"/>
      <point x="405" y="368"/>
      <point x="747" y="657"/>
      <point x="747" y="314" type="curve" smooth="yes"/>
      <point x="747" y="224"/>
      <point x="721" y="114"/>
      <point x="610" y="114" type="curve" smooth="yes"/>
      <point x="563" y="114"/>
      <point x="498" y="136"/>
      <point x="498" y="193" type="curve" smooth="yes"/>
      <point x="498" y="288" type="line" smooth="yes"/>
      <point x="498" y="411"/>
      <point x="428" y="488"/>
      <point x="303" y="488" type="curve" smooth="yes"/>
      <point x="175" y="488"/>
      <point x="90" y="383"/>
      <point x="90" y="260" type="curve" smooth="yes"/>
      <point x="90" y="6"/>
      <point x="408" y="-40"/>
      <point x="602" y="-40" type="curve" smooth="yes"/>
      <point x="869" y="-40"/>
      <point x="1170" y="66"/>
      <point x="1170" y="381" type="curve" smooth="yes"/>
      <point x="1170" y="609"/>
      <point x="971" y="726"/>
      <point x="763" y="726" type="curve" smooth="yes"/>
      <point x="704" y="726"/>
      <point x="643" y="718"/>
      <point x="589" y="692" type="curve"/>
    </contour>
  </outline>
</glyph>
<glyph name="four" format="2">
  <advance width="1229"/>
  <unicode hex="0034"/>
  <outline>
    <contour>
      <point x="360" y="111" type="curve" smooth="yes"/>
      <point x="360" y="40"/>
      <point x="396" y="0"/>
      <point x="468" y="0" type="curve" smooth="yes"/>
      <point x="1012" y="0" type="line" smooth="yes"/>
      <point x="1084" y="0"/>
      <point x="1120" y="40"/>
      <point x="1120" y="111" type="curve" smooth="yes"/>
      <point x="1120" y="242"/>
      <point x="965" y="207"/>
      <point x="964" y="329" type="curve" smooth="yes"/>
      <point x="961" y="818" type="line" smooth="yes"/>
      <point x="961" y="859"/>
      <point x="950" y="905"/>
      <point x="900" y="905" type="curve" smooth="yes"/>
      <point x="861" y="905"/>
      <point x="831" y="874"/>
      <point x="805" y="848" type="curve" smooth="yes"/>
      <point x="578" y="615" type="line" smooth="yes"/>
      <point x="547" y="583"/>
      <point x="537" y="538"/>
      <point x="537" y="495" type="curve" smooth="yes"/>
      <point x="537" y="329" type="line" smooth="yes"/>
      <point x="537" y="184"/>
      <point x="360" y="273"/>
    </contour>
    <contour>
      <point x="36" y="438" type="curve" smooth="yes"/>
      <point x="36" y="371"/>
      <point x="70" y="315"/>
      <point x="143" y="315" type="curve" smooth="yes"/>
      <point x="1041" y="315" type="line" smooth="yes"/>
      <point x="1115" y="315"/>
      <point x="1143" y="353"/>
      <point x="1143" y="424" type="curve" smooth="yes"/>
      <point x="1143" y="488"/>
      <point x="1104" y="520"/>
      <point x="1042" y="520" type="curve" smooth="yes"/>
      <point x="188" y="520" type="line"/>
      <point x="222" y="436" type="line"/>
      <point x="637" y="814" type="line" smooth="yes"/>
      <point x="722" y="892"/>
      <point x="822" y="1007"/>
      <point x="822" y="1129" type="curve" smooth="yes"/>
      <point x="822" y="1274"/>
      <point x="725" y="1345"/>
      <point x="587" y="1345" type="curve" smooth="yes"/>
      <point x="441" y="1345"/>
      <point x="317" y="1277"/>
      <point x="317" y="1116" type="curve" smooth="yes"/>
      <point x="317" y="1028"/>
      <point x="383" y="965"/>
      <point x="383" y="886" type="curve" smooth="yes"/>
      <point x="383" y="832"/>
      <point x="316" y="734"/>
      <point x="273" y="703" type="curve" smooth="yes"/>
      <point x="220" y="664"/>
      <point x="166" y="626"/>
      <point x="113" y="587" type="curve" smooth="yes"/>
      <point x="72" y="557"/>
      <point x="36" y="489"/>
    </contour>
  </outline>
</glyph>
<glyph name="five" format="2">
  <advance width="1229"/>
  <unicode hex="0035"/>
  <outline>
    <contour>
      <point x="92" y="253" type="curve" smooth="yes"/>
      <point x="92" y="12"/>
      <point x="380" y="-40"/>
      <point x="568" y="-40" type="curve" smooth="yes"/>
      <point x="841" y="-40"/>
      <point x="1134" y="61"/>
      <point x="1134" y="382" type="curve" smooth="yes"/>
      <point x="1134" y="656"/>
      <point x="907" y="781"/>
      <point x="659" y="781" type="curve" smooth="yes"/>
      <point x="525" y="781"/>
      <point x="409" y="763"/>
      <point x="295" y="688" type="curve"/>
      <point x="372" y="657" type="line"/>
      <point x="372" y="1119" type="line"/>
      <point x="242" y="907" type="line"/>
      <point x="382" y="860"/>
      <point x="532" y="830"/>
      <point x="680" y="830" type="curve" smooth="yes"/>
      <point x="929" y="830"/>
      <point x="1143" y="927"/>
      <point x="1143" y="1207" type="curve" smooth="yes"/>
      <point x="1143" y="1249"/>
      <point x="1128" y="1295"/>
      <point x="1078" y="1295" type="curve" smooth="yes"/>
      <point x="1054" y="1295"/>
      <point x="1039" y="1282"/>
      <point x="1018" y="1274" type="curve" smooth="yes"/>
      <point x="936" y="1243"/>
      <point x="850" y="1239"/>
      <point x="763" y="1239" type="curve" smooth="yes"/>
      <point x="652" y="1239"/>
      <point x="540" y="1249"/>
      <point x="431" y="1269" type="curve" smooth="yes"/>
      <point x="395" y="1276"/>
      <point x="358" y="1282"/>
      <point x="321" y="1282" type="curve" smooth="yes"/>
      <point x="219" y="1282"/>
      <point x="180" y="1218"/>
      <point x="180" y="1123" type="curve" smooth="yes"/>
      <point x="180" y="618" type="line" smooth="yes"/>
      <point x="180" y="560"/>
      <point x="211" y="521"/>
      <point x="271" y="521" type="curve" smooth="yes"/>
      <point x="311" y="521"/>
      <point x="352" y="540"/>
      <point x="388" y="556" type="curve"/>
      <point x="516" y="556" type="line" smooth="yes"/>
      <point x="675" y="556"/>
      <point x="711" y="436"/>
      <point x="711" y="300" type="curve" smooth="yes"/>
      <point x="711" y="217"/>
      <point x="704" y="114"/>
      <point x="596" y="114" type="curve" smooth="yes"/>
      <point x="549" y="114"/>
      <point x="498" y="138"/>
      <point x="498" y="192" type="curve" smooth="yes"/>
      <point x="498" y="287" type="line" smooth="yes"/>
      <point x="498" y="407"/>
      <point x="429" y="488"/>
      <point x="306" y="488" type="curve" smooth="yes"/>
      <point x="175" y="488"/>
      <point x="92" y="377"/>
    </contour>
  </outline>
</glyph>
<glyph name="seven" format="2">
  <advance width="1229"/>
  <unicode hex="0037"/>
  <outline>
    <contour>
      <point x="908" y="857" type="line"/>
      <point x="691" y="773" type="line" smooth="yes"/>
      <point x="662" y="762"/>
      <point x="625" y="727"/>
      <point x="599" y="706" type="curve" smooth="yes"/>
      <point x="467" y="601"/>
      <point x="299" y="449"/>
      <point x="299" y="266" type="curve" smooth="yes"/>
      <point x="299" y="76"/>
      <point x="409" y="-41"/>
      <point x="601" y="-41" type="curve" smooth="yes"/>
      <point x="758" y="-41"/>
      <point x="874" y="64"/>
      <point x="874" y="224" type="curve" smooth="yes"/>
      <point x="874" y="367"/>
      <point x="753" y="461"/>
      <point x="753" y="585" type="curve" smooth="yes"/>
      <point x="753" y="687"/>
      <point x="839" y="747"/>
      <point x="913" y="801" type="curve" smooth="yes"/>
      <point x="966" y="840"/>
      <point x="1018" y="874"/>
      <point x="1081" y="896" type="curve" smooth="yes"/>
      <point x="1160" y="924" type="line"/>
      <point x="1210" y="977"/>
      <point x="1255" y="1043"/>
      <point x="1255" y="1119" type="curve" smooth="yes"/>
      <point x="1255" y="1215"/>
      <point x="1193" y="1265"/>
      <point x="1100" y="1265" type="curve" smooth="yes"/>
      <point x="264" y="1265" type="line" smooth="yes"/>
      <point x="185" y="1265"/>
      <point x="139" y="1210"/>
      <point x="134" y="1134" type="curve" smooth="yes"/>
      <point x="107" y="721" type="line"/>
      <point x="107" y="713" type="line" smooth="yes"/>
      <point x="107" y="652"/>
      <point x="151" y="615"/>
      <point x="210" y="615" type="curve" smooth="yes"/>
      <point x="287" y="615"/>
      <point x="310" y="675"/>
      <point x="328" y="739" type="curve" smooth="yes"/>
      <point x="350" y="816"/>
      <point x="357" y="846"/>
      <point x="447" y="846" type="curve" smooth="yes"/>
      <point x="979" y="846" type="line"/>
    </contour>
  </outline>
</glyph>
<glyph name="eight" format="2">
  <advance width="1229"/>
  <unicode hex="0038"/>
  <outline>
    <contour>
      <point x="570" y="-39" type="curve" smooth="yes"/>
      <point x="820" y="-39"/>
      <point x="1141" y="56"/>
      <point x="1141" y="359" type="curve" smooth="yes"/>
      <point x="1141" y="769"/>
      <point x="538" y="633"/>
      <point x="538" y="1022" type="curve" smooth="yes"/>
      <point x="538" y="1080"/>
      <point x="548" y="1145"/>
      <point x="621" y="1145" type="curve" smooth="yes"/>
      <point x="708" y="1145"/>
      <point x="711" y="1044"/>
      <point x="711" y="981" type="curve" smooth="yes"/>
      <point x="711" y="887"/>
      <point x="706" y="783"/>
      <point x="660" y="698" type="curve"/>
      <point x="692" y="651" type="line"/>
      <point x="710" y="650"/>
      <point x="728" y="649"/>
      <point x="746" y="649" type="curve" smooth="yes"/>
      <point x="940" y="649"/>
      <point x="1132" y="725"/>
      <point x="1132" y="949" type="curve" smooth="yes"/>
      <point x="1132" y="1201"/>
      <point x="896" y="1306"/>
      <point x="676" y="1306" type="curve" smooth="yes"/>
      <point x="400" y="1306"/>
      <point x="112" y="1183"/>
      <point x="112" y="866" type="curve" smooth="yes"/>
      <point x="112" y="632"/>
      <point x="277" y="560"/>
      <point x="467" y="488" type="curve" smooth="yes"/>
      <point x="599" y="438"/>
      <point x="688" y="399"/>
      <point x="688" y="239" type="curve" smooth="yes"/>
      <point x="688" y="191"/>
      <point x="685" y="109"/>
      <point x="618" y="109" type="curve" smooth="yes"/>
      <point x="537" y="109"/>
      <point x="537" y="255"/>
      <point x="537" y="310" type="curve" smooth="yes"/>
      <point x="537" y="387"/>
      <point x="540" y="464"/>
      <point x="562" y="538" type="curve"/>
      <point x="544" y="538"/>
      <point x="527" y="539"/>
      <point x="509" y="539" type="curve" smooth="yes"/>
      <point x="344" y="539"/>
      <point x="104" y="497"/>
      <point x="104" y="286" type="curve" smooth="yes"/>
      <point x="104" y="23"/>
      <point x="355" y="-39"/>
    </contour>
  </outline>
</glyph>
<glyph name="less" format="2">
  <advance width="1024"/>
  <unicode hex="003C"/>
  <outline>
    <contour>
      <point x="410" y="702" type="line"/>
      <point x="794" y="414" type="line" smooth="yes"/>
      <point x="849" y="373"/>
      <point x="895" y="335"/>
      <point x="895" y="260" type="curve" smooth="yes"/>
      <point x="895" y="188"/>
      <point x="863" y="136"/>
      <point x="785" y="136" type="curve" smooth="yes"/>
      <point x="726" y="136"/>
      <point x="618" y="190"/>
      <point x="570" y="225" type="curve" smooth="yes"/>
      <point x="218" y="484" type="line" smooth="yes"/>
      <point x="206" y="493"/>
      <point x="194" y="501"/>
      <point x="182" y="509" type="curve"/>
      <point x="133" y="544"/>
      <point x="105" y="617"/>
      <point x="105" y="676" type="curve" smooth="yes"/>
      <point x="105" y="736"/>
      <point x="132" y="808"/>
      <point x="182" y="844" type="curve"/>
      <point x="194" y="852"/>
      <point x="206" y="860"/>
      <point x="218" y="869" type="curve" smooth="yes"/>
      <point x="570" y="1128" type="line" smooth="yes"/>
      <point x="618" y="1164"/>
      <point x="728" y="1217"/>
      <point x="785" y="1217" type="curve" smooth="yes"/>
      <point x="862" y="1217"/>
      <point x="895" y="1165"/>
      <point x="895" y="1093" type="curve" smooth="yes"/>
      <point x="895" y="1018"/>
      <point x="849" y="980"/>
      <point x="794" y="939" type="curve" smooth="yes"/>
      <point x="410" y="651" type="line"/>
    </contour>
  </outline>
</glyph>
<glyph name="greater" format="2">
  <advance width="1024"/>
  <unicode hex="003E"/>
  <outline>
    <contour>
      <point x="616" y="651" type="line"/>
      <point x="232" y="939" type="line" smooth="yes"/>
      <point x="177" y="980"/>
      <point x="129" y="1018"/>
      <point x="129" y="1093" type="curve" smooth="yes"/>
      <point x="129" y="1165"/>
      <point x="163" y="1217"/>
      <point x="240" y="1217" type="curve" smooth="yes"/>
      <point x="299" y="1217"/>
      <point x="407" y="1163"/>
      <point x="455" y="1128" type="curve" smooth="yes"/>
      <point x="824" y="857" type="line" smooth="yes"/>
      <point x="887" y="811"/>
      <point x="919" y="755"/>
      <point x="919" y="676" type="curve" smooth="yes"/>
      <point x="919" y="584"/>
      <point x="878" y="536"/>
      <point x="807" y="484" type="curve" smooth="yes"/>
      <point x="455" y="225" type="line" smooth="yes"/>
      <point x="407" y="189"/>
      <point x="297" y="136"/>
      <point x="240" y="136" type="curve" smooth="yes"/>
      <point x="163" y="136"/>
      <point x="129" y="188"/>
      <point x="129" y="260" type="curve" smooth="yes"/>
      <point x="129" y="335"/>
      <point x="177" y="373"/>
      <point x="232" y="414" type="curve" smooth="yes"/>
      <point x="616" y="702" type="line"/>
    </contour>
  </outline>
</glyph>
<glyph name="question" format="2">
  <advance width="987"/>
  <unicode hex="003F"/>
  <outline>
    <contour>
      <point x="275" y="704" type="curve" smooth="yes"/>
      <point x="275" y="772"/>
      <point x="319" y="803"/>
      <point x="370" y="837" type="curve" smooth="yes"/>
      <point x="491" y="919"/>
      <point x="488" y="991"/>
      <point x="488" y="1126" type="curve" smooth="yes"/>
      <point x="488" y="1150"/>
      <point x="488" y="1274"/>
      <point x="455" y="1274" type="curve" smooth="yes"/>
      <point x="430" y="1274"/>
      <point x="434" y="1157"/>
      <point x="434" y="1136" type="curve" smooth="yes"/>
      <point x="434" y="980"/>
      <point x="375" y="864"/>
      <point x="203" y="864" type="curve" smooth="yes"/>
      <point x="67" y="864"/>
      <point x="-10" y="951"/>
      <point x="-10" y="1084" type="curve" smooth="yes"/>
      <point x="-10" y="1339"/>
      <point x="253" y="1463"/>
      <point x="476" y="1463" type="curve" smooth="yes"/>
      <point x="744" y="1463"/>
      <point x="988" y="1396"/>
      <point x="988" y="1079" type="curve" smooth="yes"/>
      <point x="988" y="870"/>
      <point x="872" y="749"/>
      <point x="667" y="720" type="curve"/>
      <point x="663" y="719"/>
      <point x="661" y="720"/>
      <point x="657" y="718" type="curve"/>
      <point x="609" y="718"/>
      <point x="607" y="655"/>
      <point x="576" y="639" type="curve"/>
      <point x="547" y="572"/>
      <point x="515" y="521"/>
      <point x="434" y="521" type="curve" smooth="yes"/>
      <point x="361" y="521"/>
      <point x="343" y="557"/>
      <point x="309" y="613" type="curve" smooth="yes"/>
      <point x="290" y="644"/>
      <point x="275" y="664"/>
    </contour>
    <contour>
      <point x="430" y="-31" type="curve" smooth="yes"/>
      <point x="292" y="-31"/>
      <point x="198" y="96"/>
      <point x="198" y="226" type="curve" smooth="yes" name=".hr01"/>
      <point x="198" y="357"/>
      <point x="292" y="482"/>
      <point x="430" y="482" type="curve" smooth="yes"/>
      <point x="569" y="482"/>
      <point x="665" y="359"/>
      <point x="665" y="226" type="curve" smooth="yes"/>
      <point x="665" y="94"/>
      <point x="568" y="-31"/>
    </contour>
  </outline>
</glyph>
<glyph name="at" format="2">
  <advance width="1636"/>
  <unicode hex="0040"/>
  <outline>
    <contour>
      <point x="909" y="615" type="line"/>
      <point x="874" y="640"/>
      <point x="847" y="644"/>
      <point x="805" y="644" type="curve" smooth="yes"/>
      <point x="618" y="644"/>
      <point x="446" y="552"/>
      <point x="446" y="345" type="curve" smooth="yes"/>
      <point x="446" y="202"/>
      <point x="531" y="98"/>
      <point x="679" y="98" type="curve" smooth="yes"/>
      <point x="775" y="98"/>
      <point x="872" y="153"/>
      <point x="904" y="247" type="curve"/>
      <point x="881" y="353" type="line"/>
      <point x="884" y="347"/>
      <point x="886" y="341"/>
      <point x="886" y="334" type="curve" smooth="yes"/>
      <point x="886" y="323"/>
      <point x="879" y="319"/>
      <point x="869" y="319" type="curve" smooth="yes"/>
      <point x="821" y="319"/>
      <point x="810" y="393"/>
      <point x="810" y="429" type="curve" smooth="yes"/>
      <point x="810" y="450"/>
      <point x="823" y="524"/>
      <point x="851" y="524" type="curve" smooth="yes"/>
      <point x="861" y="524"/>
      <point x="870" y="513"/>
      <point x="874" y="505" type="curve"/>
    </contour>
    <contour>
      <point x="1257" y="315" type="curve" smooth="yes"/>
      <point x="1211" y="315"/>
      <point x="1209" y="364"/>
      <point x="1209" y="396" type="curve" smooth="yes"/>
      <point x="1209" y="736" type="line" smooth="yes"/>
      <point x="1209" y="903"/>
      <point x="1066" y="981"/>
      <point x="915" y="981" type="curve" smooth="yes"/>
      <point x="781" y="981"/>
      <point x="470" y="969"/>
      <point x="470" y="779" type="curve" smooth="yes"/>
      <point x="470" y="703"/>
      <point x="566" y="683"/>
      <point x="625" y="683" type="curve" smooth="yes"/>
      <point x="675" y="683"/>
      <point x="810" y="693"/>
      <point x="810" y="764" type="curve" smooth="yes"/>
      <point x="810" y="776" type="line" smooth="yes"/>
      <point x="810" y="789"/>
      <point x="810" y="819"/>
      <point x="830" y="819" type="curve" smooth="yes"/>
      <point x="855" y="819"/>
      <point x="853" y="754"/>
      <point x="853" y="738" type="curve" smooth="yes"/>
      <point x="853" y="303" type="line"/>
      <point x="882" y="293" type="line"/>
      <point x="886" y="146"/>
      <point x="1026" y="98"/>
      <point x="1151" y="98" type="curve" smooth="yes"/>
      <point x="1419" y="98"/>
      <point x="1562" y="326"/>
      <point x="1562" y="573" type="curve" smooth="yes"/>
      <point x="1562" y="998"/>
      <point x="1274" y="1290"/>
      <point x="848" y="1290" type="curve" smooth="yes"/>
      <point x="422" y="1290"/>
      <point x="73" y="954"/>
      <point x="73" y="525" type="curve" smooth="yes"/>
      <point x="73" y="77"/>
      <point x="372" y="-231"/>
      <point x="822" y="-231" type="curve" smooth="yes"/>
      <point x="993" y="-231"/>
      <point x="1225" y="-203"/>
      <point x="1374" y="-115" type="curve" smooth="yes"/>
      <point x="1416" y="-90"/>
      <point x="1489" y="-38"/>
      <point x="1489" y="17" type="curve" smooth="yes"/>
      <point x="1489" y="50"/>
      <point x="1453" y="72"/>
      <point x="1424" y="72" type="curve" smooth="yes"/>
      <point x="1388" y="72"/>
      <point x="1358" y="50"/>
      <point x="1326" y="35" type="curve" smooth="yes"/>
      <point x="1176" y="-34"/>
      <point x="987" y="-38"/>
      <point x="824" y="-38" type="curve" smooth="yes"/>
      <point x="488" y="-38"/>
      <point x="258" y="190"/>
      <point x="258" y="527" type="curve" smooth="yes"/>
      <point x="258" y="870"/>
      <point x="485" y="1117"/>
      <point x="833" y="1117" type="curve" smooth="yes"/>
      <point x="1148" y="1117"/>
      <point x="1372" y="902"/>
      <point x="1372" y="585" type="curve" smooth="yes"/>
      <point x="1372" y="512"/>
      <point x="1361" y="315"/>
    </contour>
  </outline>
</glyph>
<glyph name="A" format="2">
  <advance width="1693"/>
  <unicode hex="0041"/>
  <anchor x="846" y="0" name="bottom"/>
  <anchor x="1517" y="10" name="ogonek"/>
  <anchor x="846" y="1384" name="top"/>
  <outline>
    <contour>
      <point x="398" y="643" type="line"/>
      <point x="399" y="420" type="line"/>
      <point x="1038" y="420" type="line"/>
      <point x="1038" y="643" type="line"/>
    </contour>
    <contour>
      <point x="594" y="109" type="curve" smooth="yes"/>
      <point x="594" y="224"/>
      <point x="435" y="223"/>
      <point x="435" y="298" type="curve" smooth="yes"/>
      <point x="435" y="331"/>
      <point x="459" y="374"/>
      <point x="469" y="406" type="curve" smooth="yes"/>
      <point x="725" y="1186" type="line"/>
      <point x="696" y="1191" type="line"/>
      <point x="974" y="318" type="line" smooth="yes"/>
      <point x="980" y="300"/>
      <point x="986" y="282"/>
      <point x="986" y="263" type="curve" smooth="yes"/>
      <point x="986" y="217"/>
      <point x="869" y="218"/>
      <point x="869" y="109" type="curve" smooth="yes"/>
      <point x="869" y="32"/>
      <point x="919" y="0"/>
      <point x="991" y="0" type="curve" smooth="yes"/>
      <point x="1502" y="0" type="line" smooth="yes"/>
      <point x="1574" y="0"/>
      <point x="1623" y="32"/>
      <point x="1623" y="109" type="curve" smooth="yes"/>
      <point x="1623" y="167"/>
      <point x="1606" y="186"/>
      <point x="1561" y="219" type="curve" smooth="yes"/>
      <point x="1476" y="280"/>
      <point x="1476" y="349"/>
      <point x="1445" y="440" type="curve" smooth="yes"/>
      <point x="1238" y="1045" type="line" smooth="yes"/>
      <point x="1231" y="1066"/>
      <point x="1224" y="1088"/>
      <point x="1224" y="1111" type="curve" smooth="yes"/>
      <point x="1224" y="1177"/>
      <point x="1316" y="1164"/>
      <point x="1316" y="1275" type="curve" smooth="yes"/>
      <point x="1316" y="1352"/>
      <point x="1267" y="1384"/>
      <point x="1195" y="1384" type="curve" smooth="yes"/>
      <point x="475" y="1384" type="line" smooth="yes"/>
      <point x="403" y="1384"/>
      <point x="354" y="1351"/>
      <point x="354" y="1275" type="curve" smooth="yes"/>
      <point x="354" y="1159"/>
      <point x="456" y="1172"/>
      <point x="456" y="1110" type="curve" smooth="yes"/>
      <point x="456" y="1085"/>
      <point x="447" y="1062"/>
      <point x="439" y="1039" type="curve" smooth="yes"/>
      <point x="212" y="358" type="line" smooth="yes"/>
      <point x="197" y="312"/>
      <point x="181" y="267"/>
      <point x="144" y="233" type="curve" smooth="yes"/>
      <point x="102" y="195"/>
      <point x="62" y="172"/>
      <point x="62" y="109" type="curve" smooth="yes"/>
      <point x="62" y="32"/>
      <point x="112" y="0"/>
      <point x="184" y="0" type="curve" smooth="yes"/>
      <point x="473" y="0" type="line" smooth="yes"/>
      <point x="545" y="0"/>
      <point x="594" y="33"/>
    </contour>
  </outline>
</glyph>
<glyph name="B" format="2">
  <advance width="1469"/>
  <unicode hex="0042"/>
  <anchor x="738" y="0" name="bottom"/>
  <anchor x="738" y="692" name="center"/>
  <anchor x="738" y="1384" name="top"/>
  <outline>
    <contour>
      <point x="1456" y="332" type="curve" smooth="yes"/>
      <point x="1456" y="597"/>
      <point x="1142" y="680"/>
      <point x="928" y="680" type="curve"/>
      <point x="903" y="630" type="line"/>
      <point x="1114" y="630"/>
      <point x="1381" y="713" name=".hr01"/>
      <point x="1381" y="968" type="curve" smooth="yes"/>
      <point x="1381" y="1283"/>
      <point x="1052" y="1384"/>
      <point x="791" y="1384" type="curve" smooth="yes"/>
      <point x="180" y="1384" type="line" smooth="yes"/>
      <point x="108" y="1384"/>
      <point x="61" y="1351"/>
      <point x="61" y="1275" type="curve" smooth="yes"/>
      <point x="61" y="1138"/>
      <point x="197" y="1174"/>
      <point x="197" y="1057" type="curve" smooth="yes"/>
      <point x="197" y="327" type="line" smooth="yes"/>
      <point x="197" y="214"/>
      <point x="61" y="244"/>
      <point x="61" y="109" type="curve" smooth="yes"/>
      <point x="61" y="33"/>
      <point x="108" y="0"/>
      <point x="180" y="0" type="curve" smooth="yes"/>
      <point x="964" y="0" type="line" smooth="yes"/>
      <point x="1184" y="0"/>
      <point x="1456" y="60" name=".hr02"/>
    </contour>
    <contour>
      <point x="974" y="353" type="curve" smooth="yes"/>
      <point x="974" y="264"/>
      <point x="939" y="200"/>
      <point x="842" y="200" type="curve" smooth="yes"/>
      <point x="736" y="200"/>
      <point x="689" y="266"/>
      <point x="689" y="367" type="curve" smooth="yes"/>
      <point x="689" y="1183" type="line"/>
      <point x="695" y="1183" type="line" smooth="yes"/>
      <point x="850" y="1183"/>
      <point x="923" y="1088"/>
      <point x="923" y="939" type="curve" smooth="yes" name=".hr03"/>
      <point x="923" y="802"/>
      <point x="876" y="706"/>
      <point x="725" y="706" type="curve" smooth="yes"/>
      <point x="513" y="706" type="line"/>
      <point x="513" y="538" type="line"/>
      <point x="798" y="538" type="line" smooth="yes"/>
      <point x="908" y="538"/>
      <point x="974" y="460"/>
    </contour>
  </outline>
</glyph>
<glyph name="C" format="2">
  <advance width="1474"/>
  <unicode hex="0043"/>
  <anchor x="739" y="0" name="bottom"/>
  <anchor x="739" y="1384" name="top"/>
  <outline>
    <contour>
      <point x="1406" y="380" type="curve" smooth="yes"/>
      <point x="1406" y="424"/>
      <point x="1384" y="466"/>
      <point x="1335" y="466" type="curve" smooth="yes"/>
      <point x="1267" y="466"/>
      <point x="1143" y="263"/>
      <point x="942" y="263" type="curve" smooth="yes"/>
      <point x="660" y="263"/>
      <point x="563" y="508"/>
      <point x="563" y="752" type="curve" smooth="yes"/>
      <point x="563" y="934"/>
      <point x="604" y="1220"/>
      <point x="841" y="1220" type="curve" smooth="yes"/>
      <point x="1144" y="1220"/>
      <point x="1110" y="883"/>
      <point x="1274" y="883" type="curve" smooth="yes"/>
      <point x="1330" y="883"/>
      <point x="1392" y="914"/>
      <point x="1392" y="977" type="curve" smooth="yes"/>
      <point x="1392" y="987"/>
      <point x="1391" y="996"/>
      <point x="1388" y="1006" type="curve" smooth="yes"/>
      <point x="1298" y="1318" type="line" smooth="yes"/>
      <point x="1283" y="1371"/>
      <point x="1272" y="1422"/>
      <point x="1204" y="1422" type="curve" smooth="yes"/>
      <point x="1155" y="1422"/>
      <point x="1123" y="1369"/>
      <point x="1068" y="1369" type="curve" smooth="yes"/>
      <point x="1029" y="1369"/>
      <point x="991" y="1388"/>
      <point x="954" y="1400" type="curve" smooth="yes"/>
      <point x="894" y="1419"/>
      <point x="831" y="1425"/>
      <point x="768" y="1425" type="curve" smooth="yes"/>
      <point x="366" y="1425"/>
      <point x="70" y="1087"/>
      <point x="70" y="695" type="curve" smooth="yes"/>
      <point x="70" y="258"/>
      <point x="357" y="-40"/>
      <point x="797" y="-40" type="curve" smooth="yes"/>
      <point x="1005" y="-40"/>
      <point x="1232" y="38"/>
      <point x="1351" y="218" type="curve" smooth="yes"/>
      <point x="1383" y="266"/>
      <point x="1406" y="321"/>
    </contour>
  </outline>
</glyph>
<glyph name="G" format="2">
  <advance width="1626"/>
  <unicode hex="0047"/>
  <anchor x="816" y="0" name="bottom"/>
  <anchor x="816" y="1384" name="top"/>
  <outline>
    <contour>
      <point x="1567" y="624" type="curve" smooth="yes"/>
      <point x="1567" y="699"/>
      <point x="1515" y="726"/>
      <point x="1447" y="726" type="curve" smooth="yes"/>
      <point x="952" y="726" type="line" smooth="yes"/>
      <point x="884" y="726"/>
      <point x="831" y="698"/>
      <point x="831" y="623" type="curve" smooth="yes"/>
      <point x="831" y="550"/>
      <point x="907" y="524"/>
      <point x="960" y="494" type="curve" smooth="yes"/>
      <point x="987" y="478"/>
      <point x="1000" y="473"/>
      <point x="1000" y="438" type="curve" smooth="yes"/>
      <point x="1000" y="284" type="line" smooth="yes"/>
      <point x="1000" y="230"/>
      <point x="970" y="219"/>
      <point x="922" y="219" type="curve" smooth="yes"/>
      <point x="751" y="219"/>
      <point x="638" y="371"/>
      <point x="594" y="521" type="curve" smooth="yes"/>
      <point x="572" y="596"/>
      <point x="563" y="676"/>
      <point x="563" y="754" type="curve" smooth="yes"/>
      <point x="563" y="964"/>
      <point x="634" y="1220"/>
      <point x="889" y="1220" type="curve" smooth="yes"/>
      <point x="1089" y="1220"/>
      <point x="1160" y="1114"/>
      <point x="1260" y="961" type="curve" smooth="yes"/>
      <point x="1289" y="916"/>
      <point x="1311" y="883"/>
      <point x="1370" y="883" type="curve" smooth="yes"/>
      <point x="1427" y="883"/>
      <point x="1489" y="914"/>
      <point x="1489" y="978" type="curve" smooth="yes"/>
      <point x="1489" y="1040"/>
      <point x="1416" y="1248"/>
      <point x="1394" y="1318" type="curve" smooth="yes"/>
      <point x="1378" y="1371"/>
      <point x="1368" y="1422"/>
      <point x="1300" y="1422" type="curve" smooth="yes"/>
      <point x="1248" y="1422"/>
      <point x="1214" y="1369"/>
      <point x="1162" y="1369" type="curve" smooth="yes"/>
      <point x="1122" y="1369"/>
      <point x="1086" y="1381"/>
      <point x="1048" y="1393" type="curve" smooth="yes"/>
      <point x="973" y="1416"/>
      <point x="895" y="1425"/>
      <point x="817" y="1425" type="curve" smooth="yes"/>
      <point x="406" y="1425"/>
      <point x="70" y="1109"/>
      <point x="70" y="693" type="curve" smooth="yes"/>
      <point x="70" y="254"/>
      <point x="323" y="-39"/>
      <point x="773" y="-39" type="curve" smooth="yes"/>
      <point x="859" y="-39"/>
      <point x="936" y="-20"/>
      <point x="1014" y="16" type="curve" smooth="yes"/>
      <point x="1049" y="32"/>
      <point x="1099" y="58"/>
      <point x="1137" y="58" type="curve" smooth="yes"/>
      <point x="1198" y="58"/>
      <point x="1243" y="-40"/>
      <point x="1325" y="-40" type="curve" smooth="yes"/>
      <point x="1400" y="-40"/>
      <point x="1435" y="-2"/>
      <point x="1435" y="72" type="curve" smooth="yes"/>
      <point x="1435" y="438" type="line" smooth="yes"/>
      <point x="1435" y="530"/>
      <point x="1567" y="506"/>
    </contour>
  </outline>
</glyph>
<glyph name="H" format="2">
  <advance width="1642"/>
  <unicode hex="0048"/>
  <anchor x="822" y="0" name="bottom"/>
  <anchor x="822" y="692" name="center"/>
  <anchor x="822" y="1384" name="top"/>
  <anchor x="-8" y="1384" name="topleft"/>
  <outline>
    <contour>
      <point x="379" y="770" type="line"/>
      <point x="379" y="548" type="line"/>
      <point x="1179" y="548" type="line"/>
      <point x="1179" y="770" type="line"/>
    </contour>
    <contour>
      <point x="666" y="1057" type="line" smooth="yes"/>
      <point x="666" y="1173"/>
      <point x="800" y="1140"/>
      <point x="800" y="1275" type="curve" smooth="yes"/>
      <point x="800" y="1351"/>
      <point x="752" y="1384"/>
      <point x="680" y="1384" type="curve" smooth="yes"/>
      <point x="160" y="1384" type="line" smooth="yes"/>
      <point x="88" y="1384"/>
      <point x="40" y="1351"/>
      <point x="40" y="1275" type="curve" smooth="yes"/>
      <point x="40" y="1140"/>
      <point x="174" y="1173"/>
      <point x="174" y="1057" type="curve" smooth="yes"/>
      <point x="174" y="327" type="line" smooth="yes"/>
      <point x="174" y="211"/>
      <point x="40" y="244"/>
      <point x="40" y="109" type="curve" smooth="yes"/>
      <point x="40" y="33"/>
      <point x="88" y="0"/>
      <point x="160" y="0" type="curve" smooth="yes"/>
      <point x="680" y="0" type="line" smooth="yes"/>
      <point x="752" y="0"/>
      <point x="800" y="33"/>
      <point x="800" y="109" type="curve" smooth="yes"/>
      <point x="800" y="246"/>
      <point x="666" y="213"/>
      <point x="666" y="327" type="curve" smooth="yes"/>
    </contour>
    <contour>
      <point x="1469" y="1057" type="line" smooth="yes"/>
      <point x="1469" y="1175"/>
      <point x="1603" y="1137"/>
      <point x="1603" y="1275" type="curve" smooth="yes"/>
      <point x="1603" y="1351"/>
      <point x="1555" y="1384"/>
      <point x="1483" y="1384" type="curve" smooth="yes"/>
      <point x="963" y="1384" type="line" smooth="yes"/>
      <point x="891" y="1384"/>
      <point x="844" y="1351"/>
      <point x="844" y="1275" type="curve" smooth="yes"/>
      <point x="844" y="1142"/>
      <point x="977" y="1173"/>
      <point x="977" y="1057" type="curve" smooth="yes"/>
      <point x="977" y="327" type="line" smooth="yes"/>
      <point x="977" y="208"/>
      <point x="844" y="248"/>
      <point x="844" y="109" type="curve" smooth="yes"/>
      <point x="844" y="33"/>
      <point x="891" y="0"/>
      <point x="963" y="0" type="curve" smooth="yes"/>
      <point x="1483" y="0" type="line" smooth="yes"/>
      <point x="1555" y="0"/>
      <point x="1603" y="33"/>
      <point x="1603" y="109" type="curve" smooth="yes"/>
      <point x="1603" y="248"/>
      <point x="1469" y="208"/>
      <point x="1469" y="327" type="curve" smooth="yes"/>
    </contour>
  </outline>
</glyph>
<glyph name="I" format="2">
  <advance width="847"/>
  <unicode hex="0049"/>
  <anchor x="424" y="0" name="bottom"/>
  <anchor x="783" y="10" name="ogonek"/>
  <anchor x="424" y="1384" name="top"/>
  <anchor x="-6" y="1384" name="topleft"/>
  <outline>
    <contour>
      <point x="670" y="1057" type="line" smooth="yes"/>
      <point x="670" y="1173"/>
      <point x="804" y="1136"/>
      <point x="804" y="1275" type="curve" smooth="yes"/>
      <point x="804" y="1351"/>
      <point x="756" y="1384"/>
      <point x="684" y="1384" type="curve" smooth="yes"/>
      <point x="164" y="1384" type="line" smooth="yes"/>
      <point x="92" y="1384"/>
      <point x="44" y="1351"/>
      <point x="44" y="1275" type="curve" smooth="yes"/>
      <point x="44" y="1136"/>
      <point x="178" y="1173"/>
      <point x="178" y="1057" type="curve" smooth="yes"/>
      <point x="178" y="327" type="line" smooth="yes"/>
      <point x="178" y="211"/>
      <point x="44" y="248"/>
      <point x="44" y="109" type="curve" smooth="yes"/>
      <point x="44" y="33"/>
      <point x="92" y="0"/>
      <point x="164" y="0" type="curve" smooth="yes"/>
      <point x="684" y="0" type="line" smooth="yes"/>
      <point x="756" y="0"/>
      <point x="804" y="33"/>
      <point x="804" y="109" type="curve" smooth="yes"/>
      <point x="804" y="250"/>
      <point x="670" y="212"/>
      <point x="670" y="327" type="curve" smooth="yes"/>
    </contour>
  </outline>
</glyph>
<glyph name="J" format="2">
  <advance width="1284"/>
  <unicode hex="004A"/>
  <anchor x="641" y="0" name="bottom"/>
  <anchor x="641" y="1384" name="top"/>
  <outline>
    <contour>
      <point x="1125" y="281" type="curve" smooth="yes"/>
      <point x="1125" y="360"/>
      <point x="1088" y="434"/>
      <point x="1061" y="507" type="curve" smooth="yes"/>
      <point x="1040" y="564"/>
      <point x="1034" y="625" name=".hr01"/>
      <point x="1034" y="685" type="curve" smooth="yes"/>
      <point x="1034" y="1057" type="line" smooth="yes"/>
      <point x="1034" y="1176"/>
      <point x="1191" y="1130"/>
      <point x="1191" y="1275" type="curve" smooth="yes"/>
      <point x="1191" y="1351"/>
      <point x="1141" y="1384"/>
      <point x="1070" y="1384" type="curve" smooth="yes"/>
      <point x="465" y="1384" type="line" smooth="yes"/>
      <point x="393" y="1384"/>
      <point x="343" y="1352"/>
      <point x="343" y="1275" type="curve" smooth="yes"/>
      <point x="343" y="1104"/>
      <point x="542" y="1188"/>
      <point x="542" y="1057" type="curve" smooth="yes"/>
      <point x="542" y="636" type="line" smooth="yes"/>
      <point x="542" y="521"/>
      <point x="577" y="434"/>
      <point x="631" y="335" type="curve" smooth="yes"/>
      <point x="652" y="296"/>
      <point x="676" y="254" name=".hr02"/>
      <point x="676" y="208" type="curve" smooth="yes"/>
      <point x="676" y="151"/>
      <point x="638" y="124"/>
      <point x="584" y="124" type="curve" smooth="yes"/>
      <point x="498" y="124"/>
      <point x="485" y="193"/>
      <point x="485" y="263" type="curve" smooth="yes"/>
      <point x="485" y="288"/>
      <point x="487" y="313"/>
      <point x="487" y="338" type="curve" smooth="yes"/>
      <point x="487" y="469"/>
      <point x="413" y="567"/>
      <point x="276" y="567" type="curve" smooth="yes"/>
      <point x="138" y="567"/>
      <point x="59" y="461"/>
      <point x="59" y="330" type="curve" smooth="yes"/>
      <point x="59" y="44"/>
      <point x="338" y="-36"/>
      <point x="575" y="-36" type="curve" smooth="yes"/>
      <point x="775" y="-36"/>
      <point x="1125" y="19"/>
    </contour>
  </outline>
</glyph>
<glyph name="L" format="2">
  <advance width="1296"/>
  <unicode hex="004C"/>
  <anchor x="651" y="0" name="bottom"/>
  <anchor x="651" y="692" name="center"/>
  <anchor x="651" y="1384" name="top"/>
  <anchor x="1286" y="1384" name="topright"/>
  <outline>
    <contour>
      <point x="833" y="1275" type="curve" smooth="yes"/>
      <point x="833" y="1351"/>
      <point x="785" y="1384"/>
      <point x="713" y="1384" type="curve" smooth="yes"/>
      <point x="187" y="1384" type="line" smooth="yes"/>
      <point x="115" y="1384"/>
      <point x="67" y="1351"/>
      <point x="67" y="1275" type="curve" smooth="yes"/>
      <point x="67" y="1136"/>
      <point x="205" y="1173"/>
      <point x="205" y="1057" type="curve" smooth="yes"/>
      <point x="205" y="327" type="line" smooth="yes"/>
      <point x="205" y="211"/>
      <point x="67" y="248"/>
      <point x="67" y="109" type="curve" smooth="yes"/>
      <point x="67" y="33"/>
      <point x="115" y="0"/>
      <point x="187" y="0" type="curve" smooth="yes"/>
      <point x="821" y="0" type="line" smooth="yes"/>
      <point x="858" y="0"/>
      <point x="895" y="-3"/>
      <point x="930" y="-12" type="curve" smooth="yes"/>
      <point x="970" y="-22"/>
      <point x="1010" y="-35"/>
      <point x="1052" y="-35" type="curve" smooth="yes"/>
      <point x="1158" y="-35"/>
      <point x="1187" y="33"/>
      <point x="1212" y="123" type="curve" smooth="yes"/>
      <point x="1280" y="371" type="line" smooth="yes"/>
      <point x="1284" y="385"/>
      <point x="1286" y="399"/>
      <point x="1286" y="414" type="curve" smooth="yes"/>
      <point x="1286" y="483"/>
      <point x="1234" y="523"/>
      <point x="1168" y="523" type="curve" smooth="yes"/>
      <point x="1005" y="523"/>
      <point x="1078" y="223"/>
      <point x="824" y="223" type="curve" smooth="yes"/>
      <point x="773" y="223" type="line" smooth="yes"/>
      <point x="714" y="223"/>
      <point x="696" y="261"/>
      <point x="696" y="314" type="curve" smooth="yes"/>
      <point x="696" y="1057" type="line" smooth="yes"/>
      <point x="696" y="1173"/>
      <point x="833" y="1138"/>
    </contour>
  </outline>
</glyph>
<glyph name="N" format="2">
  <advance width="1700"/>
  <unicode hex="004E"/>
  <anchor x="850" y="0" name="bottom"/>
  <anchor x="850" y="1384" name="top"/>
  <outline>
    <contour>
      <point x="633" y="109" type="curve" smooth="yes"/>
      <point x="633" y="189"/>
      <point x="589" y="206"/>
      <point x="529" y="242" type="curve" smooth="yes"/>
      <point x="484" y="269"/>
      <point x="474" y="283"/>
      <point x="474" y="336" type="curve" smooth="yes"/>
      <point x="474" y="1074" type="line"/>
      <point x="364" y="924" type="line"/>
      <point x="987" y="203" type="line" smooth="yes"/>
      <point x="1011" y="175"/>
      <point x="1063" y="122"/>
      <point x="1063" y="84" type="curve" smooth="yes"/>
      <point x="1063" y="24"/>
      <point x="1100" y="0"/>
      <point x="1156" y="0" type="curve" smooth="yes"/>
      <point x="1496" y="0" type="line" smooth="yes"/>
      <point x="1561" y="0"/>
      <point x="1604" y="44"/>
      <point x="1604" y="109" type="curve" smooth="yes"/>
      <point x="1604" y="171"/>
      <point x="1555" y="232"/>
      <point x="1523" y="283" type="curve" smooth="yes"/>
      <point x="1490" y="336"/>
      <point x="1483" y="407"/>
      <point x="1483" y="468" type="curve" smooth="yes"/>
      <point x="1483" y="1049" type="line" smooth="yes"/>
      <point x="1483" y="1101"/>
      <point x="1494" y="1116"/>
      <point x="1538" y="1142" type="curve" smooth="yes"/>
      <point x="1599" y="1178"/>
      <point x="1643" y="1194"/>
      <point x="1643" y="1275" type="curve" smooth="yes"/>
      <point x="1643" y="1351"/>
      <point x="1592" y="1384"/>
      <point x="1521" y="1384" type="curve" smooth="yes"/>
      <point x="1221" y="1384" type="line" smooth="yes"/>
      <point x="1149" y="1384"/>
      <point x="1099" y="1352"/>
      <point x="1099" y="1275" type="curve" smooth="yes"/>
      <point x="1099" y="1130"/>
      <point x="1258" y="1181"/>
      <point x="1258" y="1049" type="curve" smooth="yes"/>
      <point x="1258" y="304" type="line"/>
      <point x="1309" y="540" type="line"/>
      <point x="639" y="1308" type="line" smooth="yes"/>
      <point x="583" y="1373"/>
      <point x="560" y="1384"/>
      <point x="474" y="1384" type="curve" smooth="yes"/>
      <point x="162" y="1384" type="line" smooth="yes"/>
      <point x="103" y="1384"/>
      <point x="53" y="1349"/>
      <point x="53" y="1286" type="curve" smooth="yes"/>
      <point x="53" y="1221"/>
      <point x="122" y="1159"/>
      <point x="165" y="1117" type="curve" smooth="yes"/>
      <point x="229" y="1055"/>
      <point x="249" y="1028"/>
      <point x="249" y="936" type="curve" smooth="yes"/>
      <point x="249" y="336" type="line" smooth="yes"/>
      <point x="249" y="206"/>
      <point x="89" y="252"/>
      <point x="89" y="109" type="curve" smooth="yes"/>
      <point x="89" y="32"/>
      <point x="139" y="0"/>
      <point x="211" y="0" type="curve" smooth="yes"/>
      <point x="511" y="0" type="line" smooth="yes"/>
      <point x="583" y="0"/>
      <point x="633" y="32"/>
    </contour>
  </outline>
</glyph>
<glyph name="P" format="2">
  <advance width="1401"/>
  <unicode hex="0050"/>
  <anchor x="704" y="0" name="bottom"/>
  <anchor x="704" y="1384" name="top"/>
  <outline>
    <contour>
      <point x="1388" y="860" type="curve" smooth="yes"/>
      <point x="1388" y="1253"/>
      <point x="1011" y="1384"/>
      <point x="678" y="1384" type="curve" smooth="yes"/>
      <point x="158" y="1384" type="line" smooth="yes"/>
      <point x="87" y="1384"/>
      <point x="39" y="1350"/>
      <point x="39" y="1275" type="curve" smooth="yes"/>
      <point x="39" y="1141"/>
      <point x="173" y="1172"/>
      <point x="173" y="1057" type="curve" smooth="yes"/>
      <point x="173" y="327" type="line" smooth="yes"/>
      <point x="173" y="213"/>
      <point x="39" y="246"/>
      <point x="39" y="109" type="curve" smooth="yes"/>
      <point x="39" y="34"/>
      <point x="87" y="0"/>
      <point x="158" y="0" type="curve" smooth="yes"/>
      <point x="706" y="0" type="line" smooth="yes"/>
      <point x="778" y="0"/>
      <point x="825" y="33"/>
      <point x="825" y="109" type="curve" smooth="yes"/>
      <point x="825" y="252"/>
      <point x="665" y="199"/>
      <point x="665" y="327" type="curve" smooth="yes"/>
      <point x="665" y="1162" type="line"/>
      <point x="656" y="1162" type="line"/>
      <point x="819" y="1162"/>
      <point x="915" y="1029"/>
      <point x="915" y="875" type="curve" smooth="yes"/>
      <point x="915" y="733"/>
      <point x="841" y="611"/>
      <point x="687" y="611" type="curve" smooth="yes"/>
      <point x="599" y="611"/>
      <point x="554" y="636"/>
      <point x="482" y="682" type="curve"/>
      <point x="463" y="508" type="line"/>
      <point x="573" y="444"/>
      <point x="701" y="413"/>
      <point x="828" y="413" type="curve" smooth="yes"/>
      <point x="1115" y="413"/>
      <point x="1388" y="533"/>
    </contour>
  </outline>
</glyph>
<glyph name="S" format="2">
  <advance width="1321"/>
  <unicode hex="0053"/>
  <anchor x="662" y="0" name="bottom"/>
  <anchor x="662" y="1384" name="top"/>
  <outline>
    <contour>
      <point x="681" y="-29" type="curve" smooth="yes"/>
      <point x="954" y="-29"/>
      <point x="1222" y="120"/>
      <point x="1222" y="422" type="curve" smooth="yes"/>
      <point x="1222" y="735"/>
      <point x="978" y="846"/>
      <point x="719" y="928" type="curve" smooth="yes"/>
      <point x="645" y="951"/>
      <point x="535" y="982"/>
      <point x="535" y="1078" type="curve" smooth="yes"/>
      <point x="535" y="1151"/>
      <point x="600" y="1183"/>
      <point x="665" y="1183" type="curve" smooth="yes"/>
      <point x="842" y="1183"/>
      <point x="944" y="1074"/>
      <point x="1032" y="935" type="curve" smooth="yes"/>
      <point x="1060" y="891"/>
      <point x="1080" y="857"/>
      <point x="1138" y="857" type="curve" smooth="yes"/>
      <point x="1200" y="857"/>
      <point x="1255" y="899"/>
      <point x="1255" y="964" type="curve" smooth="yes"/>
      <point x="1255" y="979"/>
      <point x="1252" y="994"/>
      <point x="1248" y="1008" type="curve" smooth="yes"/>
      <point x="1168" y="1263" type="line" smooth="yes"/>
      <point x="1147" y="1329"/>
      <point x="1118" y="1416"/>
      <point x="1034" y="1416" type="curve" smooth="yes"/>
      <point x="978" y="1416"/>
      <point x="945" y="1364"/>
      <point x="895" y="1364" type="curve" smooth="yes"/>
      <point x="849" y="1364"/>
      <point x="805" y="1380"/>
      <point x="761" y="1391" type="curve" smooth="yes"/>
      <point x="708" y="1404"/>
      <point x="653" y="1409"/>
      <point x="599" y="1409" type="curve" smooth="yes"/>
      <point x="323" y="1409"/>
      <point x="90" y="1252"/>
      <point x="90" y="957" type="curve" smooth="yes"/>
      <point x="90" y="616"/>
      <point x="367" y="508"/>
      <point x="646" y="425" type="curve" smooth="yes"/>
      <point x="710" y="406"/>
      <point x="797" y="383"/>
      <point x="797" y="300" type="curve" smooth="yes"/>
      <point x="797" y="219"/>
      <point x="711" y="194"/>
      <point x="644" y="194" type="curve" smooth="yes"/>
      <point x="362" y="194"/>
      <point x="356" y="453"/>
      <point x="224" y="453" type="curve" smooth="yes"/>
      <point x="166" y="453"/>
      <point x="112" y="416"/>
      <point x="112" y="354" type="curve" smooth="yes"/>
      <point x="112" y="345"/>
      <point x="113" y="338"/>
      <point x="115" y="329" type="curve"/>
      <point x="131" y="246"/>
      <point x="147" y="162"/>
      <point x="163" y="79" type="curve" smooth="yes"/>
      <point x="176" y="11"/>
      <point x="200" y="-36"/>
      <point x="277" y="-36" type="curve" smooth="yes"/>
      <point x="334" y="-36"/>
      <point x="385" y="-6"/>
      <point x="441" y="-6" type="curve" smooth="yes"/>
      <point x="466" y="-6"/>
      <point x="490" y="-10"/>
      <point x="514" y="-14" type="curve" smooth="yes"/>
      <point x="569" y="-23"/>
      <point x="625" y="-29"/>
    </contour>
  </outline>
</glyph>
<glyph name="W" format="2">
  <advance width="2129"/>
  <unicode hex="0057"/>
  <anchor x="1064" y="0" name="bottom"/>
  <anchor x="1064" y="1384" name="top"/>
  <outline>
    <contour>
      <point x="974" y="1078" type="line"/>
      <point x="677" y="149" type="line"/>
      <point x="871" y="294" type="line"/>
      <point x="654" y="1012" type="line" smooth="yes"/>
      <point x="646" y="1038"/>
      <point x="640" y="1064"/>
      <point x="640" y="1091" type="curve" smooth="yes"/>
      <point x="640" y="1190"/>
      <point x="736" y="1168"/>
      <point x="736" y="1275" type="curve" smooth="yes"/>
      <point x="736" y="1352"/>
      <point x="689" y="1384"/>
      <point x="616" y="1384" type="curve" smooth="yes"/>
      <point x="112" y="1384" type="line" smooth="yes"/>
      <point x="40" y="1384"/>
      <point x="-8" y="1351"/>
      <point x="-8" y="1275" type="curve" smooth="yes"/>
      <point x="-8" y="1209"/>
      <point x="19" y="1188"/>
      <point x="68" y="1151" type="curve" smooth="yes"/>
      <point x="119" y="1112"/>
      <point x="130" y="1099"/>
      <point x="149" y="1038" type="curve" smooth="yes"/>
      <point x="405" y="224" type="line" smooth="yes"/>
      <point x="418" y="184"/>
      <point x="425" y="143"/>
      <point x="425" y="101" type="curve" smooth="yes"/>
      <point x="425" y="47"/>
      <point x="453" y="0"/>
      <point x="512" y="0" type="curve" smooth="yes"/>
      <point x="835" y="0" type="line" smooth="yes"/>
      <point x="921" y="0"/>
      <point x="924" y="76"/>
      <point x="924" y="142" type="curve" smooth="yes"/>
      <point x="924" y="190"/>
      <point x="934" y="237"/>
      <point x="949" y="283" type="curve" smooth="yes"/>
      <point x="1197" y="1052" type="line"/>
    </contour>
    <contour>
      <point x="1675" y="1275" type="curve" smooth="yes"/>
      <point x="1675" y="1186"/>
      <point x="1770" y="1170"/>
      <point x="1770" y="1100" type="curve" smooth="yes"/>
      <point x="1770" y="1082"/>
      <point x="1766" y="1065"/>
      <point x="1761" y="1048" type="curve" smooth="yes"/>
      <point x="1499" y="149" type="line"/>
      <point x="1675" y="294" type="line"/>
      <point x="1466" y="1012" type="line" smooth="yes"/>
      <point x="1459" y="1037"/>
      <point x="1453" y="1064"/>
      <point x="1453" y="1090" type="curve" smooth="yes"/>
      <point x="1453" y="1187"/>
      <point x="1553" y="1169"/>
      <point x="1553" y="1275" type="curve" smooth="yes"/>
      <point x="1553" y="1351"/>
      <point x="1505" y="1384"/>
      <point x="1433" y="1384" type="curve" smooth="yes"/>
      <point x="967" y="1384" type="line" smooth="yes"/>
      <point x="896" y="1384"/>
      <point x="847" y="1350"/>
      <point x="847" y="1275" type="curve" smooth="yes"/>
      <point x="847" y="1224"/>
      <point x="864" y="1205"/>
      <point x="904" y="1177" type="curve" smooth="yes"/>
      <point x="968" y="1131"/>
      <point x="961" y="1107"/>
      <point x="982" y="1038" type="curve" smooth="yes"/>
      <point x="1226" y="224" type="line" smooth="yes"/>
      <point x="1238" y="184"/>
      <point x="1247" y="143"/>
      <point x="1247" y="101" type="curve" smooth="yes"/>
      <point x="1247" y="46"/>
      <point x="1276" y="0"/>
      <point x="1335" y="0" type="curve" smooth="yes"/>
      <point x="1657" y="0" type="line" smooth="yes"/>
      <point x="1717" y="0"/>
      <point x="1746" y="45"/>
      <point x="1746" y="101" type="curve" smooth="yes"/>
      <point x="1746" y="162"/>
      <point x="1755" y="224"/>
      <point x="1772" y="283" type="curve" smooth="yes"/>
      <point x="1984" y="1017" type="line" smooth="yes"/>
      <point x="2007" y="1097"/>
      <point x="2016" y="1118"/>
      <point x="2086" y="1166" type="curve" smooth="yes"/>
      <point x="2131" y="1197"/>
      <point x="2160" y="1215"/>
      <point x="2160" y="1275" type="curve" smooth="yes"/>
      <point x="2160" y="1351"/>
      <point x="2113" y="1384"/>
      <point x="2041" y="1384" type="curve" smooth="yes"/>
      <point x="1795" y="1384" type="line" smooth="yes"/>
      <point x="1723" y="1384"/>
      <point x="1675" y="1351"/>
    </contour>
  </outline>
  <guideline angle="0" x="0" y="505"/>
</glyph>
<glyph name="Z" format="2">
  <advance width="1405"/>
  <unicode hex="005A"/>
  <anchor x="702" y="0" name="bottom"/>
  <anchor x="702" y="692" name="center"/>
  <anchor x="702" y="1384" name="top"/>
  <outline>
    <contour>
      <point x="1340" y="1274" type="curve" smooth="yes"/>
      <point x="1340" y="1344"/>
      <point x="1297" y="1384"/>
      <point x="1228" y="1384" type="curve" smooth="yes"/>
      <point x="515" y="1384" type="line" smooth="yes"/>
      <point x="435" y="1384"/>
      <point x="359" y="1417"/>
      <point x="279" y="1417" type="curve" smooth="yes"/>
      <point x="173" y="1417"/>
      <point x="138" y="1352"/>
      <point x="118" y="1259" type="curve" smooth="yes"/>
      <point x="71" y="1039" type="line" smooth="yes"/>
      <point x="70" y="1034"/>
      <point x="69" y="1030"/>
      <point x="69" y="1025" type="curve" smooth="yes"/>
      <point x="69" y="969"/>
      <point x="137" y="931"/>
      <point x="187" y="931" type="curve" smooth="yes"/>
      <point x="352" y="931"/>
      <point x="254" y="1161"/>
      <point x="528" y="1161" type="curve" smooth="yes"/>
      <point x="912" y="1161" type="line"/>
      <point x="882" y="1323" type="line"/>
      <point x="99" y="257" type="line" smooth="yes"/>
      <point x="70" y="217"/>
      <point x="38" y="161"/>
      <point x="38" y="110" type="curve" smooth="yes"/>
      <point x="38" y="40"/>
      <point x="82" y="0"/>
      <point x="151" y="0" type="curve" smooth="yes"/>
      <point x="877" y="0" type="line" smooth="yes"/>
      <point x="913" y="0"/>
      <point x="951" y="-4"/>
      <point x="986" y="-12" type="curve" smooth="yes"/>
      <point x="1028" y="-22"/>
      <point x="1069" y="-35"/>
      <point x="1112" y="-35" type="curve" smooth="yes"/>
      <point x="1221" y="-35"/>
      <point x="1246" y="33"/>
      <point x="1273" y="123" type="curve" smooth="yes"/>
      <point x="1348" y="371" type="line" smooth="yes"/>
      <point x="1352" y="385"/>
      <point x="1355" y="400"/>
      <point x="1355" y="415" type="curve" smooth="yes"/>
      <point x="1355" y="483"/>
      <point x="1299" y="523"/>
      <point x="1235" y="523" type="curve" smooth="yes"/>
      <point x="1077" y="523"/>
      <point x="1144" y="223"/>
      <point x="864" y="223" type="curve" smooth="yes"/>
      <point x="195" y="223" type="line"/>
      <point x="511" y="77" type="line"/>
      <point x="1280" y="1128" type="line" smooth="yes"/>
      <point x="1308" y="1167"/>
      <point x="1340" y="1225"/>
    </contour>
  </outline>
</glyph>
<glyph name="a" format="2">
  <advance width="1161"/>
  <unicode hex="0061"/>
  <anchor x="584" y="0" name="bottom"/>
  <anchor x="1053" y="11" name="ogonek"/>
  <anchor x="584" y="1024" name="top"/>
  <outline>
    <contour>
      <point x="905" y="-29" type="curve" smooth="yes"/>
      <point x="1032" y="-29"/>
      <point x="1180" y="54"/>
      <point x="1180" y="195" type="curve" smooth="yes"/>
      <point x="1180" y="231"/>
      <point x="1161" y="262"/>
      <point x="1122" y="262" type="curve" smooth="yes"/>
      <point x="1103" y="262"/>
      <point x="1090" y="243"/>
      <point x="1071" y="243" type="curve" smooth="yes"/>
      <point x="1045" y="243"/>
      <point x="1036" y="263"/>
      <point x="1036" y="286" type="curve" smooth="yes"/>
      <point x="1036" y="747" type="line" smooth="yes"/>
      <point x="1036" y="975"/>
      <point x="865" y="1054"/>
      <point x="662" y="1054" type="curve" smooth="yes"/>
      <point x="482" y="1054"/>
      <point x="243" y="1020"/>
      <point x="121" y="873" type="curve" smooth="yes"/>
      <point x="93" y="839"/>
      <point x="73" y="795"/>
      <point x="73" y="750" type="curve" smooth="yes"/>
      <point x="73" y="635"/>
      <point x="159" y="596"/>
      <point x="261" y="596" type="curve" smooth="yes"/>
      <point x="381" y="596"/>
      <point x="495" y="645"/>
      <point x="494" y="782" type="curve" smooth="yes"/>
      <point x="494" y="796"/>
      <point x="493" y="810"/>
      <point x="493" y="824" type="curve" smooth="yes"/>
      <point x="493" y="855"/>
      <point x="498" y="898"/>
      <point x="539" y="898" type="curve" smooth="yes"/>
      <point x="582" y="898"/>
      <point x="592" y="840"/>
      <point x="592" y="807" type="curve" smooth="yes"/>
      <point x="592" y="203" type="line"/>
      <point x="635" y="203" type="line"/>
      <point x="635" y="175" type="line" smooth="yes"/>
      <point x="635" y="34"/>
      <point x="784" y="-29"/>
    </contour>
    <contour>
      <point x="40" y="230" type="curve" smooth="yes"/>
      <point x="40" y="62"/>
      <point x="179" y="-29"/>
      <point x="335" y="-29" type="curve" smooth="yes"/>
      <point x="454" y="-29"/>
      <point x="593" y="16"/>
      <point x="658" y="122" type="curve"/>
      <point x="633" y="247" type="line"/>
      <point x="625" y="223"/>
      <point x="600" y="207"/>
      <point x="575" y="207" type="curve" smooth="yes"/>
      <point x="513" y="207"/>
      <point x="491" y="265"/>
      <point x="491" y="318" type="curve" smooth="yes"/>
      <point x="491" y="358"/>
      <point x="506" y="423"/>
      <point x="557" y="423" type="curve" smooth="yes"/>
      <point x="579" y="423"/>
      <point x="601" y="415"/>
      <point x="618" y="401" type="curve"/>
      <point x="662" y="525" type="line"/>
      <point x="613" y="551"/>
      <point x="556" y="552"/>
      <point x="502" y="552" type="curve" smooth="yes"/>
      <point x="301" y="552"/>
      <point x="40" y="474"/>
    </contour>
  </outline>
  <guideline angle="0" x="0" y="-32"/>
</glyph>
<glyph name="c" format="2">
  <advance width="1078"/>
  <unicode hex="0063"/>
  <anchor x="542" y="0" name="bottom"/>
  <anchor x="542" y="1024" name="top"/>
  <outline>
    <contour>
      <point x="1027" y="728" type="curve" smooth="yes"/>
      <point x="1027" y="961"/>
      <point x="787" y="1056"/>
      <point x="588" y="1056" type="curve" smooth="yes"/>
      <point x="251" y="1056"/>
      <point x="39" y="813"/>
      <point x="39" y="484" type="curve" smooth="yes"/>
      <point x="39" y="179"/>
      <point x="267" y="-29"/>
      <point x="567" y="-29" type="curve" smooth="yes"/>
      <point x="775" y="-29"/>
      <point x="1032" y="90"/>
      <point x="1032" y="329" type="curve" smooth="yes"/>
      <point x="1032" y="361"/>
      <point x="1022" y="402"/>
      <point x="981" y="402" type="curve" smooth="yes"/>
      <point x="946" y="402"/>
      <point x="826" y="293"/>
      <point x="709" y="293" type="curve" smooth="yes"/>
      <point x="514" y="293"/>
      <point x="434" y="459"/>
      <point x="434" y="632" type="curve" smooth="yes"/>
      <point x="434" y="693"/>
      <point x="451" y="847"/>
      <point x="535" y="847" type="curve" smooth="yes"/>
      <point x="608" y="847"/>
      <point x="611" y="777"/>
      <point x="611" y="722" type="curve" smooth="yes"/>
      <point x="611" y="602"/>
      <point x="688" y="536"/>
      <point x="805" y="536" type="curve" smooth="yes"/>
      <point x="920" y="536"/>
      <point x="1027" y="603"/>
    </contour>
  </outline>
</glyph>
<glyph name="d" format="2">
  <advance width="1332"/>
  <unicode hex="0064"/>
  <anchor x="669" y="0" name="bottom"/>
  <anchor x="669" y="512" name="center"/>
  <anchor x="669" y="2079" name="top"/>
  <anchor x="1300" y="2079" name="topright"/>
  <outline>
    <contour>
      <point x="764" y="225" type="line"/>
      <point x="764" y="176" type="line" smooth="yes"/>
      <point x="764" y="79"/>
      <point x="861" y="0"/>
      <point x="954" y="0" type="curve" smooth="yes"/>
      <point x="1178" y="0" type="line" smooth="yes"/>
      <point x="1234" y="0"/>
      <point x="1276" y="33"/>
      <point x="1276" y="91" type="curve" smooth="yes"/>
      <point x="1276" y="131"/>
      <point x="1267" y="143"/>
      <point x="1240" y="171" type="curve" smooth="yes"/>
      <point x="1194" y="218"/>
      <point x="1192" y="229"/>
      <point x="1192" y="294" type="curve" smooth="yes"/>
      <point x="1192" y="1409" type="line" smooth="yes"/>
      <point x="1192" y="1459"/>
      <point x="1162" y="1504"/>
      <point x="1108" y="1504" type="curve" smooth="yes"/>
      <point x="1052" y="1504"/>
      <point x="999" y="1485"/>
      <point x="948" y="1464" type="curve" smooth="yes"/>
      <point x="731" y="1377" type="line" smooth="yes"/>
      <point x="686" y="1359"/>
      <point x="648" y="1334"/>
      <point x="648" y="1280" type="curve" smooth="yes"/>
      <point x="648" y="1190"/>
      <point x="743" y="1218"/>
      <point x="743" y="1099" type="curve" smooth="yes"/>
      <point x="743" y="230" type="line"/>
    </contour>
    <contour>
      <point x="57" y="479" type="curve" smooth="yes"/>
      <point x="57" y="238"/>
      <point x="189" y="-29"/>
      <point x="462" y="-29" type="curve" smooth="yes"/>
      <point x="664" y="-29"/>
      <point x="802" y="127"/>
      <point x="895" y="289" type="curve"/>
      <point x="819" y="374" type="line"/>
      <point x="795" y="311"/>
      <point x="751" y="230"/>
      <point x="673" y="230" type="curve" smooth="yes"/>
      <point x="541" y="230"/>
      <point x="521" y="432"/>
      <point x="521" y="529" type="curve" smooth="yes"/>
      <point x="521" y="617"/>
      <point x="536" y="828"/>
      <point x="659" y="828" type="curve" smooth="yes"/>
      <point x="732" y="828"/>
      <point x="777" y="755"/>
      <point x="800" y="695" type="curve"/>
      <point x="922" y="835" type="line"/>
      <point x="842" y="972"/>
      <point x="726" y="1056"/>
      <point x="564" y="1056" type="curve" smooth="yes"/>
      <point x="238" y="1056"/>
      <point x="57" y="782"/>
    </contour>
  </outline>
</glyph>
<glyph name="e" format="2">
  <advance width="1086"/>
  <unicode hex="0065"/>
  <anchor x="544" y="0" name="bottom"/>
  <anchor x="978" y="11" name="ogonek"/>
  <anchor x="544" y="1024" name="top"/>
  <outline>
    <contour>
      <point x="1047" y="661" type="curve" smooth="yes"/>
      <point x="1047" y="918"/>
      <point x="826" y="1056"/>
      <point x="589" y="1056" type="curve" smooth="yes"/>
      <point x="245" y="1056"/>
      <point x="40" y="835"/>
      <point x="40" y="495" type="curve" smooth="yes"/>
      <point x="40" y="177"/>
      <point x="257" y="-29"/>
      <point x="572" y="-29" type="curve" smooth="yes"/>
      <point x="785" y="-29"/>
      <point x="1041" y="90"/>
      <point x="1041" y="334" type="curve" smooth="yes"/>
      <point x="1041" y="368"/>
      <point x="1025" y="401"/>
      <point x="986" y="401" type="curve" smooth="yes"/>
      <point x="946" y="401"/>
      <point x="825" y="277"/>
      <point x="705" y="277" type="curve" smooth="yes"/>
      <point x="495" y="277"/>
      <point x="435" y="455"/>
      <point x="435" y="634" type="curve" smooth="yes"/>
      <point x="435" y="690"/>
      <point x="445" y="847"/>
      <point x="525" y="847" type="curve" smooth="yes"/>
      <point x="591" y="847"/>
      <point x="605" y="731"/>
      <point x="605" y="683" type="curve" smooth="yes"/>
      <point x="605" y="635"/>
      <point x="589" y="612"/>
      <point x="539" y="612" type="curve" smooth="yes"/>
      <point x="330" y="612" type="line"/>
      <point x="330" y="480" type="line"/>
      <point x="856" y="480" type="line" smooth="yes"/>
      <point x="971" y="480"/>
      <point x="1047" y="542"/>
    </contour>
  </outline>
</glyph>
<glyph name="f" format="2">
  <advance width="869"/>
  <unicode hex="0066"/>
  <anchor x="441" y="0" name="bottom"/>
  <anchor x="441" y="2079" name="top"/>
  <outline>
    <contour>
      <point x="617" y="760" type="line"/>
      <point x="709" y="760"/>
      <point x="853" y="770"/>
      <point x="853" y="893" type="curve" smooth="yes"/>
      <point x="853" y="947"/>
      <point x="811" y="971"/>
      <point x="762" y="971" type="curve" smooth="yes"/>
      <point x="511" y="971" type="line"/>
      <point x="579" y="893" type="line" name=".hr01"/>
      <point x="579" y="980" type="line" smooth="yes"/>
      <point x="579" y="1076"/>
      <point x="390" y="1133"/>
      <point x="390" y="1239" type="curve" smooth="yes"/>
      <point x="390" y="1286"/>
      <point x="403" y="1329"/>
      <point x="458" y="1329" type="curve" smooth="yes"/>
      <point x="538" y="1329"/>
      <point x="535" y="1261"/>
      <point x="535" y="1201" type="curve" smooth="yes"/>
      <point x="535" y="1084"/>
      <point x="611" y="1011"/>
      <point x="727" y="1011" type="curve" smooth="yes"/>
      <point x="837" y="1011"/>
      <point x="902" y="1080"/>
      <point x="902" y="1189" type="curve" smooth="yes"/>
      <point x="902" y="1405"/>
      <point x="668" y="1484"/>
      <point x="488" y="1484" type="curve" smooth="yes"/>
      <point x="287" y="1484"/>
      <point x="51" y="1401"/>
      <point x="51" y="1163" type="curve" smooth="yes"/>
      <point x="51" y="1065"/>
      <point x="170" y="1000"/>
      <point x="170" y="982" type="curve" smooth="yes"/>
      <point x="170" y="927" type="line"/>
      <point x="287" y="971" type="line"/>
      <point x="91" y="971" type="line" smooth="yes"/>
      <point x="40" y="971"/>
      <point x="-1" y="941"/>
      <point x="-1" y="887" type="curve" smooth="yes"/>
      <point x="-1" y="762"/>
      <point x="167" y="789" name=".hr02"/>
      <point x="167" y="691" type="curve" smooth="yes"/>
      <point x="167" y="305" type="line" smooth="yes"/>
      <point x="167" y="145"/>
      <point x="28" y="227"/>
      <point x="28" y="89" type="curve" smooth="yes"/>
      <point x="28" y="30"/>
      <point x="69" y="0"/>
      <point x="125" y="0" type="curve" smooth="yes"/>
      <point x="740" y="0" type="line" smooth="yes"/>
      <point x="798" y="0"/>
      <point x="838" y="31"/>
      <point x="838" y="91" type="curve" smooth="yes"/>
      <point x="838" y="176"/>
      <point x="794" y="181"/>
      <point x="723" y="189" type="curve" smooth="yes"/>
      <point x="633" y="200"/>
      <point x="617" y="206"/>
      <point x="617" y="301" type="curve" smooth="yes"/>
    </contour>
  </outline>
</glyph>
<glyph name="g" format="2">
  <advance width="1184"/>
  <unicode hex="0067"/>
  <anchor x="595" y="-541" name="bottom"/>
  <anchor x="595" y="1024" name="top"/>
  <outline>
    <contour>
      <point x="1208" y="-80" type="curve" smooth="yes"/>
      <point x="1208" y="-345"/>
      <point x="754" y="-395"/>
      <point x="516" y="-395" type="curve" smooth="yes"/>
      <point x="382" y="-395"/>
      <point x="28" y="-388"/>
      <point x="28" y="-192.625" type="curve" smooth="yes"/>
      <point x="28" y="-6"/>
      <point x="351" y="9"/>
      <point x="533" y="9" type="curve"/>
      <point x="296" y="-87"/>
      <point x="360" y="-203"/>
      <point x="634" y="-203" type="curve" smooth="yes"/>
      <point x="732" y="-203"/>
      <point x="821" y="-170"/>
      <point x="821" y="-124" type="curve" smooth="yes"/>
      <point x="821" y="81"/>
      <point x="135" y="-179"/>
      <point x="135" y="92.0646" type="curve" smooth="yes"/>
      <point x="135" y="264"/>
      <point x="411" y="277"/>
      <point x="550" y="277" type="curve"/>
      <point x="556" y="256" type="line"/>
      <point x="544" y="248"/>
      <point x="533" y="237"/>
      <point x="533" y="224" type="curve" smooth="yes"/>
      <point x="533" y="189"/>
      <point x="596" y="185"/>
      <point x="683" y="185" type="curve" smooth="yes"/>
      <point x="882" y="185"/>
      <point x="1208" y="205"/>
    </contour>
    <contour>
      <point x="570" y="1028" type="line"/>
      <point x="631" y="1196"/>
      <point x="721" y="1406"/>
      <point x="931" y="1406" type="curve" smooth="yes"/>
      <point x="1040" y="1406"/>
      <point x="1120" y="1338"/>
      <point x="1120" y="1226" type="curve" smooth="yes"/>
      <point x="1120" y="1135"/>
      <point x="1079" y="1047"/>
      <point x="976" y="1047" type="curve" smooth="yes"/>
      <point x="867" y="1047"/>
      <point x="852" y="1158"/>
      <point x="793" y="1158" type="curve" smooth="yes"/>
      <point x="740" y="1158"/>
      <point x="707" y="1053"/>
      <point x="694" y="1012" type="curve"/>
    </contour>
    <contour>
      <point x="1125" y="659" type="curve" smooth="yes"/>
      <point x="1125" y="367"/>
      <point x="863" y="246"/>
      <point x="606" y="246" type="curve" smooth="yes"/>
      <point x="364" y="246"/>
      <point x="54" y="330"/>
      <point x="54" y="626" type="curve" smooth="yes"/>
      <point x="54" y="943"/>
      <point x="341" y="1051"/>
      <point x="613" y="1051" type="curve" smooth="yes"/>
      <point x="856" y="1051"/>
      <point x="1125" y="940"/>
    </contour>
    <contour>
      <point x="561" y="897" type="curve" smooth="yes"/>
      <point x="503" y="897"/>
      <point x="503" y="807"/>
      <point x="503" y="767" type="curve" smooth="yes"/>
      <point x="503" y="694"/>
      <point x="513" y="400"/>
      <point x="616" y="400" type="curve" smooth="yes"/>
      <point x="678" y="400"/>
      <point x="678" y="483"/>
      <point x="678" y="527" type="curve" smooth="yes"/>
      <point x="678" y="605"/>
      <point x="673" y="897"/>
    </contour>
  </outline>
</glyph>
<glyph name="h" format="2">
  <advance width="1390"/>
  <unicode hex="0068"/>
  <anchor x="696" y="0" name="bottom"/>
  <anchor x="696" y="1040" name="center"/>
  <anchor x="696" y="2079" name="top"/>
  <outline>
    <contour>
      <point x="564" y="660" type="line"/>
      <point x="607" y="708"/>
      <point x="645" y="746"/>
      <point x="713" y="746" type="curve" smooth="yes"/>
      <point x="792" y="746"/>
      <point x="811" y="674"/>
      <point x="811" y="609" type="curve" smooth="yes"/>
      <point x="811" y="266" type="line" smooth="yes"/>
      <point x="811" y="167"/>
      <point x="739" y="167"/>
      <point x="739" y="91" type="curve" smooth="yes"/>
      <point x="739" y="36"/>
      <point x="771" y="0"/>
      <point x="827" y="0" type="curve" smooth="yes"/>
      <point x="1249" y="0" type="line" smooth="yes"/>
      <point x="1306" y="0"/>
      <point x="1346" y="32"/>
      <point x="1346" y="91" type="curve" smooth="yes"/>
      <point x="1346" y="131"/>
      <point x="1336" y="142"/>
      <point x="1310" y="170" type="curve" smooth="yes"/>
      <point x="1262" y="223"/>
      <point x="1261" y="230"/>
      <point x="1261" y="301" type="curve" smooth="yes"/>
      <point x="1261" y="717" type="line" smooth="yes"/>
      <point x="1261" y="896"/>
      <point x="1161" y="1056"/>
      <point x="967" y="1056" type="curve" smooth="yes"/>
      <point x="787" y="1056"/>
      <point x="600" y="878"/>
      <point x="486" y="753" type="curve"/>
    </contour>
    <contour>
      <point x="515" y="1504" type="curve" smooth="yes"/>
      <point x="459" y="1504"/>
      <point x="406" y="1484"/>
      <point x="355" y="1464" type="curve" smooth="yes"/>
      <point x="137" y="1377" type="line" smooth="yes"/>
      <point x="94" y="1360"/>
      <point x="53" y="1332"/>
      <point x="53" y="1280" type="curve" smooth="yes"/>
      <point x="53" y="1192"/>
      <point x="150" y="1220"/>
      <point x="150" y="1099" type="curve" smooth="yes"/>
      <point x="150" y="280" type="line" smooth="yes"/>
      <point x="150" y="164"/>
      <point x="65" y="183"/>
      <point x="65" y="91" type="curve" smooth="yes"/>
      <point x="65" y="31"/>
      <point x="105" y="0"/>
      <point x="163" y="0" type="curve" smooth="yes"/>
      <point x="585" y="0" type="line" smooth="yes"/>
      <point x="641" y="0"/>
      <point x="673" y="36"/>
      <point x="673" y="91" type="curve" smooth="yes"/>
      <point x="673" y="176"/>
      <point x="600" y="149"/>
      <point x="600" y="275" type="curve" smooth="yes"/>
      <point x="600" y="1409" type="line" smooth="yes"/>
      <point x="600" y="1460"/>
      <point x="569" y="1504"/>
    </contour>
  </outline>
</glyph>
<glyph name="n" format="2">
  <advance width="1374"/>
  <unicode hex="006E"/>
  <anchor x="688" y="0" name="bottom"/>
  <anchor x="688" y="1024" name="top"/>
  <outline>
    <contour>
      <point x="512" y="1056" type="curve" smooth="yes"/>
      <point x="456" y="1056"/>
      <point x="404" y="1037"/>
      <point x="353" y="1016" type="curve" smooth="yes"/>
      <point x="137" y="929" type="line" smooth="yes"/>
      <point x="94" y="912"/>
      <point x="53" y="884"/>
      <point x="53" y="832" type="curve" smooth="yes"/>
      <point x="53" y="746"/>
      <point x="147" y="771"/>
      <point x="147" y="650" type="curve" smooth="yes"/>
      <point x="147" y="279" type="line" smooth="yes"/>
      <point x="147" y="170"/>
      <point x="65" y="179"/>
      <point x="65" y="91" type="curve" smooth="yes"/>
      <point x="65" y="32"/>
      <point x="105" y="0"/>
      <point x="162" y="0" type="curve" smooth="yes"/>
      <point x="580" y="0" type="line" smooth="yes"/>
      <point x="636" y="0"/>
      <point x="667" y="36"/>
      <point x="667" y="91" type="curve" smooth="yes"/>
      <point x="667" y="139"/>
      <point x="646" y="151"/>
      <point x="618" y="184" type="curve" smooth="yes"/>
      <point x="594" y="212"/>
      <point x="596" y="255"/>
      <point x="596" y="289" type="curve" smooth="yes"/>
      <point x="596" y="961" type="line" smooth="yes"/>
      <point x="596" y="1011"/>
      <point x="566" y="1056"/>
    </contour>
    <contour>
      <point x="561" y="660" type="line"/>
      <point x="602" y="706"/>
      <point x="637" y="746"/>
      <point x="703" y="746" type="curve" smooth="yes"/>
      <point x="780" y="746"/>
      <point x="798" y="672"/>
      <point x="798" y="609" type="curve" smooth="yes"/>
      <point x="798" y="262" type="line" smooth="yes"/>
      <point x="798" y="174"/>
      <point x="728" y="167"/>
      <point x="728" y="91" type="curve" smooth="yes"/>
      <point x="728" y="36"/>
      <point x="759" y="0"/>
      <point x="815" y="0" type="curve" smooth="yes"/>
      <point x="1233" y="0" type="line" smooth="yes"/>
      <point x="1290" y="0"/>
      <point x="1330" y="32"/>
      <point x="1330" y="91" type="curve" smooth="yes"/>
      <point x="1330" y="146"/>
      <point x="1303" y="158"/>
      <point x="1272" y="195" type="curve" smooth="yes"/>
      <point x="1247" y="225"/>
      <point x="1248" y="264"/>
      <point x="1248" y="301" type="curve" smooth="yes"/>
      <point x="1248" y="717" type="line" smooth="yes"/>
      <point x="1248" y="894"/>
      <point x="1151" y="1056"/>
      <point x="958" y="1056" type="curve" smooth="yes"/>
      <point x="783" y="1056"/>
      <point x="592" y="878"/>
      <point x="484" y="753" type="curve"/>
    </contour>
  </outline>
</glyph>
<glyph name="p" format="2">
  <advance width="1363"/>
  <unicode hex="0070"/>
  <anchor x="681" y="0" name="bottom"/>
  <anchor x="681" y="1024" name="top"/>
  <outline>
    <contour>
      <point x="496" y="1056" type="curve" smooth="yes"/>
      <point x="440" y="1056"/>
      <point x="386" y="1038"/>
      <point x="335" y="1016" type="curve" smooth="yes"/>
      <point x="137" y="929" type="line" smooth="yes"/>
      <point x="95" y="911"/>
      <point x="53" y="883"/>
      <point x="53" y="832" type="curve" smooth="yes"/>
      <point x="53" y="741"/>
      <point x="153" y="774"/>
      <point x="153" y="650" type="curve" smooth="yes"/>
      <point x="153" y="-113" type="line" smooth="yes"/>
      <point x="153" y="-235"/>
      <point x="65" y="-208"/>
      <point x="65" y="-304" type="curve" smooth="yes"/>
      <point x="65" y="-364"/>
      <point x="107" y="-395"/>
      <point x="164" y="-395" type="curve" smooth="yes"/>
      <point x="590" y="-395" type="line" smooth="yes"/>
      <point x="646" y="-395"/>
      <point x="688" y="-362"/>
      <point x="688" y="-304" type="curve" smooth="yes"/>
      <point x="688" y="-265"/>
      <point x="677" y="-251"/>
      <point x="651" y="-223" type="curve" smooth="yes"/>
      <point x="603" y="-172"/>
      <point x="603" y="-163"/>
      <point x="603" y="-94" type="curve" smooth="yes"/>
      <point x="603" y="825" type="line"/>
      <point x="581" y="865" type="line"/>
      <point x="582" y="886"/>
      <point x="583" y="906"/>
      <point x="583" y="927" type="curve" smooth="yes"/>
      <point x="583" y="988"/>
      <point x="573" y="1056"/>
    </contour>
    <contour>
      <point x="526" y="653" type="line"/>
      <point x="551" y="721"/>
      <point x="603" y="796"/>
      <point x="683" y="796" type="curve" smooth="yes"/>
      <point x="821" y="796"/>
      <point x="845" y="601"/>
      <point x="845" y="498" type="curve" smooth="yes"/>
      <point x="845" y="403"/>
      <point x="826" y="199"/>
      <point x="696" y="199" type="curve" smooth="yes"/>
      <point x="620" y="199"/>
      <point x="569" y="268"/>
      <point x="544" y="332" type="curve"/>
      <point x="423" y="192" type="line"/>
      <point x="505" y="53"/>
      <point x="626" y="-29"/>
      <point x="791" y="-29" type="curve" smooth="yes"/>
      <point x="1119" y="-29"/>
      <point x="1308" y="239"/>
      <point x="1308" y="548" type="curve" smooth="yes"/>
      <point x="1308" y="796"/>
      <point x="1170" y="1056"/>
      <point x="893" y="1056" type="curve" smooth="yes"/>
      <point x="687" y="1056"/>
      <point x="547" y="903"/>
      <point x="450" y="738" type="curve"/>
    </contour>
  </outline>
</glyph>
<glyph name="s" format="2">
  <advance width="976"/>
  <unicode hex="0073"/>
  <anchor x="489" y="0" name="bottom"/>
  <anchor x="489" y="1024" name="top"/>
  <outline>
    <contour>
      <point x="510" y="885" type="curve" smooth="yes"/>
      <point x="697" y="885"/>
      <point x="739" y="671"/>
      <point x="865" y="671" type="curve" smooth="yes"/>
      <point x="927" y="671"/>
      <point x="949" y="729"/>
      <point x="949" y="782" type="curve" smooth="yes"/>
      <point x="949" y="814"/>
      <point x="942" y="844"/>
      <point x="937" y="875" type="curve" smooth="yes"/>
      <point x="927" y="935"/>
      <point x="916" y="1056"/>
      <point x="833" y="1056" type="curve" smooth="yes"/>
      <point x="788" y="1056"/>
      <point x="764" y="1009"/>
      <point x="720" y="1009" type="curve" smooth="yes"/>
      <point x="719" y="1009"/>
      <point x="648" y="1035"/>
      <point x="642" y="1037" type="curve" smooth="yes"/>
      <point x="592" y="1055"/>
      <point x="536" y="1056"/>
      <point x="483" y="1056" type="curve" smooth="yes"/>
      <point x="268" y="1056"/>
      <point x="35" y="949"/>
      <point x="35" y="704" type="curve" smooth="yes"/>
      <point x="35" y="427"/>
      <point x="235" y="371"/>
      <point x="464" y="325" type="curve" smooth="yes"/>
      <point x="526" y="313"/>
      <point x="571" y="302"/>
      <point x="571" y="228" type="curve" smooth="yes"/>
      <point x="571" y="176"/>
      <point x="542" y="140"/>
      <point x="488" y="140" type="curve" smooth="yes"/>
      <point x="289" y="140"/>
      <point x="297" y="363"/>
      <point x="123" y="363" type="curve" smooth="yes"/>
      <point x="52" y="363"/>
      <point x="14" y="316"/>
      <point x="14" y="247" type="curve" smooth="yes"/>
      <point x="14" y="209"/>
      <point x="29" y="171"/>
      <point x="39" y="135" type="curve" smooth="yes"/>
      <point x="58" y="69"/>
      <point x="79" y="-31"/>
      <point x="166" y="-31" type="curve" smooth="yes"/>
      <point x="209" y="-31"/>
      <point x="232" y="18"/>
      <point x="273" y="18" type="curve" smooth="yes"/>
      <point x="285" y="18"/>
      <point x="329" y="6"/>
      <point x="340" y="1" type="curve"/>
      <point x="341" y="1" type="line"/>
      <point x="373" y="-17"/>
      <point x="468" y="-29"/>
      <point x="507" y="-29" type="curve" smooth="yes"/>
      <point x="751" y="-29"/>
      <point x="958" y="65"/>
      <point x="958" y="340" type="curve" smooth="yes"/>
      <point x="958" y="544"/>
      <point x="791" y="666"/>
      <point x="607" y="706" type="curve" smooth="yes"/>
      <point x="565" y="715"/>
      <point x="520" y="721"/>
      <point x="480" y="738" type="curve" smooth="yes"/>
      <point x="443" y="754"/>
      <point x="422" y="773"/>
      <point x="422" y="816" type="curve" smooth="yes"/>
      <point x="422" y="868"/>
      <point x="465" y="885"/>
    </contour>
  </outline>
</glyph>
<glyph name="x" format="2">
  <advance width="1232"/>
  <unicode hex="0078"/>
  <anchor x="617" y="0" name="bottom"/>
  <anchor x="617" y="1024" name="top"/>
  <outline>
    <contour>
      <point x="396" y="571" type="line"/>
      <point x="312" y="435"/>
      <point x="234" y="296"/>
      <point x="102" y="201" type="curve" smooth="yes"/>
      <point x="61" y="171"/>
      <point x="25" y="148"/>
      <point x="25" y="91" type="curve" smooth="yes"/>
      <point x="25" y="33"/>
      <point x="67" y="0"/>
      <point x="123" y="0" type="curve" smooth="yes"/>
      <point x="369" y="0" type="line" smooth="yes"/>
      <point x="426" y="0"/>
      <point x="466" y="32"/>
      <point x="466" y="91" type="curve" smooth="yes"/>
      <point x="466" y="174"/>
      <point x="381" y="194"/>
      <point x="381" y="240" type="curve" smooth="yes"/>
      <point x="381" y="272"/>
      <point x="402" y="298"/>
      <point x="421" y="322" type="curve"/>
      <point x="421" y="323" type="line"/>
      <point x="429" y="335"/>
      <point x="439" y="346"/>
      <point x="446" y="359" type="curve" smooth="yes"/>
      <point x="501" y="464" type="line"/>
    </contour>
    <contour>
      <point x="684" y="818" type="curve" smooth="yes"/>
      <point x="684" y="854"/>
      <point x="722" y="888"/>
      <point x="722" y="934" type="curve" smooth="yes"/>
      <point x="722" y="994"/>
      <point x="681" y="1024"/>
      <point x="624" y="1024" type="curve" smooth="yes"/>
      <point x="131" y="1024" type="line" smooth="yes"/>
      <point x="74" y="1024"/>
      <point x="33" y="994"/>
      <point x="33" y="934" type="curve" smooth="yes"/>
      <point x="33" y="890"/>
      <point x="53" y="868"/>
      <point x="84" y="840" type="curve" smooth="yes"/>
      <point x="118" y="809"/>
      <point x="153" y="779"/>
      <point x="182" y="743" type="curve" smooth="yes"/>
      <point x="223" y="693"/>
      <point x="562" y="212"/>
      <point x="562" y="198" type="curve" smooth="yes"/>
      <point x="562" y="193"/>
      <point x="523" y="137"/>
      <point x="523" y="91" type="curve" smooth="yes"/>
      <point x="523" y="32"/>
      <point x="563" y="0"/>
      <point x="620" y="0" type="curve" smooth="yes"/>
      <point x="1116" y="0" type="line" smooth="yes"/>
      <point x="1173" y="0"/>
      <point x="1213" y="32"/>
      <point x="1213" y="91" type="curve" smooth="yes"/>
      <point x="1213" y="120"/>
      <point x="1194" y="140"/>
      <point x="1177" y="161" type="curve" smooth="yes"/>
      <point x="1016" y="361"/>
      <point x="859" y="566"/>
      <point x="705" y="772" type="curve" smooth="yes"/>
      <point x="695" y="786"/>
      <point x="684" y="800"/>
    </contour>
    <contour>
      <point x="788" y="421" type="line"/>
      <point x="896" y="569"/>
      <point x="1006" y="715"/>
      <point x="1147" y="833" type="curve" smooth="yes"/>
      <point x="1183" y="863"/>
      <point x="1209" y="883"/>
      <point x="1209" y="934" type="curve" smooth="yes"/>
      <point x="1209" y="994"/>
      <point x="1168" y="1024"/>
      <point x="1111" y="1024" type="curve" smooth="yes"/>
      <point x="874" y="1024" type="line" smooth="yes"/>
      <point x="818" y="1024"/>
      <point x="777" y="993"/>
      <point x="777" y="934" type="curve" smooth="yes"/>
      <point x="777" y="858"/>
      <point x="862" y="838"/>
      <point x="862" y="787" type="curve" smooth="yes"/>
      <point x="862" y="762"/>
      <point x="846" y="739"/>
      <point x="832" y="720" type="curve" smooth="yes"/>
      <point x="671" y="502" type="line"/>
    </contour>
  </outline>
</glyph>
<glyph name="y" format="2">
  <advance width="1268"/>
  <unicode hex="0079"/>
  <anchor x="635" y="0" name="bottom"/>
  <anchor x="635" y="1024" name="top"/>
  <outline>
    <contour>
      <point x="864" y="239" type="line"/>
      <point x="642" y="681" type="line" smooth="yes"/>
      <point x="625" y="715"/>
      <point x="611" y="754"/>
      <point x="611" y="791" type="curve" smooth="yes"/>
      <point x="611" y="857"/>
      <point x="730" y="827"/>
      <point x="730" y="935" type="curve" smooth="yes"/>
      <point x="730" y="995"/>
      <point x="688" y="1024"/>
      <point x="631" y="1024" type="curve" smooth="yes"/>
      <point x="96" y="1024" type="line" smooth="yes"/>
      <point x="39" y="1024"/>
      <point x="-3" y="994"/>
      <point x="-3" y="934" type="curve" smooth="yes"/>
      <point x="-3" y="850"/>
      <point x="114" y="818"/>
      <point x="151" y="747" type="curve" smooth="yes"/>
      <point x="636" y="-190" type="line"/>
    </contour>
    <contour>
      <point x="460" y="-148" type="curve" smooth="yes"/>
      <point x="366" y="-148"/>
      <point x="366" y="109"/>
      <point x="183" y="109" type="curve" smooth="yes"/>
      <point x="71" y="109"/>
      <point x="18" y="25"/>
      <point x="18" y="-79" type="curve" smooth="yes"/>
      <point x="18" y="-280"/>
      <point x="168" y="-395"/>
      <point x="360" y="-395" type="curve" smooth="yes"/>
      <point x="639" y="-395"/>
      <point x="745" y="-91"/>
      <point x="842" y="114" type="curve" smooth="yes"/>
      <point x="1114" y="688" type="line" smooth="yes"/>
      <point x="1148" y="759"/>
      <point x="1167" y="792"/>
      <point x="1226" y="844" type="curve" smooth="yes"/>
      <point x="1260" y="875"/>
      <point x="1276" y="888"/>
      <point x="1276" y="934" type="curve" smooth="yes"/>
      <point x="1276" y="994"/>
      <point x="1235" y="1024"/>
      <point x="1178" y="1024" type="curve" smooth="yes"/>
      <point x="886" y="1024" type="line" smooth="yes"/>
      <point x="829" y="1024"/>
      <point x="787" y="995"/>
      <point x="787" y="936" type="curve" smooth="yes"/>
      <point x="787" y="810"/>
      <point x="922" y="872"/>
      <point x="922" y="760" type="curve" smooth="yes"/>
      <point x="922" y="727"/>
      <point x="915" y="696"/>
      <point x="901" y="666" type="curve" smooth="yes"/>
      <point x="730" y="309" type="line" smooth="yes"/>
      <point x="710" y="267"/>
      <point x="706" y="220"/>
      <point x="681" y="181" type="curve" smooth="yes"/>
      <point x="594" y="47" type="line" smooth="yes"/>
      <point x="560" y="-6"/>
      <point x="541" y="-148"/>
    </contour>
  </outline>
</glyph>
<glyph name="z" format="2">
  <advance width="1053"/>
  <unicode hex="007A"/>
  <anchor x="528" y="0" name="bottom"/>
  <anchor x="528" y="512" name="center"/>
  <anchor x="528" y="1024" name="top"/>
  <outline>
    <contour>
      <point x="1027" y="919" type="curve" smooth="yes"/>
      <point x="1027" y="1004"/>
      <point x="954" y="1024"/>
      <point x="883" y="1024" type="curve" smooth="yes"/>
      <point x="353" y="1024" type="line" smooth="yes"/>
      <point x="295" y="1024"/>
      <point x="242" y="1056"/>
      <point x="184" y="1056" type="curve" smooth="yes"/>
      <point x="131" y="1056"/>
      <point x="103" y="1027"/>
      <point x="93" y="977" type="curve" smooth="yes"/>
      <point x="38" y="705" type="line" smooth="yes"/>
      <point x="28" y="654"/>
      <point x="82" y="609"/>
      <point x="131" y="609" type="curve" smooth="yes"/>
      <point x="190" y="609"/>
      <point x="211" y="650"/>
      <point x="239" y="694" type="curve" smooth="yes"/>
      <point x="349" y="868"/>
      <point x="449" y="855"/>
      <point x="634" y="851" type="curve"/>
      <point x="578" y="961" type="line"/>
      <point x="79" y="254" type="line" smooth="yes"/>
      <point x="52" y="215"/>
      <point x="34" y="167"/>
      <point x="34" y="119" type="curve" smooth="yes"/>
      <point x="34" y="23"/>
      <point x="126" y="0"/>
      <point x="205" y="0" type="curve" smooth="yes"/>
      <point x="724" y="0" type="line" smooth="yes"/>
      <point x="782" y="0"/>
      <point x="835" y="-31"/>
      <point x="893" y="-31" type="curve" smooth="yes"/>
      <point x="946" y="-31"/>
      <point x="974" y="-3"/>
      <point x="984" y="48" type="curve" smooth="yes"/>
      <point x="1043" y="360" type="line" smooth="yes"/>
      <point x="1052" y="410"/>
      <point x="998" y="454"/>
      <point x="950" y="454" type="curve" smooth="yes"/>
      <point x="890" y="454"/>
      <point x="873" y="415"/>
      <point x="846" y="370" type="curve" smooth="yes"/>
      <point x="729" y="175"/>
      <point x="638" y="174"/>
      <point x="426" y="174" type="curve"/>
      <point x="469" y="64" type="line"/>
      <point x="962" y="770" type="line" smooth="yes"/>
      <point x="993" y="814"/>
      <point x="1027" y="863"/>
    </contour>
  </outline>
</glyph>
<glyph name="brokenbar" format="2">
  <advance width="1024"/>
  <unicode hex="00A6"/>
  <outline>
    <contour>
      <point x="641" y="1375" type="curve" smooth="yes"/>
      <point x="641" y="1468"/>
      <point x="584" y="1515"/>
      <point x="494" y="1515" type="curve" smooth="yes"/>
      <point x="404" y="1515"/>
      <point x="347" y="1468"/>
      <point x="347" y="1375" type="curve" smooth="yes"/>
      <point x="347" y="1184"/>
      <point x="384" y="994"/>
      <point x="384" y="803" type="curve" smooth="yes"/>
      <point x="384" y="730"/>
      <point x="422" y="694"/>
      <point x="494" y="694" type="curve" smooth="yes"/>
      <point x="570" y="694"/>
      <point x="608" y="725"/>
      <point x="608" y="803" type="curve" smooth="yes"/>
      <point x="608" y="994"/>
      <point x="641" y="1184"/>
    </contour>
    <contour>
      <point x="348" y="-168" type="curve" smooth="yes"/>
      <point x="348" y="-260"/>
      <point x="404" y="-308"/>
      <point x="494" y="-308" type="curve" smooth="yes"/>
      <point x="584" y="-308"/>
      <point x="642" y="-261"/>
      <point x="642" y="-168" type="curve" smooth="yes"/>
      <point x="642" y="-84"/>
      <point x="634" y="0"/>
      <point x="625" y="84" type="curve" smooth="yes"/>
      <point x="614" y="190"/>
      <point x="606" y="297"/>
      <point x="606" y="404" type="curve" smooth="yes"/>
      <point x="606" y="476"/>
      <point x="567" y="513"/>
      <point x="496" y="513" type="curve" smooth="yes"/>
      <point x="419" y="513"/>
      <point x="382" y="483"/>
      <point x="382" y="404" type="curve" smooth="yes"/>
      <point x="382" y="213"/>
      <point x="348" y="23"/>
    </contour>
  </outline>
</glyph>
<glyph name="section" format="2">
  <advance width="1475"/>
  <unicode hex="00A7"/>
  <outline>
    <contour>
      <point x="797" y="189" type="line"/>
      <point x="1029" y="189"/>
      <point x="1323" y="298"/>
      <point x="1323" y="572" type="curve" smooth="yes"/>
      <point x="1323" y="852"/>
      <point x="1012" y="961"/>
      <point x="785" y="1006" type="curve" smooth="yes"/>
      <point x="721" y="1019"/>
      <point x="573" y="1042"/>
      <point x="573" y="1129" type="curve" smooth="yes"/>
      <point x="573" y="1203"/>
      <point x="696" y="1218"/>
      <point x="750" y="1218" type="curve" smooth="yes"/>
      <point x="929" y="1218"/>
      <point x="1058" y="1133"/>
      <point x="1164" y="994" type="curve" smooth="yes"/>
      <point x="1189" y="961"/>
      <point x="1202" y="940"/>
      <point x="1248" y="940" type="curve" smooth="yes"/>
      <point x="1301" y="940"/>
      <point x="1351" y="972"/>
      <point x="1351" y="1030" type="curve" smooth="yes"/>
      <point x="1351" y="1081"/>
      <point x="1274" y="1250"/>
      <point x="1250" y="1307" type="curve" smooth="yes"/>
      <point x="1227" y="1362"/>
      <point x="1211" y="1416"/>
      <point x="1139" y="1416" type="curve" smooth="yes"/>
      <point x="1089" y="1416"/>
      <point x="1057" y="1372"/>
      <point x="1013" y="1372" type="curve" smooth="yes"/>
      <point x="965" y="1372"/>
      <point x="918" y="1386"/>
      <point x="872" y="1396" type="curve" smooth="yes"/>
      <point x="815" y="1408"/>
      <point x="756" y="1411"/>
      <point x="698" y="1411" type="curve" smooth="yes"/>
      <point x="462" y="1411"/>
      <point x="192" y="1299"/>
      <point x="192" y="1025" type="curve" smooth="yes"/>
      <point x="192" y="726"/>
      <point x="530" y="616"/>
      <point x="771" y="568" type="curve" smooth="yes"/>
      <point x="843" y="554"/>
      <point x="989" y="532"/>
      <point x="989" y="435" type="curve" smooth="yes"/>
      <point x="989" y="337"/>
      <point x="874" y="313"/>
      <point x="797" y="313" type="curve"/>
    </contour>
    <contour>
      <point x="637" y="747" type="line"/>
      <point x="628" y="747" type="line" smooth="yes"/>
      <point x="402" y="747"/>
      <point x="146" y="644"/>
      <point x="146" y="381" type="curve" smooth="yes"/>
      <point x="146" y="156"/>
      <point x="324" y="50"/>
      <point x="513" y="-17" type="curve" smooth="yes"/>
      <point x="583" y="-42"/>
      <point x="655" y="-63"/>
      <point x="729" y="-76" type="curve" smooth="yes"/>
      <point x="784" y="-86"/>
      <point x="913" y="-99"/>
      <point x="913" y="-176" type="curve" smooth="yes"/>
      <point x="913" y="-255"/>
      <point x="778" y="-267"/>
      <point x="721" y="-267" type="curve" smooth="yes"/>
      <point x="565" y="-267"/>
      <point x="472" y="-227"/>
      <point x="368" y="-110" type="curve" smooth="yes"/>
      <point x="338" y="-76"/>
      <point x="317" y="-46"/>
      <point x="267" y="-46" type="curve" smooth="yes"/>
      <point x="221" y="-46"/>
      <point x="168" y="-73"/>
      <point x="168" y="-125" type="curve" smooth="yes"/>
      <point x="168" y="-179"/>
      <point x="229" y="-358"/>
      <point x="228" y="-362" type="curve"/>
      <point x="229" y="-364" type="line"/>
      <point x="249" y="-424"/>
      <point x="256" y="-462"/>
      <point x="330" y="-462" type="curve" smooth="yes"/>
      <point x="380" y="-462"/>
      <point x="425" y="-436"/>
      <point x="475" y="-436" type="curve" smooth="yes"/>
      <point x="512" y="-436"/>
      <point x="549" y="-443"/>
      <point x="585" y="-447" type="curve" smooth="yes"/>
      <point x="640" y="-453"/>
      <point x="695" y="-455"/>
      <point x="750" y="-455" type="curve" smooth="yes"/>
      <point x="985" y="-455"/>
      <point x="1279" y="-351"/>
      <point x="1279" y="-72" type="curve" smooth="yes"/>
      <point x="1279" y="211"/>
      <point x="966" y="315"/>
      <point x="738" y="362" type="curve" smooth="yes"/>
      <point x="664" y="377"/>
      <point x="488" y="407"/>
      <point x="488" y="507" type="curve" smooth="yes"/>
      <point x="488" y="593"/>
      <point x="588" y="619"/>
      <point x="657" y="618" type="curve"/>
    </contour>
  </outline>
</glyph>
<glyph name="paragraph" format="2">
  <advance width="1229"/>
  <unicode hex="00B6"/>
  <outline>
    <contour>
      <point x="858" y="385" type="line" smooth="yes"/>
      <point x="858" y="337"/>
      <point x="849" y="270"/>
      <point x="787" y="270" type="curve" smooth="yes"/>
      <point x="730" y="270"/>
      <point x="716" y="340"/>
      <point x="716" y="385" type="curve" smooth="yes"/>
      <point x="716" y="1000" type="line" smooth="yes"/>
      <point x="716" y="1045"/>
      <point x="729" y="1116"/>
      <point x="787" y="1116" type="curve" smooth="yes"/>
      <point x="849" y="1116"/>
      <point x="858" y="1048"/>
      <point x="858" y="1000" type="curve" smooth="yes"/>
    </contour>
    <contour>
      <point x="1134" y="0" type="line" smooth="yes"/>
      <point x="1200" y="0"/>
      <point x="1251" y="50"/>
      <point x="1251" y="116" type="curve" smooth="yes"/>
      <point x="1251" y="273"/>
      <point x="1117" y="187"/>
      <point x="1117" y="361" type="curve" smooth="yes"/>
      <point x="1117" y="1023" type="line" smooth="yes"/>
      <point x="1117" y="1160"/>
      <point x="1249" y="1145"/>
      <point x="1249" y="1279" type="curve" smooth="yes"/>
      <point x="1249" y="1339"/>
      <point x="1202" y="1384"/>
      <point x="1143" y="1384" type="curve" smooth="yes"/>
      <point x="321" y="1384" type="line" smooth="yes"/>
      <point x="80" y="1384"/>
      <point x="-48" y="1160"/>
      <point x="-48" y="942" type="curve" smooth="yes"/>
      <point x="-48" y="699"/>
      <point x="102" y="535"/>
      <point x="349" y="535" type="curve" smooth="yes"/>
      <point x="386" y="535"/>
      <point x="421" y="543"/>
      <point x="457" y="549" type="curve"/>
      <point x="457" y="339" type="line" smooth="yes"/>
      <point x="457" y="214"/>
      <point x="278" y="274"/>
      <point x="278" y="94" type="curve" smooth="yes"/>
      <point x="278" y="46"/>
      <point x="308" y="0"/>
      <point x="360" y="0" type="curve" smooth="yes"/>
    </contour>
  </outline>
</glyph>
<glyph name="guillemetright" format="2">
  <advance width="1094"/>
  <unicode hex="00BB"/>
  <outline>
    <contour>
      <point x="1078" y="492" type="curve" smooth="yes"/>
      <point x="1078" y="555"/>
      <point x="1035" y="606"/>
      <point x="995" y="650" type="curve" smooth="yes"/>
      <point x="905" y="749"/>
      <point x="805" y="834"/>
      <point x="708" y="926" type="curve" smooth="yes"/>
      <point x="683" y="950"/>
      <point x="648" y="982"/>
      <point x="611" y="982" type="curve" smooth="yes"/>
      <point x="580" y="982"/>
      <point x="558" y="957"/>
      <point x="558" y="927" type="curve" smooth="yes"/>
      <point x="558" y="906"/>
      <point x="567" y="873"/>
      <point x="579" y="856" type="curve"/>
      <point x="579" y="854" type="line"/>
      <point x="758" y="428" type="line"/>
      <point x="758" y="555" type="line"/>
      <point x="580" y="131" type="line"/>
      <point x="580" y="130" type="line"/>
      <point x="571" y="116"/>
      <point x="558" y="74"/>
      <point x="558" y="57" type="curve" smooth="yes"/>
      <point x="558" y="27"/>
      <point x="580" y="1"/>
      <point x="611" y="1" type="curve" smooth="yes"/>
      <point x="651" y="1"/>
      <point x="697" y="46"/>
      <point x="725" y="72" type="curve" smooth="yes"/>
      <point x="817" y="157"/>
      <point x="912" y="239"/>
      <point x="995" y="333" type="curve" smooth="yes"/>
      <point x="1034" y="377"/>
      <point x="1078" y="430"/>
    </contour>
    <contour>
      <point x="536" y="492" type="curve" smooth="yes"/>
      <point x="536" y="555"/>
      <point x="493" y="606"/>
      <point x="452" y="650" type="curve" smooth="yes"/>
      <point x="367" y="742"/>
      <point x="274" y="826"/>
      <point x="182" y="911" type="curve" smooth="yes"/>
      <point x="153" y="938"/>
      <point x="112" y="982"/>
      <point x="69" y="982" type="curve" smooth="yes"/>
      <point x="38" y="982"/>
      <point x="16" y="956"/>
      <point x="16" y="926" type="curve" smooth="yes"/>
      <point x="16" y="875"/>
      <point x="185" y="501"/>
      <point x="216" y="428" type="curve"/>
      <point x="216" y="555" type="line"/>
      <point x="182" y="477"/>
      <point x="16" y="111"/>
      <point x="16" y="57" type="curve" smooth="yes"/>
      <point x="16" y="27"/>
      <point x="38" y="1"/>
      <point x="69" y="1" type="curve" smooth="yes"/>
      <point x="142" y="1"/>
      <point x="394" y="269"/>
      <point x="452" y="333" type="curve" smooth="yes"/>
      <point x="493" y="378"/>
      <point x="536" y="428"/>
    </contour>
  </outline>
</glyph>
<glyph name="onequarter" format="2">
  <advance width="1914"/>
  <unicode hex="00BC"/>
  <outline>
    <contour>
      <point x="115" y="1289" type="curve" smooth="yes"/>
      <point x="115" y="1340"/>
      <point x="156" y="1364"/>
      <point x="203" y="1364" type="curve" smooth="yes"/>
      <point x="291" y="1364"/>
      <point x="358" y="1382"/>
      <point x="441" y="1409" type="curve" smooth="yes"/>
      <point x="467" y="1417"/>
      <point x="493" y="1425"/>
      <point x="520" y="1425" type="curve" smooth="yes"/>
      <point x="567" y="1425"/>
      <point x="599" y="1404"/>
      <point x="599" y="1354" type="curve" smooth="yes"/>
      <point x="599" y="846" type="line" smooth="yes"/>
      <point x="599" y="762"/>
      <point x="734" y="809"/>
      <point x="734" y="716" type="curve" smooth="yes"/>
      <point x="734" y="665"/>
      <point x="696" y="649"/>
      <point x="651" y="649" type="curve" smooth="yes"/>
      <point x="189" y="649" type="line" smooth="yes"/>
      <point x="144" y="649"/>
      <point x="105" y="665"/>
      <point x="105" y="716" type="curve" smooth="yes"/>
      <point x="105" y="780"/>
      <point x="179" y="785"/>
      <point x="225" y="799" type="curve" smooth="yes"/>
      <point x="250" y="807"/>
      <point x="254" y="822"/>
      <point x="254" y="846" type="curve" smooth="yes"/>
      <point x="254" y="1151" type="line" smooth="yes"/>
      <point x="254" y="1190"/>
      <point x="250" y="1216"/>
      <point x="204" y="1216" type="curve" smooth="yes"/>
      <point x="154" y="1216"/>
      <point x="115" y="1233"/>
    </contour>
    <contour>
      <point x="1608" y="530" type="curve" smooth="yes"/>
      <point x="1641" y="530"/>
      <point x="1655" y="509"/>
      <point x="1655" y="478" type="curve" smooth="yes"/>
      <point x="1658" y="199" type="line" smooth="yes"/>
      <point x="1659" y="122"/>
      <point x="1780" y="150"/>
      <point x="1780" y="68" type="curve" smooth="yes"/>
      <point x="1780" y="18"/>
      <point x="1739" y="2"/>
      <point x="1696" y="2" type="curve" smooth="yes"/>
      <point x="1274" y="2" type="line" smooth="yes"/>
      <point x="1231" y="2"/>
      <point x="1190" y="18"/>
      <point x="1190" y="68" type="curve" smooth="yes"/>
      <point x="1190" y="166"/>
      <point x="1330" y="105"/>
      <point x="1330" y="214" type="curve" smooth="yes"/>
      <point x="1330" y="232"/>
      <point x="1327" y="250"/>
      <point x="1327" y="268" type="curve" smooth="yes"/>
      <point x="1327" y="302"/>
      <point x="1333" y="334"/>
      <point x="1361" y="356" type="curve" smooth="yes"/>
      <point x="1535" y="496" type="line" smooth="yes"/>
      <point x="1557" y="514"/>
      <point x="1578" y="530"/>
    </contour>
    <contour>
      <point x="1210" y="544" type="curve" smooth="yes"/>
      <point x="1210" y="592"/>
      <point x="1162" y="630"/>
      <point x="1162" y="683" type="curve" smooth="yes"/>
      <point x="1162" y="794"/>
      <point x="1279" y="821"/>
      <point x="1368" y="821" type="curve" smooth="yes"/>
      <point x="1453" y="821"/>
      <point x="1549" y="791"/>
      <point x="1549" y="690" type="curve" smooth="yes"/>
      <point x="1549" y="614"/>
      <point x="1462" y="540"/>
      <point x="1405" y="499" type="curve" smooth="yes"/>
      <point x="1080" y="267" type="line"/>
      <point x="1053" y="316" type="line"/>
      <point x="1720" y="316" type="line" smooth="yes"/>
      <point x="1758" y="316"/>
      <point x="1797" y="304"/>
      <point x="1797" y="259" type="curve" smooth="yes"/>
      <point x="1797" y="208"/>
      <point x="1766" y="193"/>
      <point x="1720" y="193" type="curve" smooth="yes"/>
      <point x="1019" y="193" type="line" smooth="yes"/>
      <point x="973" y="193"/>
      <point x="938" y="219"/>
      <point x="938" y="267" type="curve" smooth="yes"/>
      <point x="938" y="302"/>
      <point x="967" y="341"/>
      <point x="996" y="358" type="curve" smooth="yes"/>
      <point x="1127" y="433" type="line" smooth="yes"/>
      <point x="1157" y="450"/>
      <point x="1210" y="508"/>
    </contour>
    <contour>
      <point x="962" y="737" type="curve" smooth="yes"/>
      <point x="927" y="737"/>
      <point x="890" y="767"/>
      <point x="890" y="804" type="curve" smooth="yes"/>
      <point x="890" y="849"/>
      <point x="946" y="972"/>
      <point x="964" y="1021" type="curve" smooth="yes"/>
      <point x="1005" y="1131"/>
      <point x="1074" y="1418"/>
      <point x="1223" y="1418" type="curve" smooth="yes"/>
      <point x="1302" y="1418"/>
      <point x="1396" y="1347"/>
      <point x="1396" y="1263" type="curve" smooth="yes"/>
      <point x="1396" y="1147"/>
      <point x="1256" y="1017"/>
      <point x="1180" y="939" type="curve" smooth="yes"/>
      <point x="1017" y="771" type="line" smooth="yes"/>
      <point x="1001" y="754"/>
      <point x="988" y="737"/>
    </contour>
    <contour>
      <point x="814" y="647" type="curve" smooth="yes"/>
      <point x="848" y="647"/>
      <point x="885" y="618"/>
      <point x="885" y="582" type="curve" smooth="yes"/>
      <point x="885" y="545"/>
      <point x="816" y="371"/>
      <point x="804" y="337" type="curve" smooth="yes"/>
      <point x="771" y="243"/>
      <point x="740" y="148"/>
      <point x="688" y="62" type="curve" smooth="yes"/>
      <point x="657" y="10"/>
      <point x="617" y="-35"/>
      <point x="552" y="-35" type="curve" smooth="yes"/>
      <point x="470" y="-35"/>
      <point x="379" y="33"/>
      <point x="379" y="120" type="curve" smooth="yes"/>
      <point x="379" y="246"/>
      <point x="548" y="395"/>
      <point x="630" y="480" type="curve" smooth="yes"/>
      <point x="671" y="522"/>
      <point x="711" y="565"/>
      <point x="751" y="607" type="curve" smooth="yes"/>
      <point x="769" y="625"/>
      <point x="786" y="647"/>
    </contour>
  </outline>
</glyph>
<glyph name="onehalf" format="2">
  <advance width="1914"/>
  <unicode hex="00BD"/>
  <outline>
    <contour>
      <point x="115" y="1289" type="curve" smooth="yes"/>
      <point x="115" y="1340"/>
      <point x="156" y="1364"/>
      <point x="203" y="1364" type="curve" smooth="yes"/>
      <point x="290" y="1364"/>
      <point x="355" y="1381"/>
      <point x="437" y="1409" type="curve" smooth="yes"/>
      <point x="463" y="1418"/>
      <point x="489" y="1425"/>
      <point x="516" y="1425" type="curve" smooth="yes"/>
      <point x="563" y="1425"/>
      <point x="594" y="1404"/>
      <point x="594" y="1354" type="curve" smooth="yes"/>
      <point x="594" y="846" type="line" smooth="yes"/>
      <point x="594" y="762"/>
      <point x="725" y="809"/>
      <point x="725" y="716" type="curve" smooth="yes"/>
      <point x="725" y="665"/>
      <point x="688" y="649"/>
      <point x="643" y="649" type="curve" smooth="yes"/>
      <point x="189" y="649" type="line" smooth="yes"/>
      <point x="144" y="649"/>
      <point x="105" y="665"/>
      <point x="105" y="716" type="curve" smooth="yes"/>
      <point x="105" y="815"/>
      <point x="250" y="756"/>
      <point x="250" y="846" type="curve" smooth="yes"/>
      <point x="250" y="1151" type="line" smooth="yes"/>
      <point x="250" y="1190"/>
      <point x="246" y="1216"/>
      <point x="200" y="1216" type="curve" smooth="yes"/>
      <point x="151" y="1216"/>
      <point x="115" y="1236"/>
    </contour>
    <contour>
      <point x="943" y="737" type="curve" smooth="yes"/>
      <point x="908" y="737"/>
      <point x="871" y="767"/>
      <point x="871" y="804" type="curve" smooth="yes"/>
      <point x="871" y="843"/>
      <point x="915" y="958"/>
      <point x="929" y="1000" type="curve" smooth="yes"/>
      <point x="967" y="1114"/>
      <point x="1040" y="1418"/>
      <point x="1192" y="1418" type="curve" smooth="yes"/>
      <point x="1272" y="1418"/>
      <point x="1366" y="1348"/>
      <point x="1366" y="1263" type="curve" smooth="yes"/>
      <point x="1366" y="1226"/>
      <point x="1352" y="1192"/>
      <point x="1334" y="1160" type="curve" smooth="yes"/>
      <point x="1279" y="1061"/>
      <point x="1200" y="983"/>
      <point x="1122" y="903" type="curve" smooth="yes"/>
      <point x="1082" y="862"/>
      <point x="1042" y="821"/>
      <point x="1004" y="778" type="curve" smooth="yes"/>
      <point x="988" y="760"/>
      <point x="969" y="737"/>
    </contour>
    <contour>
      <point x="798" y="647" type="curve" smooth="yes"/>
      <point x="832" y="647"/>
      <point x="869" y="618"/>
      <point x="869" y="582" type="curve" smooth="yes"/>
      <point x="869" y="557"/>
      <point x="827" y="440"/>
      <point x="817" y="411" type="curve" smooth="yes"/>
      <point x="777" y="293"/>
      <point x="702" y="-35"/>
      <point x="547" y="-35" type="curve" smooth="yes"/>
      <point x="465" y="-35"/>
      <point x="375" y="35"/>
      <point x="375" y="121" type="curve" smooth="yes"/>
      <point x="375" y="231"/>
      <point x="516" y="373"/>
      <point x="588" y="450" type="curve" smooth="yes"/>
      <point x="737" y="608" type="line" smooth="yes"/>
      <point x="755" y="627"/>
      <point x="769" y="647"/>
    </contour>
    <contour>
      <point x="1102" y="218" type="line"/>
      <point x="1265" y="289"/>
      <point x="1430" y="332"/>
      <point x="1430" y="546" type="curve" smooth="yes"/>
      <point x="1430" y="576" type="line" smooth="yes"/>
      <point x="1430" y="603"/>
      <point x="1430" y="691"/>
      <point x="1389" y="691" type="curve" smooth="yes"/>
      <point x="1344" y="691"/>
      <point x="1347" y="647"/>
      <point x="1347" y="615" type="curve" smooth="yes"/>
      <point x="1347" y="550" type="line" smooth="yes"/>
      <point x="1347" y="461"/>
      <point x="1272" y="423"/>
      <point x="1192" y="423" type="curve" smooth="yes"/>
      <point x="1104" y="423"/>
      <point x="1041" y="472"/>
      <point x="1041" y="564" type="curve" smooth="yes"/>
      <point x="1041" y="740"/>
      <point x="1268" y="783"/>
      <point x="1405" y="783" type="curve" smooth="yes"/>
      <point x="1561" y="783"/>
      <point x="1767" y="739"/>
      <point x="1767" y="544" type="curve" smooth="yes"/>
      <point x="1767" y="398"/>
      <point x="1594" y="330"/>
      <point x="1480" y="287" type="curve" smooth="yes"/>
      <point x="1183" y="176" type="line"/>
    </contour>
    <contour>
      <point x="1029" y="98" type="curve" smooth="yes"/>
      <point x="1029" y="247"/>
      <point x="1214" y="256"/>
      <point x="1323" y="256" type="curve" smooth="yes"/>
      <point x="1411" y="256"/>
      <point x="1497" y="233"/>
      <point x="1585" y="233" type="curve" smooth="yes"/>
      <point x="1676" y="233"/>
      <point x="1647" y="331"/>
      <point x="1727" y="331" type="curve" smooth="yes"/>
      <point x="1777" y="331"/>
      <point x="1797" y="293"/>
      <point x="1797" y="248" type="curve" smooth="yes"/>
      <point x="1797" y="242"/>
      <point x="1797" y="235"/>
      <point x="1796" y="229" type="curve"/>
      <point x="1779" y="88"/>
      <point x="1733" y="-39"/>
      <point x="1567" y="-39" type="curve" smooth="yes"/>
      <point x="1481" y="-39"/>
      <point x="1407" y="-14"/>
      <point x="1364" y="66" type="curve"/>
      <point x="1364" y="67" type="line"/>
      <point x="1360" y="76"/>
      <point x="1341" y="110"/>
      <point x="1330" y="110" type="curve" smooth="yes"/>
      <point x="1304" y="110"/>
      <point x="1307" y="76"/>
      <point x="1305" y="58" type="curve" smooth="yes"/>
      <point x="1294" y="-22"/>
      <point x="1239" y="-39"/>
      <point x="1168" y="-39" type="curve" smooth="yes"/>
      <point x="1082" y="-39"/>
      <point x="1029" y="11"/>
    </contour>
  </outline>
</glyph>
<glyph name="questiondown" format="2">
  <advance width="987"/>
  <unicode hex="00BF"/>
  <outline>
    <contour>
      <point x="739" y="431" type="curve" smooth="yes"/>
      <point x="739" y="342"/>
      <point x="643" y="297"/>
      <point x="582" y="250" type="curve" smooth="yes"/>
      <point x="527" y="208"/>
      <point x="526" y="72"/>
      <point x="526" y="8" type="curve" smooth="yes"/>
      <point x="526" y="-16"/>
      <point x="526" y="-139"/>
      <point x="559" y="-139" type="curve" smooth="yes"/>
      <point x="584" y="-139"/>
      <point x="580" y="-33"/>
      <point x="580" y="-12" type="curve" smooth="yes"/>
      <point x="580" y="147"/>
      <point x="631" y="271"/>
      <point x="811" y="271" type="curve" smooth="yes"/>
      <point x="947" y="271"/>
      <point x="1024" y="183"/>
      <point x="1024" y="50" type="curve" smooth="yes"/>
      <point x="1024" y="-204"/>
      <point x="760" y="-328"/>
      <point x="538" y="-328" type="curve" smooth="yes"/>
      <point x="270" y="-328"/>
      <point x="26" y="-261"/>
      <point x="26" y="56" type="curve" smooth="yes"/>
      <point x="26" y="287"/>
      <point x="139" y="359"/>
      <point x="346" y="413" type="curve" smooth="yes"/>
      <point x="350" y="414"/>
      <point x="353" y="415"/>
      <point x="357" y="415" type="curve" smooth="yes"/>
      <point x="392" y="415"/>
      <point x="414" y="483"/>
      <point x="438" y="495" type="curve"/>
      <point x="467" y="560"/>
      <point x="500" y="614"/>
      <point x="580" y="614" type="curve" smooth="yes"/>
      <point x="647" y="614"/>
      <point x="672" y="583"/>
      <point x="702" y="528" type="curve"/>
      <point x="702" y="527" type="line"/>
      <point x="704" y="525" type="line"/>
      <point x="704" y="524" type="line"/>
      <point x="724" y="507"/>
      <point x="739" y="457"/>
    </contour>
    <contour>
      <point x="584" y="1166" type="curve" smooth="yes"/>
      <point x="722" y="1166"/>
      <point x="817" y="1038"/>
      <point x="817" y="908" type="curve" smooth="yes"/>
      <point x="817" y="777"/>
      <point x="722" y="653"/>
      <point x="584" y="653" type="curve" smooth="yes"/>
      <point x="445" y="653"/>
      <point x="349" y="775"/>
      <point x="349" y="908" type="curve" smooth="yes"/>
      <point x="349" y="1039"/>
      <point x="446" y="1166"/>
    </contour>
  </outline>
</glyph>
<glyph name="Aacute" format="2">
  <advance width="1693"/>
  <unicode hex="00C1"/>
  <anchor x="869" y="0" name="bottom"/>
  <anchor x="1559" y="10" name="ogonek"/>
  <anchor x="869" y="1942" name="top"/>
  <outline>
    <contour>
      <point x="410" y="643" type="line"/>
      <point x="410" y="420" type="line"/>
      <point x="1073" y="420" type="line"/>
      <point x="1073" y="643" type="line"/>
    </contour>
    <contour>
      <point x="608" y="109" type="curve" smooth="yes"/>
      <point x="608" y="232"/>
      <point x="442" y="219"/>
      <point x="442" y="297" type="curve" smooth="yes"/>
      <point x="442" y="335"/>
      <point x="464" y="371"/>
      <point x="476" y="406" type="curve" smooth="yes"/>
      <point x="749" y="1186" type="line"/>
      <point x="719" y="1191" type="line"/>
      <point x="739" y="1131"/>
      <point x="1006" y="336"/>
      <point x="1010" y="331" type="curve"/>
      <point x="1010" y="330" type="line"/>
      <point x="1011" y="328" type="line"/>
      <point x="1011" y="328"/>
      <point x="1027" y="279"/>
      <point x="1027" y="264" type="curve" smooth="yes"/>
      <point x="1027" y="215"/>
      <point x="903" y="220"/>
      <point x="903" y="109" type="curve" smooth="yes"/>
      <point x="903" y="32"/>
      <point x="953" y="0"/>
      <point x="1025" y="0" type="curve" smooth="yes"/>
      <point x="1548" y="0" type="line" smooth="yes"/>
      <point x="1620" y="0"/>
      <point x="1670" y="32"/>
      <point x="1670" y="109" type="curve" smooth="yes"/>
      <point x="1670" y="185"/>
      <point x="1642" y="191"/>
      <point x="1589" y="232" type="curve" smooth="yes"/>
      <point x="1517" y="288"/>
      <point x="1517" y="361"/>
      <point x="1487" y="440" type="curve" smooth="yes"/>
      <point x="1262" y="1045" type="line" smooth="yes"/>
      <point x="1255" y="1065"/>
      <point x="1249" y="1090"/>
      <point x="1249" y="1111" type="curve" smooth="yes"/>
      <point x="1249" y="1173"/>
      <point x="1344" y="1170"/>
      <point x="1344" y="1275" type="curve" smooth="yes"/>
      <point x="1344" y="1352"/>
      <point x="1294" y="1384"/>
      <point x="1222" y="1384" type="curve" smooth="yes"/>
      <point x="494" y="1384" type="line" smooth="yes"/>
      <point x="423" y="1384"/>
      <point x="372" y="1351"/>
      <point x="372" y="1275" type="curve" smooth="yes"/>
      <point x="372" y="1161"/>
      <point x="478" y="1171"/>
      <point x="478" y="1109" type="curve" smooth="yes"/>
      <point x="478" y="1087"/>
      <point x="469" y="1060"/>
      <point x="462" y="1039" type="curve" smooth="yes"/>
      <point x="210" y="334" type="line" smooth="yes"/>
      <point x="189" y="276"/>
      <point x="179" y="260"/>
      <point x="131" y="220" type="curve" smooth="yes"/>
      <point x="90" y="187"/>
      <point x="63" y="166"/>
      <point x="63" y="109" type="curve" smooth="yes"/>
      <point x="63" y="32"/>
      <point x="113" y="0"/>
      <point x="185" y="0" type="curve" smooth="yes"/>
      <point x="486" y="0" type="line" smooth="yes"/>
      <point x="557" y="0"/>
      <point x="608" y="33"/>
    </contour>
    <contour>
      <point x="625" y="1529" type="curve" smooth="yes"/>
      <point x="625" y="1485"/>
      <point x="664" y="1464"/>
      <point x="703" y="1464" type="curve" smooth="yes"/>
      <point x="748" y="1464"/>
      <point x="836" y="1497"/>
      <point x="881" y="1513" type="curve" smooth="yes"/>
      <point x="992" y="1553"/>
      <point x="1123" y="1604"/>
      <point x="1123" y="1744" type="curve" smooth="yes"/>
      <point x="1123" y="1844"/>
      <point x="1041" y="1916"/>
      <point x="943" y="1916" type="curve" smooth="yes"/>
      <point x="836" y="1916"/>
      <point x="785" y="1822"/>
      <point x="735" y="1743" type="curve" smooth="yes"/>
      <point x="704" y="1694"/>
      <point x="625" y="1583"/>
    </contour>
  </outline>
</glyph>
<glyph name="Acircumflex" format="2">
  <advance width="1693"/>
  <unicode hex="00C2"/>
  <anchor x="869" y="0" name="bottom"/>
  <anchor x="1559" y="10" name="ogonek"/>
  <anchor x="869" y="1940" name="top"/>
  <outline>
    <contour>
      <point x="410" y="643" type="line"/>
      <point x="410" y="420" type="line"/>
      <point x="1073" y="420" type="line"/>
      <point x="1073" y="643" type="line"/>
    </contour>
    <contour>
      <point x="608" y="109" type="curve" smooth="yes"/>
      <point x="608" y="232"/>
      <point x="442" y="219"/>
      <point x="442" y="297" type="curve" smooth="yes"/>
      <point x="442" y="335"/>
      <point x="464" y="371"/>
      <point x="476" y="406" type="curve" smooth="yes"/>
      <point x="749" y="1186" type="line"/>
      <point x="719" y="1191" type="line"/>
      <point x="739" y="1131"/>
      <point x="1006" y="336"/>
      <point x="1010" y="331" type="curve"/>
      <point x="1010" y="330" type="line"/>
      <point x="1011" y="328" type="line"/>
      <point x="1011" y="328"/>
      <point x="1027" y="279"/>
      <point x="1027" y="264" type="curve" smooth="yes"/>
      <point x="1027" y="215"/>
      <point x="903" y="220"/>
      <point x="903" y="109" type="curve" smooth="yes"/>
      <point x="903" y="32"/>
      <point x="953" y="0"/>
      <point x="1025" y="0" type="curve" smooth="yes"/>
      <point x="1548" y="0" type="line" smooth="yes"/>
      <point x="1620" y="0"/>
      <point x="1670" y="32"/>
      <point x="1670" y="109" type="curve" smooth="yes"/>
      <point x="1670" y="185"/>
      <point x="1642" y="191"/>
      <point x="1589" y="232" type="curve" smooth="yes"/>
      <point x="1517" y="288"/>
      <point x="1517" y="361"/>
      <point x="1487" y="440" type="curve" smooth="yes"/>
      <point x="1262" y="1045" type="line" smooth="yes"/>
      <point x="1255" y="1065"/>
      <point x="1249" y="1090"/>
      <point x="1249" y="1111" type="curve" smooth="yes"/>
      <point x="1249" y="1173"/>
      <point x="1344" y="1170"/>
      <point x="1344" y="1275" type="curve" smooth="yes"/>
      <point x="1344" y="1352"/>
      <point x="1294" y="1384"/>
      <point x="1222" y="1384" type="curve" smooth="yes"/>
      <point x="494" y="1384" type="line" smooth="yes"/>
      <point x="423" y="1384"/>
      <point x="372" y="1351"/>
      <point x="372" y="1275" type="curve" smooth="yes"/>
      <point x="372" y="1161"/>
      <point x="478" y="1171"/>
      <point x="478" y="1109" type="curve" smooth="yes"/>
      <point x="478" y="1087"/>
      <point x="469" y="1060"/>
      <point x="462" y="1039" type="curve" smooth="yes"/>
      <point x="210" y="334" type="line" smooth="yes"/>
      <point x="189" y="276"/>
      <point x="179" y="260"/>
      <point x="131" y="220" type="curve" smooth="yes"/>
      <point x="90" y="187"/>
      <point x="63" y="166"/>
      <point x="63" y="109" type="curve" smooth="yes"/>
      <point x="63" y="32"/>
      <point x="113" y="0"/>
      <point x="185" y="0" type="curve" smooth="yes"/>
      <point x="486" y="0" type="line" smooth="yes"/>
      <point x="557" y="0"/>
      <point x="608" y="33"/>
    </contour>
    <contour>
      <point x="768" y="1693" type="line"/>
      <point x="1078" y="1502" type="line" smooth="yes"/>
      <point x="1104" y="1486"/>
      <point x="1133" y="1474"/>
      <point x="1164" y="1474" type="curve" smooth="yes"/>
      <point x="1207" y="1474"/>
      <point x="1242" y="1504"/>
      <point x="1242" y="1548" type="curve" smooth="yes"/>
      <point x="1242" y="1575"/>
      <point x="1228" y="1601"/>
      <point x="1210" y="1620" type="curve" smooth="yes"/>
      <point x="1048" y="1794" type="line" smooth="yes"/>
      <point x="996" y="1850"/>
      <point x="953" y="1903"/>
      <point x="870" y="1903" type="curve" smooth="yes"/>
      <point x="790" y="1903"/>
      <point x="742" y="1848"/>
      <point x="692" y="1794" type="curve" smooth="yes"/>
      <point x="530" y="1620" type="line" smooth="yes"/>
      <point x="512" y="1601"/>
      <point x="498" y="1575"/>
      <point x="498" y="1548" type="curve" smooth="yes"/>
      <point x="498" y="1503"/>
      <point x="534" y="1474"/>
      <point x="577" y="1474" type="curve" smooth="yes"/>
      <point x="608" y="1474"/>
      <point x="636" y="1486"/>
      <point x="662" y="1502" type="curve" smooth="yes"/>
      <point x="972" y="1693" type="line"/>
    </contour>
  </outline>
</glyph>
<glyph name="Adieresis" format="2">
  <advance width="1693"/>
  <unicode hex="00C4"/>
  <anchor x="869" y="0" name="bottom"/>
  <anchor x="1559" y="10" name="ogonek"/>
  <anchor x="869" y="1832" name="top"/>
  <outline>
    <contour>
      <point x="410" y="643" type="line"/>
      <point x="410" y="420" type="line"/>
      <point x="1073" y="420" type="line"/>
      <point x="1073" y="643" type="line"/>
    </contour>
    <contour>
      <point x="608" y="109" type="curve" smooth="yes"/>
      <point x="608" y="232"/>
      <point x="442" y="219"/>
      <point x="442" y="297" type="curve" smooth="yes"/>
      <point x="442" y="335"/>
      <point x="464" y="371"/>
      <point x="476" y="406" type="curve" smooth="yes"/>
      <point x="749" y="1186" type="line"/>
      <point x="719" y="1191" type="line"/>
      <point x="739" y="1131"/>
      <point x="1006" y="336"/>
      <point x="1010" y="331" type="curve"/>
      <point x="1010" y="330" type="line"/>
      <point x="1011" y="328" type="line"/>
      <point x="1011" y="328"/>
      <point x="1027" y="279"/>
      <point x="1027" y="264" type="curve" smooth="yes"/>
      <point x="1027" y="215"/>
      <point x="903" y="220"/>
      <point x="903" y="109" type="curve" smooth="yes"/>
      <point x="903" y="32"/>
      <point x="953" y="0"/>
      <point x="1025" y="0" type="curve" smooth="yes"/>
      <point x="1548" y="0" type="line" smooth="yes"/>
      <point x="1620" y="0"/>
      <point x="1670" y="32"/>
      <point x="1670" y="109" type="curve" smooth="yes"/>
      <point x="1670" y="185"/>
      <point x="1642" y="191"/>
      <point x="1589" y="232" type="curve" smooth="yes"/>
      <point x="1517" y="288"/>
      <point x="1517" y="361"/>
      <point x="1487" y="440" type="curve" smooth="yes"/>
      <point x="1262" y="1045" type="line" smooth="yes"/>
      <point x="1255" y="1065"/>
      <point x="1249" y="1090"/>
      <point x="1249" y="1111" type="curve" smooth="yes"/>
      <point x="1249" y="1173"/>
      <point x="1344" y="1170"/>
      <point x="1344" y="1275" type="curve" smooth="yes"/>
      <point x="1344" y="1352"/>
      <point x="1294" y="1384"/>
      <point x="1222" y="1384" type="curve" smooth="yes"/>
      <point x="494" y="1384" type="line" smooth="yes"/>
      <point x="423" y="1384"/>
      <point x="372" y="1351"/>
      <point x="372" y="1275" type="curve" smooth="yes"/>
      <point x="372" y="1161"/>
      <point x="478" y="1171"/>
      <point x="478" y="1109" type="curve" smooth="yes"/>
      <point x="478" y="1087"/>
      <point x="469" y="1060"/>
      <point x="462" y="1039" type="curve" smooth="yes"/>
      <point x="210" y="334" type="line" smooth="yes"/>
      <point x="189" y="276"/>
      <point x="179" y="260"/>
      <point x="131" y="220" type="curve" smooth="yes"/>
      <point x="90" y="187"/>
      <point x="63" y="166"/>
      <point x="63" y="109" type="curve" smooth="yes"/>
      <point x="63" y="32"/>
      <point x="113" y="0"/>
      <point x="185" y="0" type="curve" smooth="yes"/>
      <point x="486" y="0" type="line" smooth="yes"/>
      <point x="557" y="0"/>
      <point x="608" y="33"/>
    </contour>
    <contour>
      <point x="609" y="1453" type="curve" smooth="yes"/>
      <point x="729" y="1453"/>
      <point x="819" y="1514"/>
      <point x="819" y="1642" type="curve" smooth="yes"/>
      <point x="819" y="1770"/>
      <point x="730" y="1832"/>
      <point x="609" y="1832" type="curve" smooth="yes"/>
      <point x="489" y="1832"/>
      <point x="398" y="1770"/>
      <point x="398" y="1642" type="curve" smooth="yes"/>
      <point x="398" y="1513"/>
      <point x="488" y="1453"/>
    </contour>
    <contour>
      <point x="1127" y="1453" type="curve" smooth="yes"/>
      <point x="1248" y="1453"/>
      <point x="1340" y="1512"/>
      <point x="1340" y="1642" type="curve" smooth="yes"/>
      <point x="1340" y="1772"/>
      <point x="1249" y="1832"/>
      <point x="1127" y="1832" type="curve" smooth="yes"/>
      <point x="1007" y="1832"/>
      <point x="916" y="1770"/>
      <point x="916" y="1642" type="curve" smooth="yes"/>
      <point x="916" y="1513"/>
      <point x="1006" y="1453"/>
    </contour>
  </outline>
</glyph>
<glyph name="Aring" format="2">
  <advance width="1693"/>
  <unicode hex="00C5"/>
  <anchor x="869" y="0" name="bottom"/>
  <anchor x="1559" y="10" name="ogonek"/>
  <anchor x="869" y="1888" name="top"/>
  <outline>
    <contour>
      <point x="410" y="643" type="line"/>
      <point x="410" y="420" type="line"/>
      <point x="1073" y="420" type="line"/>
      <point x="1073" y="643" type="line"/>
    </contour>
    <contour>
      <point x="608" y="109" type="curve" smooth="yes"/>
      <point x="608" y="232"/>
      <point x="442" y="219"/>
      <point x="442" y="297" type="curve" smooth="yes"/>
      <point x="442" y="335"/>
      <point x="464" y="371"/>
      <point x="476" y="406" type="curve" smooth="yes"/>
      <point x="749" y="1186" type="line"/>
      <point x="719" y="1191" type="line"/>
      <point x="739" y="1131"/>
      <point x="1006" y="336"/>
      <point x="1010" y="331" type="curve"/>
      <point x="1010" y="330" type="line"/>
      <point x="1011" y="328" type="line"/>
      <point x="1011" y="328"/>
      <point x="1027" y="279"/>
      <point x="1027" y="264" type="curve" smooth="yes"/>
      <point x="1027" y="215"/>
      <point x="903" y="220"/>
      <point x="903" y="109" type="curve" smooth="yes"/>
      <point x="903" y="32"/>
      <point x="953" y="0"/>
      <point x="1025" y="0" type="curve" smooth="yes"/>
      <point x="1548" y="0" type="line" smooth="yes"/>
      <point x="1620" y="0"/>
      <point x="1670" y="32"/>
      <point x="1670" y="109" type="curve" smooth="yes"/>
      <point x="1670" y="185"/>
      <point x="1642" y="191"/>
      <point x="1589" y="232" type="curve" smooth="yes"/>
      <point x="1517" y="288"/>
      <point x="1517" y="361"/>
      <point x="1487" y="440" type="curve" smooth="yes"/>
      <point x="1262" y="1045" type="line" smooth="yes"/>
      <point x="1255" y="1065"/>
      <point x="1249" y="1090"/>
      <point x="1249" y="1111" type="curve" smooth="yes"/>
      <point x="1249" y="1173"/>
      <point x="1344" y="1170"/>
      <point x="1344" y="1275" type="curve" smooth="yes"/>
      <point x="1344" y="1352"/>
      <point x="1294" y="1384"/>
      <point x="1222" y="1384" type="curve" smooth="yes"/>
      <point x="494" y="1384" type="line" smooth="yes"/>
      <point x="423" y="1384"/>
      <point x="372" y="1351"/>
      <point x="372" y="1275" type="curve" smooth="yes"/>
      <point x="372" y="1161"/>
      <point x="478" y="1171"/>
      <point x="478" y="1109" type="curve" smooth="yes"/>
      <point x="478" y="1087"/>
      <point x="469" y="1060"/>
      <point x="462" y="1039" type="curve" smooth="yes"/>
      <point x="210" y="334" type="line" smooth="yes"/>
      <point x="189" y="276"/>
      <point x="179" y="260"/>
      <point x="131" y="220" type="curve" smooth="yes"/>
      <point x="90" y="187"/>
      <point x="63" y="166"/>
      <point x="63" y="109" type="curve" smooth="yes"/>
      <point x="63" y="32"/>
      <point x="113" y="0"/>
      <point x="185" y="0" type="curve" smooth="yes"/>
      <point x="486" y="0" type="line" smooth="yes"/>
      <point x="557" y="0"/>
      <point x="608" y="33"/>
    </contour>
    <contour>
      <point x="858" y="1455" type="curve" smooth="yes"/>
      <point x="982" y="1455"/>
      <point x="1128" y="1505"/>
      <point x="1128" y="1652" type="curve" smooth="yes"/>
      <point x="1128" y="1797"/>
      <point x="980" y="1847"/>
      <point x="858" y="1847" type="curve" smooth="yes"/>
      <point x="735" y="1847"/>
      <point x="590" y="1798"/>
      <point x="590" y="1652" type="curve" smooth="yes"/>
      <point x="590" y="1505"/>
      <point x="734" y="1455"/>
    </contour>
    <contour>
      <point x="860" y="1722" type="curve" smooth="yes"/>
      <point x="903" y="1722"/>
      <point x="934" y="1695"/>
      <point x="934" y="1651" type="curve" smooth="yes"/>
      <point x="934" y="1607"/>
      <point x="903" y="1580"/>
      <point x="860" y="1580" type="curve" smooth="yes"/>
      <point x="817" y="1580"/>
      <point x="785" y="1607"/>
      <point x="785" y="1651" type="curve" smooth="yes"/>
      <point x="785" y="1695"/>
      <point x="817" y="1722"/>
    </contour>
  </outline>
</glyph>
<glyph name="Egrave" format="2">
  <advance width="1415"/>
  <unicode hex="00C8"/>
  <anchor x="758" y="0" name="bottom"/>
  <anchor x="1360" y="10" name="ogonek"/>
  <anchor x="29" y="1384" name="topleft"/>
  <anchor x="758" y="1942" name="top"/>
  <outline>
    <contour>
      <point x="511" y="794" type="line"/>
      <point x="511" y="593" type="line"/>
      <point x="885" y="593" type="line" smooth="yes"/>
      <point x="970" y="593"/>
      <point x="991" y="591"/>
      <point x="1050" y="526" type="curve" smooth="yes"/>
      <point x="1077" y="497"/>
      <point x="1097" y="474"/>
      <point x="1140" y="474" type="curve" smooth="yes"/>
      <point x="1196" y="474"/>
      <point x="1245" y="512"/>
      <point x="1245" y="571" type="curve" smooth="yes"/>
      <point x="1245" y="586"/>
      <point x="1242" y="601"/>
      <point x="1238" y="616" type="curve" smooth="yes"/>
      <point x="1170" y="870" type="line" smooth="yes"/>
      <point x="1156" y="922"/>
      <point x="1126" y="954"/>
      <point x="1070" y="954" type="curve" smooth="yes"/>
      <point x="934" y="954"/>
      <point x="1011" y="794"/>
      <point x="864" y="794" type="curve" smooth="yes"/>
    </contour>
    <contour>
      <point x="93" y="1275" type="curve" smooth="yes"/>
      <point x="93" y="1131"/>
      <point x="252" y="1174"/>
      <point x="252" y="1057" type="curve" smooth="yes"/>
      <point x="252" y="327" type="line" smooth="yes"/>
      <point x="252" y="207"/>
      <point x="93" y="257"/>
      <point x="93" y="109" type="curve" smooth="yes"/>
      <point x="93" y="32"/>
      <point x="143" y="0"/>
      <point x="215" y="0" type="curve" smooth="yes"/>
      <point x="1003" y="0" type="line" smooth="yes"/>
      <point x="1047" y="0"/>
      <point x="1091" y="-6"/>
      <point x="1134" y="-17" type="curve" smooth="yes"/>
      <point x="1169" y="-26"/>
      <point x="1204" y="-35"/>
      <point x="1241" y="-35" type="curve" smooth="yes"/>
      <point x="1352" y="-35"/>
      <point x="1370" y="34"/>
      <point x="1402" y="123" type="curve" smooth="yes"/>
      <point x="1424" y="184"/>
      <point x="1472" y="303"/>
      <point x="1472" y="363" type="curve" smooth="yes"/>
      <point x="1472" y="431"/>
      <point x="1419" y="471"/>
      <point x="1354" y="471" type="curve" smooth="yes"/>
      <point x="1293" y="471"/>
      <point x="1274" y="440"/>
      <point x="1247" y="392" type="curve" smooth="yes"/>
      <point x="1169" y="253"/>
      <point x="1129" y="223"/>
      <point x="967" y="223" type="curve" smooth="yes"/>
      <point x="912" y="223" type="line" smooth="yes"/>
      <point x="804" y="223"/>
      <point x="744" y="282"/>
      <point x="744" y="390" type="curve" smooth="yes"/>
      <point x="744" y="1161" type="line"/>
      <point x="945" y="1161" type="line" smooth="yes"/>
      <point x="1247" y="1161"/>
      <point x="1149" y="928"/>
      <point x="1311" y="928" type="curve" smooth="yes"/>
      <point x="1365" y="928"/>
      <point x="1431" y="959"/>
      <point x="1431" y="1021" type="curve" smooth="yes"/>
      <point x="1431" y="1073"/>
      <point x="1379" y="1205"/>
      <point x="1359" y="1259" type="curve" smooth="yes"/>
      <point x="1325" y="1349"/>
      <point x="1311" y="1417"/>
      <point x="1198" y="1417" type="curve" smooth="yes"/>
      <point x="1118" y="1417"/>
      <point x="1041" y="1384"/>
      <point x="961" y="1384" type="curve" smooth="yes"/>
      <point x="215" y="1384" type="line" smooth="yes"/>
      <point x="143" y="1384"/>
      <point x="93" y="1352"/>
    </contour>
    <contour>
      <point x="694" y="1916" type="curve" smooth="yes"/>
      <point x="596" y="1916"/>
      <point x="514" y="1844"/>
      <point x="514" y="1744" type="curve" smooth="yes"/>
      <point x="514" y="1604"/>
      <point x="645" y="1553"/>
      <point x="756" y="1513" type="curve" smooth="yes"/>
      <point x="801" y="1497"/>
      <point x="889" y="1464"/>
      <point x="934" y="1464" type="curve" smooth="yes"/>
      <point x="973" y="1464"/>
      <point x="1012" y="1485"/>
      <point x="1012" y="1529" type="curve" smooth="yes"/>
      <point x="1012" y="1583"/>
      <point x="933" y="1694"/>
      <point x="902" y="1743" type="curve" smooth="yes"/>
      <point x="852" y="1822"/>
      <point x="801" y="1916"/>
    </contour>
  </outline>
</glyph>
<glyph name="Edieresis" format="2">
  <advance width="1415"/>
  <unicode hex="00CB"/>
  <anchor x="758" y="0" name="bottom"/>
  <anchor x="1360" y="10" name="ogonek"/>
  <anchor x="29" y="1384" name="topleft"/>
  <anchor x="758" y="1832" name="top"/>
  <outline>
    <contour>
      <point x="511" y="794" type="line"/>
      <point x="511" y="593" type="line"/>
      <point x="885" y="593" type="line" smooth="yes"/>
      <point x="970" y="593"/>
      <point x="991" y="591"/>
      <point x="1050" y="526" type="curve" smooth="yes"/>
      <point x="1077" y="497"/>
      <point x="1097" y="474"/>
      <point x="1140" y="474" type="curve" smooth="yes"/>
      <point x="1196" y="474"/>
      <point x="1245" y="512"/>
      <point x="1245" y="571" type="curve" smooth="yes"/>
      <point x="1245" y="586"/>
      <point x="1242" y="601"/>
      <point x="1238" y="616" type="curve" smooth="yes"/>
      <point x="1170" y="870" type="line" smooth="yes"/>
      <point x="1156" y="922"/>
      <point x="1126" y="954"/>
      <point x="1070" y="954" type="curve" smooth="yes"/>
      <point x="934" y="954"/>
      <point x="1011" y="794"/>
      <point x="864" y="794" type="curve" smooth="yes"/>
    </contour>
    <contour>
      <point x="93" y="1275" type="curve" smooth="yes"/>
      <point x="93" y="1131"/>
      <point x="252" y="1174"/>
      <point x="252" y="1057" type="curve" smooth="yes"/>
      <point x="252" y="327" type="line" smooth="yes"/>
      <point x="252" y="207"/>
      <point x="93" y="257"/>
      <point x="93" y="109" type="curve" smooth="yes"/>
      <point x="93" y="32"/>
      <point x="143" y="0"/>
      <point x="215" y="0" type="curve" smooth="yes"/>
      <point x="1003" y="0" type="line" smooth="yes"/>
      <point x="1047" y="0"/>
      <point x="1091" y="-6"/>
      <point x="1134" y="-17" type="curve" smooth="yes"/>
      <point x="1169" y="-26"/>
      <point x="1204" y="-35"/>
      <point x="1241" y="-35" type="curve" smooth="yes"/>
      <point x="1352" y="-35"/>
      <point x="1370" y="34"/>
      <point x="1402" y="123" type="curve" smooth="yes"/>
      <point x="1424" y="184"/>
      <point x="1472" y="303"/>
      <point x="1472" y="363" type="curve" smooth="yes"/>
      <point x="1472" y="431"/>
      <point x="1419" y="471"/>
      <point x="1354" y="471" type="curve" smooth="yes"/>
      <point x="1293" y="471"/>
      <point x="1274" y="440"/>
      <point x="1247" y="392" type="curve" smooth="yes"/>
      <point x="1169" y="253"/>
      <point x="1129" y="223"/>
      <point x="967" y="223" type="curve" smooth="yes"/>
      <point x="912" y="223" type="line" smooth="yes"/>
      <point x="804" y="223"/>
      <point x="744" y="282"/>
      <point x="744" y="390" type="curve" smooth="yes"/>
      <point x="744" y="1161" type="line"/>
      <point x="945" y="1161" type="line" smooth="yes"/>
      <point x="1247" y="1161"/>
      <point x="1149" y="928"/>
      <point x="1311" y="928" type="curve" smooth="yes"/>
      <point x="1365" y="928"/>
      <point x="1431" y="959"/>
      <point x="1431" y="1021" type="curve" smooth="yes"/>
      <point x="1431" y="1073"/>
      <point x="1379" y="1205"/>
      <point x="1359" y="1259" type="curve" smooth="yes"/>
      <point x="1325" y="1349"/>
      <point x="1311" y="1417"/>
      <point x="1198" y="1417" type="curve" smooth="yes"/>
      <point x="1118" y="1417"/>
      <point x="1041" y="1384"/>
      <point x="961" y="1384" type="curve" smooth="yes"/>
      <point x="215" y="1384" type="line" smooth="yes"/>
      <point x="143" y="1384"/>
      <point x="93" y="1352"/>
    </contour>
    <contour>
      <point x="498" y="1453" type="curve" smooth="yes"/>
      <point x="618" y="1453"/>
      <point x="708" y="1514"/>
      <point x="708" y="1642" type="curve" smooth="yes"/>
      <point x="708" y="1770"/>
      <point x="619" y="1832"/>
      <point x="498" y="1832" type="curve" smooth="yes"/>
      <point x="378" y="1832"/>
      <point x="287" y="1770"/>
      <point x="287" y="1642" type="curve" smooth="yes"/>
      <point x="287" y="1513"/>
      <point x="377" y="1453"/>
    </contour>
    <contour>
      <point x="1016" y="1453" type="curve" smooth="yes"/>
      <point x="1137" y="1453"/>
      <point x="1229" y="1512"/>
      <point x="1229" y="1642" type="curve" smooth="yes"/>
      <point x="1229" y="1772"/>
      <point x="1138" y="1832"/>
      <point x="1016" y="1832" type="curve" smooth="yes"/>
      <point x="896" y="1832"/>
      <point x="805" y="1770"/>
      <point x="805" y="1642" type="curve" smooth="yes"/>
      <point x="805" y="1513"/>
      <point x="895" y="1453"/>
    </contour>
  </outline>
</glyph>
<glyph name="Igrave" format="2">
  <advance width="847"/>
  <unicode hex="00CC"/>
  <anchor x="498" y="0" name="bottom"/>
  <anchor x="891" y="10" name="ogonek"/>
  <anchor x="29" y="1384" name="topleft"/>
  <anchor x="498" y="1942" name="top"/>
  <outline>
    <contour>
      <point x="744" y="1057" type="line" smooth="yes"/>
      <point x="744" y="1177"/>
      <point x="903" y="1127"/>
      <point x="903" y="1275" type="curve" smooth="yes"/>
      <point x="903" y="1352"/>
      <point x="853" y="1384"/>
      <point x="781" y="1384" type="curve" smooth="yes"/>
      <point x="215" y="1384" type="line" smooth="yes"/>
      <point x="143" y="1384"/>
      <point x="93" y="1352"/>
      <point x="93" y="1275" type="curve" smooth="yes"/>
      <point x="93" y="1129"/>
      <point x="252" y="1175"/>
      <point x="252" y="1057" type="curve" smooth="yes"/>
      <point x="252" y="327" type="line" smooth="yes"/>
      <point x="252" y="207"/>
      <point x="93" y="257"/>
      <point x="93" y="109" type="curve" smooth="yes"/>
      <point x="93" y="32"/>
      <point x="143" y="0"/>
      <point x="215" y="0" type="curve" smooth="yes"/>
      <point x="781" y="0" type="line" smooth="yes"/>
      <point x="853" y="0"/>
      <point x="903" y="32"/>
      <point x="903" y="109" type="curve" smooth="yes"/>
      <point x="903" y="258"/>
      <point x="744" y="206"/>
      <point x="744" y="327" type="curve" smooth="yes"/>
    </contour>
    <contour>
      <point x="434" y="1916" type="curve" smooth="yes"/>
      <point x="336" y="1916"/>
      <point x="254" y="1844"/>
      <point x="254" y="1744" type="curve" smooth="yes"/>
      <point x="254" y="1604"/>
      <point x="385" y="1553"/>
      <point x="496" y="1513" type="curve" smooth="yes"/>
      <point x="541" y="1497"/>
      <point x="629" y="1464"/>
      <point x="674" y="1464" type="curve" smooth="yes"/>
      <point x="713" y="1464"/>
      <point x="752" y="1485"/>
      <point x="752" y="1529" type="curve" smooth="yes"/>
      <point x="752" y="1583"/>
      <point x="673" y="1694"/>
      <point x="642" y="1743" type="curve" smooth="yes"/>
      <point x="592" y="1822"/>
      <point x="541" y="1916"/>
    </contour>
  </outline>
</glyph>
<glyph name="Icircumflex" format="2">
  <advance width="847"/>
  <unicode hex="00CE"/>
  <anchor x="498" y="0" name="bottom"/>
  <anchor x="891" y="10" name="ogonek"/>
  <anchor x="29" y="1384" name="topleft"/>
  <anchor x="498" y="1940" name="top"/>
  <outline>
    <contour>
      <point x="744" y="1057" type="line" smooth="yes"/>
      <point x="744" y="1177"/>
      <point x="903" y="1127"/>
      <point x="903" y="1275" type="curve" smooth="yes"/>
      <point x="903" y="1352"/>
      <point x="853" y="1384"/>
      <point x="781" y="1384" type="curve" smooth="yes"/>
      <point x="215" y="1384" type="line" smooth="yes"/>
      <point x="143" y="1384"/>
      <point x="93" y="1352"/>
      <point x="93" y="1275" type="curve" smooth="yes"/>
      <point x="93" y="1129"/>
      <point x="252" y="1175"/>
      <point x="252" y="1057" type="curve" smooth="yes"/>
      <point x="252" y="327" type="line" smooth="yes"/>
      <point x="252" y="207"/>
      <point x="93" y="257"/>
      <point x="93" y="109" type="curve" smooth="yes"/>
      <point x="93" y="32"/>
      <point x="143" y="0"/>
      <point x="215" y="0" type="curve" smooth="yes"/>
      <point x="781" y="0" type="line" smooth="yes"/>
      <point x="853" y="0"/>
      <point x="903" y="32"/>
      <point x="903" y="109" type="curve" smooth="yes"/>
      <point x="903" y="258"/>
      <point x="744" y="206"/>
      <point x="744" y="327" type="curve" smooth="yes"/>
    </contour>
    <contour>
      <point x="397" y="1693" type="line"/>
      <point x="707" y="1502" type="line" smooth="yes"/>
      <point x="733" y="1486"/>
      <point x="762" y="1474"/>
      <point x="793" y="1474" type="curve" smooth="yes"/>
      <point x="836" y="1474"/>
      <point x="871" y="1504"/>
      <point x="871" y="1548" type="curve" smooth="yes"/>
      <point x="871" y="1575"/>
      <point x="857" y="1601"/>
      <point x="839" y="1620" type="curve" smooth="yes"/>
      <point x="677" y="1794" type="line" smooth="yes"/>
      <point x="625" y="1850"/>
      <point x="582" y="1903"/>
      <point x="499" y="1903" type="curve" smooth="yes"/>
      <point x="419" y="1903"/>
      <point x="371" y="1848"/>
      <point x="321" y="1794" type="curve" smooth="yes"/>
      <point x="159" y="1620" type="line" smooth="yes"/>
      <point x="141" y="1601"/>
      <point x="127" y="1575"/>
      <point x="127" y="1548" type="curve" smooth="yes"/>
      <point x="127" y="1503"/>
      <point x="163" y="1474"/>
      <point x="206" y="1474" type="curve" smooth="yes"/>
      <point x="237" y="1474"/>
      <point x="265" y="1486"/>
      <point x="291" y="1502" type="curve" smooth="yes"/>
      <point x="601" y="1693" type="line"/>
    </contour>
  </outline>
</glyph>
<glyph name="Idieresis" format="2">
  <advance width="847"/>
  <unicode hex="00CF"/>
  <anchor x="498" y="0" name="bottom"/>
  <anchor x="891" y="10" name="ogonek"/>
  <anchor x="29" y="1384" name="topleft"/>
  <anchor x="498" y="1832" name="top"/>
  <outline>
    <contour>
      <point x="744" y="1057" type="line" smooth="yes"/>
      <point x="744" y="1177"/>
      <point x="903" y="1127"/>
      <point x="903" y="1275" type="curve" smooth="yes"/>
      <point x="903" y="1352"/>
      <point x="853" y="1384"/>
      <point x="781" y="1384" type="curve" smooth="yes"/>
      <point x="215" y="1384" type="line" smooth="yes"/>
      <point x="143" y="1384"/>
      <point x="93" y="1352"/>
      <point x="93" y="1275" type="curve" smooth="yes"/>
      <point x="93" y="1129"/>
      <point x="252" y="1175"/>
      <point x="252" y="1057" type="curve" smooth="yes"/>
      <point x="252" y="327" type="line" smooth="yes"/>
      <point x="252" y="207"/>
      <point x="93" y="257"/>
      <point x="93" y="109" type="curve" smooth="yes"/>
      <point x="93" y="32"/>
      <point x="143" y="0"/>
      <point x="215" y="0" type="curve" smooth="yes"/>
      <point x="781" y="0" type="line" smooth="yes"/>
      <point x="853" y="0"/>
      <point x="903" y="32"/>
      <point x="903" y="109" type="curve" smooth="yes"/>
      <point x="903" y="258"/>
      <point x="744" y="206"/>
      <point x="744" y="327" type="curve" smooth="yes"/>
    </contour>
    <contour>
      <point x="238" y="1453" type="curve" smooth="yes"/>
      <point x="358" y="1453"/>
      <point x="448" y="1514"/>
      <point x="448" y="1642" type="curve" smooth="yes"/>
      <point x="448" y="1770"/>
      <point x="359" y="1832"/>
      <point x="238" y="1832" type="curve" smooth="yes"/>
      <point x="118" y="1832"/>
      <point x="27" y="1770"/>
      <point x="27" y="1642" type="curve" smooth="yes"/>
      <point x="27" y="1513"/>
      <point x="117" y="1453"/>
    </contour>
    <contour>
      <point x="756" y="1453" type="curve" smooth="yes"/>
      <point x="877" y="1453"/>
      <point x="969" y="1512"/>
      <point x="969" y="1642" type="curve" smooth="yes"/>
      <point x="969" y="1772"/>
      <point x="878" y="1832"/>
      <point x="756" y="1832" type="curve" smooth="yes"/>
      <point x="636" y="1832"/>
      <point x="545" y="1770"/>
      <point x="545" y="1642" type="curve" smooth="yes"/>
      <point x="545" y="1513"/>
      <point x="635" y="1453"/>
    </contour>
  </outline>
</glyph>
<glyph name="Oacute" format="2">
  <advance width="1594"/>
  <unicode hex="00D3"/>
  <anchor x="862" y="0" name="bottom"/>
  <anchor x="862" y="692" name="center"/>
  <anchor x="1545" y="10" name="ogonek"/>
  <anchor x="28" y="1384" name="topleft"/>
  <anchor x="1695" y="1384" name="topright"/>
  <anchor x="862" y="1942" name="top"/>
  <outline>
    <contour>
      <point x="862" y="1425" type="curve" smooth="yes"/>
      <point x="431" y="1425"/>
      <point x="70" y="1156"/>
      <point x="70" y="702" type="curve" smooth="yes"/>
      <point x="70" y="227"/>
      <point x="405" y="-40"/>
      <point x="862" y="-40" type="curve" smooth="yes"/>
      <point x="1313" y="-40"/>
      <point x="1652" y="241"/>
      <point x="1652" y="707" type="curve" smooth="yes"/>
      <point x="1652" y="1164"/>
      <point x="1295" y="1425"/>
    </contour>
    <contour>
      <point x="1146" y="414" type="curve" smooth="yes"/>
      <point x="1146" y="296"/>
      <point x="1124" y="175"/>
      <point x="979" y="175" type="curve" smooth="yes"/>
      <point x="799" y="175"/>
      <point x="660" y="519"/>
      <point x="622" y="664" type="curve" smooth="yes"/>
      <point x="596" y="764"/>
      <point x="581" y="867"/>
      <point x="581" y="971" type="curve" smooth="yes"/>
      <point x="581" y="1085"/>
      <point x="605" y="1214"/>
      <point x="747" y="1214" type="curve" smooth="yes"/>
      <point x="938" y="1214"/>
      <point x="1073" y="859"/>
      <point x="1110" y="705" type="curve" smooth="yes"/>
      <point x="1133" y="610"/>
      <point x="1146" y="512"/>
    </contour>
    <contour>
      <point x="618" y="1529" type="curve" smooth="yes"/>
      <point x="618" y="1485"/>
      <point x="657" y="1464"/>
      <point x="696" y="1464" type="curve" smooth="yes"/>
      <point x="741" y="1464"/>
      <point x="829" y="1497"/>
      <point x="874" y="1513" type="curve" smooth="yes"/>
      <point x="985" y="1553"/>
      <point x="1116" y="1604"/>
      <point x="1116" y="1744" type="curve" smooth="yes"/>
      <point x="1116" y="1844"/>
      <point x="1034" y="1916"/>
      <point x="936" y="1916" type="curve" smooth="yes"/>
      <point x="829" y="1916"/>
      <point x="778" y="1822"/>
      <point x="728" y="1743" type="curve" smooth="yes"/>
      <point x="697" y="1694"/>
      <point x="618" y="1583"/>
    </contour>
  </outline>
</glyph>
<glyph name="Odieresis" format="2">
  <advance width="1594"/>
  <unicode hex="00D6"/>
  <anchor x="862" y="0" name="bottom"/>
  <anchor x="862" y="692" name="center"/>
  <anchor x="1545" y="10" name="ogonek"/>
  <anchor x="28" y="1384" name="topleft"/>
  <anchor x="1695" y="1384" name="topright"/>
  <anchor x="862" y="1832" name="top"/>
  <outline>
    <contour>
      <point x="862" y="1425" type="curve" smooth="yes"/>
      <point x="431" y="1425"/>
      <point x="70" y="1156"/>
      <point x="70" y="702" type="curve" smooth="yes"/>
      <point x="70" y="227"/>
      <point x="405" y="-40"/>
      <point x="862" y="-40" type="curve" smooth="yes"/>
      <point x="1313" y="-40"/>
      <point x="1652" y="241"/>
      <point x="1652" y="707" type="curve" smooth="yes"/>
      <point x="1652" y="1164"/>
      <point x="1295" y="1425"/>
    </contour>
    <contour>
      <point x="1146" y="414" type="curve" smooth="yes"/>
      <point x="1146" y="296"/>
      <point x="1124" y="175"/>
      <point x="979" y="175" type="curve" smooth="yes"/>
      <point x="799" y="175"/>
      <point x="660" y="519"/>
      <point x="622" y="664" type="curve" smooth="yes"/>
      <point x="596" y="764"/>
      <point x="581" y="867"/>
      <point x="581" y="971" type="curve" smooth="yes"/>
      <point x="581" y="1085"/>
      <point x="605" y="1214"/>
      <point x="747" y="1214" type="curve" smooth="yes"/>
      <point x="938" y="1214"/>
      <point x="1073" y="859"/>
      <point x="1110" y="705" type="curve" smooth="yes"/>
      <point x="1133" y="610"/>
      <point x="1146" y="512"/>
    </contour>
    <contour>
      <point x="602" y="1453" type="curve" smooth="yes"/>
      <point x="722" y="1453"/>
      <point x="812" y="1514"/>
      <point x="812" y="1642" type="curve" smooth="yes"/>
      <point x="812" y="1770"/>
      <point x="723" y="1832"/>
      <point x="602" y="1832" type="curve" smooth="yes"/>
      <point x="482" y="1832"/>
      <point x="391" y="1770"/>
      <point x="391" y="1642" type="curve" smooth="yes"/>
      <point x="391" y="1513"/>
      <point x="481" y="1453"/>
    </contour>
    <contour>
      <point x="1120" y="1453" type="curve" smooth="yes"/>
      <point x="1241" y="1453"/>
      <point x="1333" y="1512"/>
      <point x="1333" y="1642" type="curve" smooth="yes"/>
      <point x="1333" y="1772"/>
      <point x="1242" y="1832"/>
      <point x="1120" y="1832" type="curve" smooth="yes"/>
      <point x="1000" y="1832"/>
      <point x="909" y="1770"/>
      <point x="909" y="1642" type="curve" smooth="yes"/>
      <point x="909" y="1513"/>
      <point x="999" y="1453"/>
    </contour>
  </outline>
</glyph>
<glyph name="Yacute" format="2">
  <advance width="1597"/>
  <unicode hex="00DD"/>
  <anchor x="785" y="0" name="bottom"/>
  <anchor x="25" y="1384" name="topleft"/>
  <anchor x="785" y="1942" name="top"/>
  <outline>
    <contour>
      <point x="992" y="391" type="line"/>
      <point x="1369" y="1043" type="line" smooth="yes"/>
      <point x="1396" y="1090"/>
      <point x="1421" y="1125"/>
      <point x="1464" y="1160" type="curve" smooth="yes"/>
      <point x="1508" y="1195"/>
      <point x="1535" y="1214"/>
      <point x="1535" y="1275" type="curve" smooth="yes"/>
      <point x="1535" y="1352"/>
      <point x="1485" y="1384"/>
      <point x="1413" y="1384" type="curve" smooth="yes"/>
      <point x="1142" y="1384" type="line" smooth="yes"/>
      <point x="1070" y="1384"/>
      <point x="1020" y="1352"/>
      <point x="1020" y="1275" type="curve" smooth="yes"/>
      <point x="1020" y="1151"/>
      <point x="1144" y="1166"/>
      <point x="1144" y="1103" type="curve" smooth="yes"/>
      <point x="1144" y="1085"/>
      <point x="1135" y="1069"/>
      <point x="1127" y="1054" type="curve" smooth="yes"/>
      <point x="794" y="455" type="line"/>
      <point x="988" y="561" type="line"/>
      <point x="735" y="1012" type="line" smooth="yes"/>
      <point x="723" y="1034"/>
      <point x="704" y="1070"/>
      <point x="704" y="1095" type="curve" smooth="yes"/>
      <point x="704" y="1165"/>
      <point x="841" y="1144"/>
      <point x="841" y="1275" type="curve" smooth="yes"/>
      <point x="841" y="1352"/>
      <point x="791" y="1384"/>
      <point x="719" y="1384" type="curve" smooth="yes"/>
      <point x="157" y="1384" type="line" smooth="yes"/>
      <point x="86" y="1384"/>
      <point x="35" y="1351"/>
      <point x="35" y="1275" type="curve" smooth="yes"/>
      <point x="35" y="1200"/>
      <point x="68" y="1187"/>
      <point x="124" y="1150" type="curve" smooth="yes"/>
      <point x="162" y="1125"/>
      <point x="171" y="1105"/>
      <point x="193" y="1068" type="curve" smooth="yes"/>
      <point x="625" y="332" type="line"/>
    </contour>
    <contour>
      <point x="548" y="527" type="line"/>
      <point x="548" y="327" type="line" smooth="yes"/>
      <point x="548" y="215"/>
      <point x="388" y="250"/>
      <point x="388" y="109" type="curve" smooth="yes"/>
      <point x="388" y="33"/>
      <point x="439" y="0"/>
      <point x="510" y="0" type="curve" smooth="yes"/>
      <point x="1077" y="0" type="line" smooth="yes"/>
      <point x="1149" y="0"/>
      <point x="1199" y="32"/>
      <point x="1199" y="109" type="curve" smooth="yes"/>
      <point x="1199" y="251"/>
      <point x="1040" y="216"/>
      <point x="1040" y="327" type="curve" smooth="yes"/>
      <point x="1040" y="527" type="line"/>
    </contour>
    <contour>
      <point x="541" y="1529" type="curve" smooth="yes"/>
      <point x="541" y="1485"/>
      <point x="580" y="1464"/>
      <point x="619" y="1464" type="curve" smooth="yes"/>
      <point x="664" y="1464"/>
      <point x="752" y="1497"/>
      <point x="797" y="1513" type="curve" smooth="yes"/>
      <point x="908" y="1553"/>
      <point x="1039" y="1604"/>
      <point x="1039" y="1744" type="curve" smooth="yes"/>
      <point x="1039" y="1844"/>
      <point x="957" y="1916"/>
      <point x="859" y="1916" type="curve" smooth="yes"/>
      <point x="752" y="1916"/>
      <point x="701" y="1822"/>
      <point x="651" y="1743" type="curve" smooth="yes"/>
      <point x="620" y="1694"/>
      <point x="541" y="1583"/>
    </contour>
  </outline>
</glyph>
<glyph name="germandbls" format="2">
  <advance width="1322"/>
  <unicode hex="00DF"/>
  <anchor x="840" y="0" name="bottom"/>
  <anchor x="840" y="2079" name="top"/>
  <outline>
    <contour>
      <point x="1635" y="390" type="curve" smooth="yes"/>
      <point x="1635" y="165"/>
      <point x="1501" y="-31"/>
      <point x="1261" y="-31" type="curve" smooth="yes"/>
      <point x="1201" y="-31"/>
      <point x="1144" y="-19"/>
      <point x="1089" y="4" type="curve" smooth="yes"/>
      <point x="1071" y="11"/>
      <point x="1053" y="22"/>
      <point x="1033" y="22" type="curve" smooth="yes"/>
      <point x="1006" y="22"/>
      <point x="980" y="10"/>
      <point x="956" y="-2" type="curve"/>
      <point x="954" y="-2" type="line"/>
      <point x="926" y="-17"/>
      <point x="895" y="-31"/>
      <point x="862" y="-31" type="curve" smooth="yes"/>
      <point x="797" y="-31"/>
      <point x="762" y="25"/>
      <point x="762" y="85" type="curve" smooth="yes"/>
      <point x="762" y="325" type="line" smooth="yes"/>
      <point x="762" y="378"/>
      <point x="789" y="434"/>
      <point x="849" y="434" type="curve" smooth="yes"/>
      <point x="996" y="434"/>
      <point x="966" y="187"/>
      <point x="1121" y="187" type="curve" smooth="yes"/>
      <point x="1192" y="187"/>
      <point x="1211" y="248"/>
      <point x="1211" y="308" type="curve" smooth="yes"/>
      <point x="1211" y="496"/>
      <point x="1072" y="594"/>
      <point x="912" y="654" type="curve" smooth="yes"/>
      <point x="847" y="678"/>
      <point x="791" y="694"/>
      <point x="791" y="776" type="curve" smooth="yes"/>
      <point x="791" y="850"/>
      <point x="841" y="876"/>
      <point x="898" y="908" type="curve" smooth="yes"/>
      <point x="1014" y="974"/>
      <point x="1105" y="1040"/>
      <point x="1105" y="1186" type="curve" smooth="yes"/>
      <point x="1105" y="1292"/>
      <point x="1026" y="1350"/>
      <point x="925" y="1350" type="curve" smooth="yes"/>
      <point x="713" y="1350"/>
      <point x="669" y="1130"/>
      <point x="669" y="961" type="curve" smooth="yes"/>
      <point x="669" y="141" type="line" smooth="yes"/>
      <point x="669" y="59"/>
      <point x="635" y="0"/>
      <point x="546" y="0" type="curve" smooth="yes"/>
      <point x="173" y="0" type="line" smooth="yes"/>
      <point x="119" y="0"/>
      <point x="66" y="25"/>
      <point x="66" y="86" type="curve" smooth="yes"/>
      <point x="66" y="227"/>
      <point x="226" y="146"/>
      <point x="226" y="297" type="curve" smooth="yes"/>
      <point x="226" y="676" type="line" smooth="yes"/>
      <point x="226" y="733"/>
      <point x="204" y="744"/>
      <point x="157" y="766" type="curve" smooth="yes"/>
      <point x="103" y="792"/>
      <point x="37" y="811"/>
      <point x="37" y="884" type="curve" smooth="yes"/>
      <point x="37" y="944"/>
      <point x="87" y="970"/>
      <point x="141" y="970" type="curve" smooth="yes"/>
      <point x="263" y="970" type="line"/>
      <point x="234" y="869" type="line"/>
      <point x="234" y="922" type="line" smooth="yes"/>
      <point x="234" y="1368"/>
      <point x="571" y="1535"/>
      <point x="971" y="1535" type="curve" smooth="yes"/>
      <point x="1191" y="1535"/>
      <point x="1529" y="1470"/>
      <point x="1529" y="1189" type="curve" smooth="yes"/>
      <point x="1529" y="941"/>
      <point x="1285" y="830"/>
      <point x="1074" y="795" type="curve"/>
      <point x="1100" y="842" type="line"/>
      <point x="1386" y="842"/>
      <point x="1635" y="705"/>
    </contour>
  </outline>
</glyph>
<glyph name="agrave" format="2">
  <advance width="1161"/>
  <unicode hex="00E0"/>
  <anchor x="645" y="0" name="bottom"/>
  <anchor x="1156" y="11" name="ogonek"/>
  <anchor x="645" y="1582" name="top"/>
  <outline>
    <contour>
      <point x="1001" y="-29" type="curve" smooth="yes"/>
      <point x="1128" y="-29"/>
      <point x="1283" y="52"/>
      <point x="1283" y="195" type="curve" smooth="yes"/>
      <point x="1283" y="231"/>
      <point x="1263" y="262"/>
      <point x="1224" y="262" type="curve" smooth="yes"/>
      <point x="1201" y="262"/>
      <point x="1187" y="243"/>
      <point x="1164" y="243" type="curve" smooth="yes"/>
      <point x="1137" y="243"/>
      <point x="1124" y="261"/>
      <point x="1124" y="286" type="curve" smooth="yes"/>
      <point x="1124" y="747" type="line" smooth="yes"/>
      <point x="1124" y="985"/>
      <point x="926" y="1054"/>
      <point x="722" y="1054" type="curve" smooth="yes"/>
      <point x="535" y="1054"/>
      <point x="285" y="1020"/>
      <point x="154" y="873" type="curve" smooth="yes"/>
      <point x="124" y="839"/>
      <point x="102" y="796"/>
      <point x="102" y="750" type="curve" smooth="yes"/>
      <point x="102" y="634"/>
      <point x="191" y="596"/>
      <point x="293" y="596" type="curve" smooth="yes"/>
      <point x="414" y="596"/>
      <point x="529" y="643"/>
      <point x="529" y="782" type="curve" smooth="yes"/>
      <point x="529" y="848" type="line" smooth="yes"/>
      <point x="529" y="883"/>
      <point x="569" y="898"/>
      <point x="598" y="898" type="curve" smooth="yes"/>
      <point x="651" y="898"/>
      <point x="679" y="857"/>
      <point x="679" y="807" type="curve" smooth="yes"/>
      <point x="679" y="211" type="line"/>
      <point x="722" y="203" type="line"/>
      <point x="722" y="175" type="line" smooth="yes"/>
      <point x="722" y="32"/>
      <point x="880" y="-29"/>
    </contour>
    <contour>
      <point x="64" y="230" type="curve" smooth="yes"/>
      <point x="64" y="53"/>
      <point x="230" y="-29"/>
      <point x="387" y="-29" type="curve" smooth="yes"/>
      <point x="515" y="-29"/>
      <point x="673" y="14"/>
      <point x="752" y="122" type="curve"/>
      <point x="724" y="247" type="line"/>
      <point x="698" y="220"/>
      <point x="660" y="207"/>
      <point x="623" y="207" type="curve" smooth="yes"/>
      <point x="556" y="207"/>
      <point x="516" y="252"/>
      <point x="516" y="318" type="curve" smooth="yes"/>
      <point x="516" y="379"/>
      <point x="555" y="423"/>
      <point x="617" y="423" type="curve" smooth="yes"/>
      <point x="648" y="423"/>
      <point x="680" y="417"/>
      <point x="707" y="401" type="curve"/>
      <point x="751" y="525" type="line"/>
      <point x="692" y="551"/>
      <point x="626" y="552"/>
      <point x="563" y="552" type="curve" smooth="yes"/>
      <point x="361" y="552"/>
      <point x="64" y="483"/>
    </contour>
    <contour>
      <point x="585" y="1582" type="curve" smooth="yes"/>
      <point x="486" y="1582"/>
      <point x="402" y="1510"/>
      <point x="402" y="1408" type="curve" smooth="yes"/>
      <point x="402" y="1253"/>
      <point x="548" y="1206"/>
      <point x="665" y="1154" type="curve" smooth="yes"/>
      <point x="708" y="1135"/>
      <point x="766" y="1104"/>
      <point x="813" y="1104" type="curve" smooth="yes"/>
      <point x="853" y="1104"/>
      <point x="888" y="1128"/>
      <point x="888" y="1171" type="curve" smooth="yes"/>
      <point x="888" y="1225"/>
      <point x="823" y="1338"/>
      <point x="796" y="1389" type="curve" smooth="yes"/>
      <point x="749" y="1479"/>
      <point x="703" y="1582"/>
    </contour>
  </outline>
</glyph>
<glyph name="atilde" format="2">
  <advance width="1161"/>
  <unicode hex="00E3"/>
  <anchor x="645" y="0" name="bottom"/>
  <anchor x="1156" y="11" name="ogonek"/>
  <anchor x="645" y="1494" name="top"/>
  <outline>
    <contour>
      <point x="1001" y="-29" type="curve" smooth="yes"/>
      <point x="1128" y="-29"/>
      <point x="1283" y="52"/>
      <point x="1283" y="195" type="curve" smooth="yes"/>
      <point x="1283" y="231"/>
      <point x="1263" y="262"/>
      <point x="1224" y="262" type="curve" smooth="yes"/>
      <point x="1201" y="262"/>
      <point x="1187" y="243"/>
      <point x="1164" y="243" type="curve" smooth="yes"/>
      <point x="1137" y="243"/>
      <point x="1124" y="261"/>
      <point x="1124" y="286" type="curve" smooth="yes"/>
      <point x="1124" y="747" type="line" smooth="yes"/>
      <point x="1124" y="985"/>
      <point x="926" y="1054"/>
      <point x="722" y="1054" type="curve" smooth="yes"/>
      <point x="535" y="1054"/>
      <point x="285" y="1020"/>
      <point x="154" y="873" type="curve" smooth="yes"/>
      <point x="124" y="839"/>
      <point x="102" y="796"/>
      <point x="102" y="750" type="curve" smooth="yes"/>
      <point x="102" y="634"/>
      <point x="191" y="596"/>
      <point x="293" y="596" type="curve" smooth="yes"/>
      <point x="414" y="596"/>
      <point x="529" y="643"/>
      <point x="529" y="782" type="curve" smooth="yes"/>
      <point x="529" y="848" type="line" smooth="yes"/>
      <point x="529" y="883"/>
      <point x="569" y="898"/>
      <point x="598" y="898" type="curve" smooth="yes"/>
      <point x="651" y="898"/>
      <point x="679" y="857"/>
      <point x="679" y="807" type="curve" smooth="yes"/>
      <point x="679" y="211" type="line"/>
      <point x="722" y="203" type="line"/>
      <point x="722" y="175" type="line" smooth="yes"/>
      <point x="722" y="32"/>
      <point x="880" y="-29"/>
    </contour>
    <contour>
      <point x="64" y="230" type="curve" smooth="yes"/>
      <point x="64" y="53"/>
      <point x="230" y="-29"/>
      <point x="387" y="-29" type="curve" smooth="yes"/>
      <point x="515" y="-29"/>
      <point x="673" y="14"/>
      <point x="752" y="122" type="curve"/>
      <point x="724" y="247" type="line"/>
      <point x="698" y="220"/>
      <point x="660" y="207"/>
      <point x="623" y="207" type="curve" smooth="yes"/>
      <point x="556" y="207"/>
      <point x="516" y="252"/>
      <point x="516" y="318" type="curve" smooth="yes"/>
      <point x="516" y="379"/>
      <point x="555" y="423"/>
      <point x="617" y="423" type="curve" smooth="yes"/>
      <point x="648" y="423"/>
      <point x="680" y="417"/>
      <point x="707" y="401" type="curve"/>
      <point x="751" y="525" type="line"/>
      <point x="692" y="551"/>
      <point x="626" y="552"/>
      <point x="563" y="552" type="curve" smooth="yes"/>
      <point x="361" y="552"/>
      <point x="64" y="483"/>
    </contour>
    <contour>
      <point x="806" y="1107" type="curve" smooth="yes"/>
      <point x="953" y="1107"/>
      <point x="1003" y="1263"/>
      <point x="1003" y="1385" type="curve" smooth="yes"/>
      <point x="1003" y="1437"/>
      <point x="993" y="1495"/>
      <point x="928" y="1495" type="curve" smooth="yes"/>
      <point x="820" y="1495"/>
      <point x="869" y="1368"/>
      <point x="773" y="1368" type="curve" smooth="yes"/>
      <point x="699" y="1368"/>
      <point x="607" y="1490"/>
      <point x="485" y="1490" type="curve" smooth="yes"/>
      <point x="337" y="1490" name=".hr01"/>
      <point x="288" y="1336"/>
      <point x="288" y="1213" type="curve" smooth="yes"/>
      <point x="288" y="1161"/>
      <point x="298" y="1102"/>
      <point x="363" y="1102" type="curve" smooth="yes"/>
      <point x="466" y="1102"/>
      <point x="427" y="1229"/>
      <point x="518" y="1229" type="curve" smooth="yes"/>
      <point x="593" y="1229"/>
      <point x="683" y="1107"/>
    </contour>
  </outline>
</glyph>
<glyph name="adieresis" format="2">
  <advance width="1161"/>
  <unicode hex="00E4"/>
  <anchor x="645" y="0" name="bottom"/>
  <anchor x="1156" y="11" name="ogonek"/>
  <anchor x="645" y="1472" name="top"/>
  <outline>
    <contour>
      <point x="1001" y="-29" type="curve" smooth="yes"/>
      <point x="1128" y="-29"/>
      <point x="1283" y="52"/>
      <point x="1283" y="195" type="curve" smooth="yes"/>
      <point x="1283" y="231"/>
      <point x="1263" y="262"/>
      <point x="1224" y="262" type="curve" smooth="yes"/>
      <point x="1201" y="262"/>
      <point x="1187" y="243"/>
      <point x="1164" y="243" type="curve" smooth="yes"/>
      <point x="1137" y="243"/>
      <point x="1124" y="261"/>
      <point x="1124" y="286" type="curve" smooth="yes"/>
      <point x="1124" y="747" type="line" smooth="yes"/>
      <point x="1124" y="985"/>
      <point x="926" y="1054"/>
      <point x="722" y="1054" type="curve" smooth="yes"/>
      <point x="535" y="1054"/>
      <point x="285" y="1020"/>
      <point x="154" y="873" type="curve" smooth="yes"/>
      <point x="124" y="839"/>
      <point x="102" y="796"/>
      <point x="102" y="750" type="curve" smooth="yes"/>
      <point x="102" y="634"/>
      <point x="191" y="596"/>
      <point x="293" y="596" type="curve" smooth="yes"/>
      <point x="414" y="596"/>
      <point x="529" y="643"/>
      <point x="529" y="782" type="curve" smooth="yes"/>
      <point x="529" y="848" type="line" smooth="yes"/>
      <point x="529" y="883"/>
      <point x="569" y="898"/>
      <point x="598" y="898" type="curve" smooth="yes"/>
      <point x="651" y="898"/>
      <point x="679" y="857"/>
      <point x="679" y="807" type="curve" smooth="yes"/>
      <point x="679" y="211" type="line"/>
      <point x="722" y="203" type="line"/>
      <point x="722" y="175" type="line" smooth="yes"/>
      <point x="722" y="32"/>
      <point x="880" y="-29"/>
    </contour>
    <contour>
      <point x="64" y="230" type="curve" smooth="yes"/>
      <point x="64" y="53"/>
      <point x="230" y="-29"/>
      <point x="387" y="-29" type="curve" smooth="yes"/>
      <point x="515" y="-29"/>
      <point x="673" y="14"/>
      <point x="752" y="122" type="curve"/>
      <point x="724" y="247" type="line"/>
      <point x="698" y="220"/>
      <point x="660" y="207"/>
      <point x="623" y="207" type="curve" smooth="yes"/>
      <point x="556" y="207"/>
      <point x="516" y="252"/>
      <point x="516" y="318" type="curve" smooth="yes"/>
      <point x="516" y="379"/>
      <point x="555" y="423"/>
      <point x="617" y="423" type="curve" smooth="yes"/>
      <point x="648" y="423"/>
      <point x="680" y="417"/>
      <point x="707" y="401" type="curve"/>
      <point x="751" y="525" type="line"/>
      <point x="692" y="551"/>
      <point x="626" y="552"/>
      <point x="563" y="552" type="curve" smooth="yes"/>
      <point x="361" y="552"/>
      <point x="64" y="483"/>
    </contour>
    <contour>
      <point x="385" y="1093" type="curve" smooth="yes"/>
      <point x="505" y="1093"/>
      <point x="595" y="1154"/>
      <point x="595" y="1282" type="curve" smooth="yes"/>
      <point x="595" y="1410"/>
      <point x="506" y="1472"/>
      <point x="385" y="1472" type="curve" smooth="yes"/>
      <point x="265" y="1472"/>
      <point x="174" y="1410"/>
      <point x="174" y="1282" type="curve" smooth="yes"/>
      <point x="174" y="1153"/>
      <point x="264" y="1093"/>
    </contour>
    <contour>
      <point x="903" y="1093" type="curve" smooth="yes"/>
      <point x="1024" y="1093"/>
      <point x="1116" y="1152"/>
      <point x="1116" y="1282" type="curve" smooth="yes"/>
      <point x="1116" y="1412"/>
      <point x="1025" y="1472"/>
      <point x="903" y="1472" type="curve" smooth="yes"/>
      <point x="783" y="1472"/>
      <point x="692" y="1410"/>
      <point x="692" y="1282" type="curve" smooth="yes"/>
      <point x="692" y="1153"/>
      <point x="782" y="1093"/>
    </contour>
  </outline>
</glyph>
<glyph name="eacute" format="2">
  <advance width="1086"/>
  <unicode hex="00E9"/>
  <anchor x="599" y="0" name="bottom"/>
  <anchor x="1075" y="11" name="ogonek"/>
  <anchor x="599" y="1582" name="top"/>
  <outline>
    <contour>
      <point x="1142" y="661" type="curve" smooth="yes"/>
      <point x="1142" y="929"/>
      <point x="886" y="1056"/>
      <point x="649" y="1056" type="curve" smooth="yes"/>
      <point x="301" y="1056"/>
      <point x="57" y="854"/>
      <point x="57" y="495" type="curve" smooth="yes"/>
      <point x="57" y="158"/>
      <point x="312" y="-29"/>
      <point x="632" y="-29" type="curve" smooth="yes"/>
      <point x="845" y="-29"/>
      <point x="1138" y="81"/>
      <point x="1138" y="334" type="curve" smooth="yes"/>
      <point x="1138" y="370"/>
      <point x="1121" y="401"/>
      <point x="1081" y="401" type="curve" smooth="yes"/>
      <point x="1044" y="401"/>
      <point x="897" y="277"/>
      <point x="764" y="277" type="curve" smooth="yes"/>
      <point x="543" y="277"/>
      <point x="453" y="430"/>
      <point x="453" y="634" type="curve" smooth="yes"/>
      <point x="453" y="720"/>
      <point x="476" y="847"/>
      <point x="586" y="847" type="curve" smooth="yes"/>
      <point x="672" y="847"/>
      <point x="699" y="753"/>
      <point x="699" y="683" type="curve" smooth="yes"/>
      <point x="699" y="632"/>
      <point x="677" y="612"/>
      <point x="627" y="612" type="curve" smooth="yes"/>
      <point x="344" y="612" type="line"/>
      <point x="344" y="480" type="line"/>
      <point x="942" y="480" type="line" smooth="yes"/>
      <point x="1059" y="480"/>
      <point x="1142" y="537"/>
    </contour>
    <contour>
      <point x="356" y="1171" type="curve" smooth="yes"/>
      <point x="356" y="1128"/>
      <point x="391" y="1104"/>
      <point x="431" y="1104" type="curve" smooth="yes"/>
      <point x="452" y="1104"/>
      <point x="469" y="1110"/>
      <point x="488" y="1118" type="curve" smooth="yes"/>
      <point x="654" y="1184" type="line" smooth="yes"/>
      <point x="749" y="1222"/>
      <point x="843" y="1296"/>
      <point x="843" y="1408" type="curve" smooth="yes"/>
      <point x="843" y="1510"/>
      <point x="758" y="1582"/>
      <point x="659" y="1582" type="curve" smooth="yes"/>
      <point x="540" y="1582"/>
      <point x="495" y="1479"/>
      <point x="448" y="1389" type="curve" smooth="yes"/>
      <point x="422" y="1340"/>
      <point x="356" y="1222"/>
    </contour>
  </outline>
</glyph>
<glyph name="ecircumflex" format="2">
  <advance width="1086"/>
  <unicode hex="00EA"/>
  <anchor x="599" y="0" name="bottom"/>
  <anchor x="1075" y="11" name="ogonek"/>
  <anchor x="599" y="1554" name="top"/>
  <outline>
    <contour>
      <point x="1142" y="661" type="curve" smooth="yes"/>
      <point x="1142" y="929"/>
      <point x="886" y="1056"/>
      <point x="649" y="1056" type="curve" smooth="yes"/>
      <point x="301" y="1056"/>
      <point x="57" y="854"/>
      <point x="57" y="495" type="curve" smooth="yes"/>
      <point x="57" y="158"/>
      <point x="312" y="-29"/>
      <point x="632" y="-29" type="curve" smooth="yes"/>
      <point x="845" y="-29"/>
      <point x="1138" y="81"/>
      <point x="1138" y="334" type="curve" smooth="yes"/>
      <point x="1138" y="370"/>
      <point x="1121" y="401"/>
      <point x="1081" y="401" type="curve" smooth="yes"/>
      <point x="1044" y="401"/>
      <point x="897" y="277"/>
      <point x="764" y="277" type="curve" smooth="yes"/>
      <point x="543" y="277"/>
      <point x="453" y="430"/>
      <point x="453" y="634" type="curve" smooth="yes"/>
      <point x="453" y="720"/>
      <point x="476" y="847"/>
      <point x="586" y="847" type="curve" smooth="yes"/>
      <point x="672" y="847"/>
      <point x="699" y="753"/>
      <point x="699" y="683" type="curve" smooth="yes"/>
      <point x="699" y="632"/>
      <point x="677" y="612"/>
      <point x="627" y="612" type="curve" smooth="yes"/>
      <point x="344" y="612" type="line"/>
      <point x="344" y="480" type="line"/>
      <point x="942" y="480" type="line" smooth="yes"/>
      <point x="1059" y="480"/>
      <point x="1142" y="537"/>
    </contour>
    <contour>
      <point x="497" y="1374" type="line"/>
      <point x="807" y="1134" type="line" smooth="yes"/>
      <point x="830" y="1116"/>
      <point x="857" y="1103"/>
      <point x="886" y="1103" type="curve" smooth="yes"/>
      <point x="928" y="1103"/>
      <point x="969" y="1132"/>
      <point x="969" y="1177" type="curve" smooth="yes"/>
      <point x="969" y="1205"/>
      <point x="957" y="1233"/>
      <point x="939" y="1254" type="curve" smooth="yes"/>
      <point x="777" y="1444" type="line" smooth="yes"/>
      <point x="725" y="1505"/>
      <point x="686" y="1554"/>
      <point x="599" y="1554" type="curve" smooth="yes"/>
      <point x="512" y="1554"/>
      <point x="473" y="1505"/>
      <point x="421" y="1444" type="curve" smooth="yes"/>
      <point x="259" y="1254" type="line" smooth="yes"/>
      <point x="241" y="1233"/>
      <point x="229" y="1205"/>
      <point x="229" y="1177" type="curve" smooth="yes"/>
      <point x="229" y="1132"/>
      <point x="270" y="1103"/>
      <point x="312" y="1103" type="curve" smooth="yes"/>
      <point x="341" y="1103"/>
      <point x="368" y="1116"/>
      <point x="391" y="1134" type="curve" smooth="yes"/>
      <point x="701" y="1374" type="line"/>
    </contour>
  </outline>
</glyph>
<glyph name="igrave" format="2">
  <advance width="730"/>
  <unicode hex="00EC"/>
  <anchor x="378" y="0" name="bottom"/>
  <anchor x="678" y="11" name="ogonek"/>
  <anchor x="378" y="1582" name="top"/>
  <outline>
    <contour>
      <point x="527" y="1056" type="curve" smooth="yes"/>
      <point x="469" y="1056"/>
      <point x="416" y="1037"/>
      <point x="363" y="1016" type="curve" smooth="yes"/>
      <point x="138" y="929" type="line" smooth="yes"/>
      <point x="93" y="912"/>
      <point x="53" y="885"/>
      <point x="53" y="832" type="curve" smooth="yes"/>
      <point x="53" y="734"/>
      <point x="164" y="779"/>
      <point x="164" y="650" type="curve" smooth="yes"/>
      <point x="164" y="289" type="line" smooth="yes"/>
      <point x="164" y="153"/>
      <point x="66" y="195"/>
      <point x="66" y="91" type="curve" smooth="yes"/>
      <point x="66" y="30"/>
      <point x="108" y="0"/>
      <point x="166" y="0" type="curve" smooth="yes"/>
      <point x="612" y="0" type="line" smooth="yes"/>
      <point x="669" y="0"/>
      <point x="712" y="31"/>
      <point x="712" y="91" type="curve" smooth="yes"/>
      <point x="712" y="150"/>
      <point x="684" y="161"/>
      <point x="644" y="195" type="curve" smooth="yes"/>
      <point x="613" y="222"/>
      <point x="614" y="263"/>
      <point x="614" y="301" type="curve" smooth="yes"/>
      <point x="614" y="961" type="line" smooth="yes"/>
      <point x="614" y="1013"/>
      <point x="582" y="1056"/>
    </contour>
    <contour>
      <point x="318" y="1582" type="curve" smooth="yes"/>
      <point x="219" y="1582"/>
      <point x="135" y="1510"/>
      <point x="135" y="1408" type="curve" smooth="yes"/>
      <point x="135" y="1253"/>
      <point x="281" y="1206"/>
      <point x="398" y="1154" type="curve" smooth="yes"/>
      <point x="441" y="1135"/>
      <point x="499" y="1104"/>
      <point x="546" y="1104" type="curve" smooth="yes"/>
      <point x="586" y="1104"/>
      <point x="621" y="1128"/>
      <point x="621" y="1171" type="curve" smooth="yes"/>
      <point x="621" y="1225"/>
      <point x="556" y="1338"/>
      <point x="529" y="1389" type="curve" smooth="yes"/>
      <point x="482" y="1479"/>
      <point x="436" y="1582"/>
    </contour>
  </outline>
</glyph>
<glyph name="eth" format="2">
  <advance width="1233"/>
  <unicode hex="00F0"/>
  <anchor x="662" y="0" name="bottom"/>
  <anchor x="662" y="2079" name="top"/>
  <outline>
    <contour>
      <point x="1280" y="641" type="curve" smooth="yes"/>
      <point x="1280" y="1023"/>
      <point x="1043" y="1401"/>
      <point x="688" y="1550" type="curve" smooth="yes"/>
      <point x="616" y="1580"/>
      <point x="519" y="1611"/>
      <point x="440" y="1611" type="curve" smooth="yes"/>
      <point x="395" y="1611"/>
      <point x="329" y="1595"/>
      <point x="329" y="1536" type="curve" smooth="yes"/>
      <point x="329" y="1484"/>
      <point x="361" y="1469"/>
      <point x="399" y="1445" type="curve" smooth="yes"/>
      <point x="647" y="1288"/>
      <point x="782" y="1101"/>
      <point x="815" y="804" type="curve"/>
      <point x="852" y="821" type="line"/>
      <point x="836" y="986"/>
      <point x="689" y="1059"/>
      <point x="538" y="1059" type="curve" smooth="yes"/>
      <point x="257" y="1059"/>
      <point x="55" y="831"/>
      <point x="55" y="556" type="curve" smooth="yes"/>
      <point x="55" y="186"/>
      <point x="297" y="-32"/>
      <point x="661" y="-32" type="curve" smooth="yes"/>
      <point x="1075" y="-32"/>
      <point x="1280" y="247"/>
    </contour>
    <contour>
      <point x="521" y="666" type="curve" smooth="yes"/>
      <point x="521" y="732"/>
      <point x="536" y="839"/>
      <point x="623" y="839" type="curve" smooth="yes"/>
      <point x="731" y="839"/>
      <point x="797" y="662"/>
      <point x="816" y="575" type="curve" smooth="yes"/>
      <point x="828" y="519"/>
      <point x="834" y="462"/>
      <point x="834" y="405" type="curve" smooth="yes"/>
      <point x="834" y="334"/>
      <point x="826" y="193"/>
      <point x="728" y="193" type="curve" smooth="yes"/>
      <point x="622" y="193"/>
      <point x="553" y="415"/>
      <point x="537" y="499" type="curve" smooth="yes"/>
      <point x="526" y="554"/>
      <point x="521" y="610"/>
    </contour>
    <contour>
      <point x="335" y="1131" type="curve" smooth="yes"/>
      <point x="347" y="1131"/>
      <point x="360" y="1135"/>
      <point x="371" y="1140" type="curve" smooth="yes"/>
      <point x="1064" y="1461" type="line" smooth="yes"/>
      <point x="1091" y="1473"/>
      <point x="1116" y="1493"/>
      <point x="1116" y="1525" type="curve" smooth="yes"/>
      <point x="1116" y="1564"/>
      <point x="1087" y="1603"/>
      <point x="1046" y="1603" type="curve" smooth="yes"/>
      <point x="1031" y="1603"/>
      <point x="1016" y="1598"/>
      <point x="1002" y="1592" type="curve"/>
      <point x="310" y="1271" type="line" smooth="yes"/>
      <point x="286" y="1260"/>
      <point x="265" y="1239"/>
      <point x="265" y="1211" type="curve" smooth="yes"/>
      <point x="265" y="1172"/>
      <point x="293" y="1131"/>
    </contour>
  </outline>
</glyph>
<glyph name="ntilde" format="2">
  <advance width="1374"/>
  <unicode hex="00F1"/>
  <anchor x="733" y="0" name="bottom"/>
  <anchor x="733" y="1494" name="top"/>
  <outline>
    <contour>
      <point x="527" y="1056" type="curve" smooth="yes"/>
      <point x="469" y="1056"/>
      <point x="416" y="1037"/>
      <point x="363" y="1016" type="curve" smooth="yes"/>
      <point x="138" y="929" type="line" smooth="yes"/>
      <point x="93" y="912"/>
      <point x="53" y="885"/>
      <point x="53" y="832" type="curve" smooth="yes"/>
      <point x="53" y="731"/>
      <point x="164" y="783"/>
      <point x="164" y="650" type="curve" smooth="yes"/>
      <point x="164" y="289" type="line" smooth="yes"/>
      <point x="164" y="153"/>
      <point x="66" y="195"/>
      <point x="66" y="91" type="curve" smooth="yes"/>
      <point x="66" y="30"/>
      <point x="108" y="0"/>
      <point x="166" y="0" type="curve" smooth="yes"/>
      <point x="610" y="0" type="line" smooth="yes"/>
      <point x="666" y="0"/>
      <point x="699" y="35"/>
      <point x="699" y="91" type="curve" smooth="yes"/>
      <point x="699" y="143"/>
      <point x="675" y="152"/>
      <point x="641" y="184" type="curve" smooth="yes"/>
      <point x="612" y="211"/>
      <point x="614" y="251"/>
      <point x="614" y="287" type="curve" smooth="yes"/>
      <point x="614" y="961" type="line" smooth="yes"/>
      <point x="614" y="1013"/>
      <point x="582" y="1056"/>
    </contour>
    <contour>
      <point x="575" y="660" type="line"/>
      <point x="631" y="712"/>
      <point x="677" y="746"/>
      <point x="757" y="746" type="curve" smooth="yes"/>
      <point x="841" y="746"/>
      <point x="874" y="686"/>
      <point x="874" y="609" type="curve" smooth="yes"/>
      <point x="874" y="278" type="line" smooth="yes"/>
      <point x="874" y="146"/>
      <point x="789" y="186"/>
      <point x="789" y="91" type="curve" smooth="yes"/>
      <point x="789" y="35"/>
      <point x="822" y="0"/>
      <point x="878" y="0" type="curve" smooth="yes"/>
      <point x="1321" y="0" type="line" smooth="yes"/>
      <point x="1379" y="0"/>
      <point x="1421" y="30"/>
      <point x="1421" y="91" type="curve" smooth="yes"/>
      <point x="1421" y="194"/>
      <point x="1323" y="146"/>
      <point x="1323" y="301" type="curve" smooth="yes"/>
      <point x="1323" y="717" type="line" smooth="yes"/>
      <point x="1323" y="907"/>
      <point x="1205" y="1056"/>
      <point x="1007" y="1056" type="curve" smooth="yes"/>
      <point x="810" y="1056"/>
      <point x="628" y="881"/>
      <point x="495" y="753" type="curve"/>
    </contour>
    <contour>
      <point x="894" y="1107" type="curve" smooth="yes"/>
      <point x="1041" y="1107"/>
      <point x="1091" y="1263"/>
      <point x="1091" y="1385" type="curve" smooth="yes"/>
      <point x="1091" y="1437"/>
      <point x="1081" y="1495"/>
      <point x="1016" y="1495" type="curve" smooth="yes"/>
      <point x="908" y="1495"/>
      <point x="957" y="1368"/>
      <point x="861" y="1368" type="curve" smooth="yes"/>
      <point x="787" y="1368"/>
      <point x="695" y="1490"/>
      <point x="573" y="1490" type="curve" smooth="yes" name=".hr01"/>
      <point x="425" y="1490"/>
      <point x="376" y="1336"/>
      <point x="376" y="1213" type="curve" smooth="yes"/>
      <point x="376" y="1161"/>
      <point x="386" y="1102"/>
      <point x="451" y="1102" type="curve" smooth="yes"/>
      <point x="554" y="1102"/>
      <point x="515" y="1229"/>
      <point x="606" y="1229" type="curve" smooth="yes"/>
      <point x="681" y="1229"/>
      <point x="771" y="1107"/>
    </contour>
  </outline>
</glyph>
<glyph name="oacute" format="2">
  <advance width="1233"/>
  <unicode hex="00F3"/>
  <anchor x="667" y="0" name="bottom"/>
  <anchor x="667" y="512" name="center"/>
  <anchor x="1196" y="11" name="ogonek"/>
  <anchor x="1308" y="1024" name="topright"/>
  <anchor x="667" y="1582" name="top"/>
  <outline>
    <contour>
      <point x="675" y="1056" type="curve" smooth="yes"/>
      <point x="361" y="1056"/>
      <point x="58" y="864"/>
      <point x="58" y="523" type="curve" smooth="yes"/>
      <point x="58" y="170"/>
      <point x="321" y="-29"/>
      <point x="658" y="-29" type="curve" smooth="yes"/>
      <point x="977" y="-29"/>
      <point x="1275" y="164"/>
      <point x="1275" y="508" type="curve" smooth="yes"/>
      <point x="1275" y="859"/>
      <point x="1008" y="1056"/>
    </contour>
    <contour>
      <point x="735" y="192" type="curve" smooth="yes"/>
      <point x="589" y="192"/>
      <point x="512" y="561"/>
      <point x="512" y="674" type="curve" smooth="yes"/>
      <point x="512" y="732"/>
      <point x="525" y="838"/>
      <point x="603" y="838" type="curve" smooth="yes"/>
      <point x="746" y="838"/>
      <point x="826" y="469"/>
      <point x="826" y="358" type="curve" smooth="yes"/>
      <point x="826" y="301"/>
      <point x="812" y="192"/>
    </contour>
    <contour>
      <point x="424" y="1171" type="curve" smooth="yes"/>
      <point x="424" y="1128"/>
      <point x="459" y="1104"/>
      <point x="499" y="1104" type="curve" smooth="yes"/>
      <point x="520" y="1104"/>
      <point x="537" y="1110"/>
      <point x="556" y="1118" type="curve" smooth="yes"/>
      <point x="722" y="1184" type="line" smooth="yes"/>
      <point x="817" y="1222"/>
      <point x="911" y="1296"/>
      <point x="911" y="1408" type="curve" smooth="yes"/>
      <point x="911" y="1510"/>
      <point x="826" y="1582"/>
      <point x="727" y="1582" type="curve" smooth="yes"/>
      <point x="608" y="1582"/>
      <point x="563" y="1479"/>
      <point x="516" y="1389" type="curve" smooth="yes"/>
      <point x="490" y="1340"/>
      <point x="424" y="1222"/>
    </contour>
  </outline>
</glyph>
